<svg width="34" height="39" viewBox="0 0 34 39" fill="none" xmlns="http://www.w3.org/2000/svg">
<path fill-rule="evenodd" clip-rule="evenodd" d="M14.0168 0.706293C13.4967 0.940354 13.2291 1.53873 13.2291 2.46713C13.2291 3.43413 12.8433 4.55874 12.0072 6.02893C11.6112 6.72516 10.9598 7.93281 10.5596 8.71272L9.83187 10.1305L9.57678 9.53554C9.43656 9.20818 9.22826 8.61689 9.11378 8.22156C8.85654 7.33228 8.52488 6.89669 8.02119 6.78631C7.40529 6.65124 6.96916 6.9291 6.16398 7.96952C2.95288 12.1188 1.26518 15.7859 0.793938 19.6371C0.709629 20.326 0.677807 21.4886 0.719264 22.3588C0.846425 25.0196 1.3358 26.9221 2.51042 29.3211C4.74581 33.8867 8.90231 37.0998 13.9898 38.1948C15.4932 38.5185 18.8223 38.5191 20.3221 38.1962C22.5789 37.7102 24.5352 36.8912 26.433 35.6381C27.6317 34.8465 29.983 32.4988 30.7758 31.3019C33.1024 27.789 34.0194 23.835 33.4662 19.7004C32.6742 13.781 29.982 8.69031 26.7671 7.0334C26.0626 6.67022 26.0079 6.66554 25.4685 6.92112C24.9867 7.14936 24.8862 7.33975 24.5075 8.74069C24.3529 9.313 24.1844 9.73454 24.1331 9.67732C24.0819 9.62023 23.9709 9.28857 23.8866 8.94045C23.6232 7.85293 22.7725 5.98273 22.0437 4.88939C21.1337 3.52376 19.73 2.2194 18.464 1.56279C16.8573 0.729585 14.8315 0.339441 14.0168 0.706293ZM17.6262 3.96251C18.5071 4.49165 19.5345 5.58853 20.205 6.71542C21.1359 8.27991 21.9769 11.1078 21.9769 12.6729C21.9769 13.5636 22.0995 14.0257 22.43 14.382C22.8635 14.8488 23.623 14.8232 24.2589 14.3204C24.9258 13.7931 25.8487 12.3992 26.3454 11.1692L26.7633 10.1344L27.3405 10.7755C28.4313 11.9868 29.5343 14.2218 30.2334 16.6377C30.8324 18.7077 31.025 20.0302 31.0297 22.1056C31.0334 23.7807 30.9918 24.1685 30.6775 25.3969C28.2723 34.7944 17.4405 38.9404 9.37165 33.5518C6.1816 31.4214 3.83527 27.5702 3.344 23.6587C2.92829 20.348 3.48929 17.3454 5.10447 14.2369C5.80303 12.8924 7.12916 10.7791 7.27572 10.777C7.3135 10.7765 7.49213 11.0769 7.67279 11.4446C8.1931 12.5039 9.48588 14.1335 9.99871 14.3765C10.372 14.5534 10.5259 14.5649 10.8929 14.444C11.4757 14.2519 11.6649 13.9343 11.8336 12.8647C12.0996 11.1783 12.361 10.5205 13.6277 8.35042C14.9169 6.14159 15.3286 5.18105 15.691 3.53515L15.7663 3.19336L16.3461 3.36755C16.665 3.46338 17.241 3.73111 17.6262 3.96251ZM12.5178 17.3623C11.6223 17.5521 11.0755 18.2464 11.0755 19.1941C11.0755 20.3007 11.797 21.0273 12.8972 21.0287C14.0131 21.0302 14.7914 20.2764 14.7914 19.1941C14.7914 17.9726 13.7184 17.1081 12.5178 17.3623ZM21.1739 17.6434C21.0033 17.8001 19.4205 19.5802 17.6565 21.5992C15.8925 23.6183 13.845 25.9539 13.1064 26.7893C11.079 29.0828 11.0738 29.0901 11.0738 29.6302C11.0738 30.494 11.7982 31.0445 12.6531 30.8301C12.9002 30.7682 14.4421 29.102 18.1209 24.9213C23.0728 19.2939 23.2447 19.0813 23.2447 18.5837C23.2447 17.8451 22.7597 17.3585 22.0237 17.3585C21.6403 17.3585 21.3941 17.4411 21.1739 17.6434ZM20.7091 27.2477C19.4047 27.7654 19.091 29.4616 20.131 30.3734C21.4149 31.499 23.2447 30.6722 23.2447 28.9664C23.2447 27.6797 21.9062 26.7725 20.7091 27.2477Z" fill="white"/>
</svg>
