<svg width="25" height="39" viewBox="0 0 25 39" fill="none" xmlns="http://www.w3.org/2000/svg">
<path fill-rule="evenodd" clip-rule="evenodd" d="M11.6694 0.733834C10.4965 1.09457 9.54253 2.39689 9.54253 3.63731V4.10715H9.06154C8.45538 4.10715 7.96715 4.35511 7.78426 4.75605C7.70623 4.92705 7.64234 5.41136 7.64234 5.83222V6.59746H5.17161C2.75135 6.59746 2.68841 6.60375 2.08367 6.9046C1.74413 7.07359 1.30756 7.40409 1.1135 7.63913C0.361974 8.54951 0.397603 7.80337 0.400453 22.5981C0.403066 35.8858 0.406273 36.0733 0.644747 36.5998C0.940465 37.2531 1.48855 37.8407 2.11989 38.1816L2.59494 38.4379H12.6303C22.3178 38.4379 22.6818 38.43 23.1293 38.2082C23.6784 37.9362 24.3013 37.3395 24.5936 36.8055C24.7903 36.446 24.8055 35.5614 24.8365 22.7252C24.8665 10.233 24.8522 8.98307 24.6734 8.51204C24.4025 7.79827 23.8457 7.20368 23.1416 6.87626C22.5792 6.61478 22.4134 6.59972 20.0827 6.59865L17.6184 6.59746V5.7147C17.6184 4.96109 17.5779 4.78487 17.3415 4.51058C17.1172 4.25004 16.9375 4.17877 16.3914 4.13347L15.7182 4.07774L15.7156 3.52915C15.7101 2.39061 14.852 1.20545 13.7293 0.786012C12.997 0.512314 12.4355 0.498202 11.6694 0.733834ZM13.1487 3.04852C13.3781 3.22854 13.4617 3.40286 13.4617 3.70075V4.10715H12.6303C11.8875 4.10715 11.799 4.08272 11.799 3.87768C11.799 3.46749 12.027 3.03595 12.302 2.92567C12.7035 2.76463 12.8064 2.77945 13.1487 3.04852ZM15.3619 7.66474V8.96919H12.6303H9.89882V7.66474V6.36029H12.6303H15.3619V7.66474ZM7.66205 9.75281C7.70302 10.5645 7.74079 10.6835 8.03793 10.9387L8.36821 11.2223H12.6461H16.9241L17.2712 10.8757C17.5895 10.5579 17.6184 10.4592 17.6184 9.68984V8.85061H19.9275C22.1791 8.85061 22.2412 8.85713 22.4215 9.11422C22.5862 9.34891 22.6064 10.8214 22.6064 22.5651V35.7525L22.2934 35.9983C21.9829 36.2422 21.9101 36.2441 12.609 36.2441H3.23733L2.94588 35.953L2.65432 35.6619V22.4934C2.65432 9.48303 2.65717 9.32211 2.89185 9.08778C3.11263 8.86733 3.28768 8.85061 5.37291 8.85061H7.61633L7.66205 9.75281ZM18.6278 14.9168C18.4972 14.9882 18.033 15.3953 17.5963 15.8216L16.8022 16.5966L16.3748 16.2219C15.6797 15.6124 14.784 15.7336 14.4719 16.4794C14.2183 17.0854 14.368 17.4102 15.3493 18.3842C16.0669 19.0966 16.361 19.3091 16.7076 19.3652C17.1439 19.436 17.1703 19.4167 18.6904 17.9148C20.1802 16.4429 20.2311 16.3761 20.2311 15.8932C20.2311 15.4813 20.1672 15.3403 19.8657 15.087C19.4807 14.7634 19.0238 14.7006 18.6278 14.9168ZM5.37671 17.4983C4.93004 17.9443 4.90629 18.5369 5.31602 19.0128L5.60248 19.3455L8.48317 19.3813C10.5176 19.4066 11.4643 19.3755 11.7058 19.2757C12.4383 18.9727 12.5832 17.8861 11.9567 17.3939C11.6648 17.1647 11.4893 17.1517 8.68602 17.1517H5.72385L5.37671 17.4983ZM18.806 21.0243C18.708 21.0617 18.2238 21.4884 17.73 21.9726L16.832 22.8528L16.602 22.5991C15.8476 21.7667 14.7178 21.8586 14.4143 22.7772C14.2355 23.3177 14.3967 23.6699 15.2141 24.5257C15.9868 25.3348 16.3718 25.5713 16.9161 25.5713C17.2412 25.5713 17.5019 25.366 18.7629 24.1168C20.1748 22.7182 20.2311 22.6434 20.2311 22.1668C20.2311 21.3738 19.4763 20.7687 18.806 21.0243ZM5.66578 23.4358C4.9709 23.7158 4.81734 24.6661 5.37671 25.2247L5.72385 25.5713H8.68602C11.4743 25.5713 11.666 25.5573 11.952 25.3327C12.3302 25.0356 12.4628 24.4845 12.2685 24.0163C11.9994 23.3675 11.7396 23.3173 8.68744 23.3256C7.16551 23.3298 5.8058 23.3793 5.66578 23.4358ZM17.722 28.1429L16.7843 29.0542L16.3661 28.6496C16.0351 28.3292 15.8513 28.2448 15.4835 28.2448C14.6495 28.2448 14.1383 29.019 14.469 29.7811C14.6851 30.2788 16.068 31.5999 16.5038 31.7248C17.0725 31.8876 17.443 31.6466 18.8951 30.169C20.169 28.8727 20.2311 28.7864 20.2311 28.3116C20.2311 27.6269 19.8368 27.2315 19.1541 27.2315C18.6986 27.2315 18.5865 27.3029 17.722 28.1429ZM5.77717 29.612C5.01769 29.8391 4.76366 30.8237 5.3121 31.4145C5.69725 31.8297 6.17063 31.8814 9.16653 31.8358L11.7002 31.7971L12.0465 31.4098C12.5004 30.9022 12.5004 30.4388 12.0465 29.9313L11.7001 29.5439L8.92901 29.5211C7.40481 29.5085 5.98655 29.5494 5.77717 29.612Z" fill="white"/>
</svg>
