<svg width="38" height="39" viewBox="0 0 38 39" fill="none" xmlns="http://www.w3.org/2000/svg">
<path fill-rule="evenodd" clip-rule="evenodd" d="M17.4622 0.591956C15.8241 0.795374 13.6905 1.50389 12.2569 2.32029C8.05542 4.71324 5.33339 9.30497 5.33339 13.9997V15.1778L4.63757 15.4499C3.65808 15.8326 2.36266 16.7858 1.73738 17.5841C-0.916709 20.9718 -0.117151 25.783 3.48545 28.1027C4.55279 28.79 5.71421 29.1483 6.93109 29.1657C7.9028 29.1795 8.06154 29.1486 8.69412 28.8227C9.50157 28.4067 10.1914 27.5806 10.3878 26.7945C10.4667 26.4786 10.5146 24.6727 10.5146 22.012C10.5146 18.0043 10.4997 17.698 10.276 17.1097C9.88521 16.0816 9.14418 15.3916 8.10063 15.0839L7.51186 14.9102L7.54907 13.8566C7.6514 10.9587 8.76513 8.35992 10.7958 6.28112C13.2124 3.80723 16.2101 2.62898 19.6264 2.81032C25.5531 3.12494 30.2267 7.90027 30.4369 13.8566L30.4741 14.9102L29.8854 15.0839C28.8418 15.3916 28.1008 16.0816 27.7099 17.1097C27.4862 17.6984 27.4714 18.0034 27.4721 22.0349C27.4724 24.8065 27.5189 26.5004 27.6028 26.805C27.8982 27.8773 28.9866 28.9217 29.9747 29.0809C30.2199 29.1204 30.4441 29.1912 30.473 29.2383C30.5867 29.4237 30.2694 30.858 29.9759 31.485C29.5837 32.3231 28.5468 33.3745 27.7069 33.7857C26.843 34.2087 26.0572 34.3435 24.4555 34.3435H23.1204L22.9505 34.0171C22.7005 33.5369 21.9411 32.8387 21.4402 32.6284C20.7567 32.3415 17.1068 32.3695 16.4613 32.6666C15.8616 32.9427 15.0666 33.8117 14.8636 34.4128C14.3838 35.8333 14.9538 37.3355 16.2675 38.1139C16.81 38.4353 16.8323 38.4379 18.993 38.4379C21.1572 38.4379 21.175 38.4358 21.7221 38.1117C22.2725 37.7857 22.9967 37.0204 22.9967 36.765C22.9967 36.6722 23.5792 36.6091 24.8513 36.5642C26.8695 36.4929 27.5451 36.3534 28.7387 35.7612C29.8065 35.2313 30.7698 34.3746 31.4497 33.35C32.1723 32.2612 32.5609 31.1411 32.6465 29.8997L32.7115 28.9572L33.3045 28.7129C34.7541 28.1161 35.7816 27.2719 36.6487 25.9651C39.093 22.2819 37.5344 17.1858 33.4489 15.5034L32.6555 15.1767L32.654 13.9899C32.6499 10.6128 31.2263 7.19033 28.7842 4.68594C26.2444 2.08103 23.0638 0.681204 19.464 0.583768C18.5897 0.560032 17.6889 0.56371 17.4622 0.591956ZM14.8273 16.2534C14.0663 16.499 13.4967 16.8728 12.9441 17.4893C12.1937 18.3264 11.9868 18.9166 11.9867 20.2206C11.9866 21.933 12.1419 22.1656 15.6182 25.6586L18.4742 28.5282H18.993H19.5118L22.3677 25.6586C25.8441 22.1656 25.9994 21.933 25.9993 20.2206C25.9992 18.9166 25.7923 18.3264 25.0418 17.4893C23.5475 15.8223 21.171 15.6265 19.4346 17.0272L18.993 17.3834L18.5514 17.0272C17.5281 16.2017 15.9825 15.8806 14.8273 16.2534ZM8.0712 17.6211C8.2589 17.8508 8.27727 18.2481 8.27727 22.0666V26.2599L7.99254 26.593C7.73029 26.8996 7.64398 26.9253 6.89953 26.9176C5.72869 26.9053 4.61861 26.3703 3.69129 25.3713C2.72876 24.3342 2.45792 23.609 2.4525 22.0539C2.4485 20.9099 2.46652 20.8239 2.89185 19.9567C3.62487 18.4617 4.94279 17.4804 6.49952 17.2702C7.28424 17.1643 7.79011 17.2772 8.0712 17.6211ZM32.7896 17.6481C33.7587 18.0828 34.5774 18.903 35.0941 19.9567C35.5195 20.8239 35.5375 20.9099 35.5335 22.0539C35.5281 23.5835 35.2563 24.3275 34.3377 25.3276C33.4166 26.3302 32.2489 26.9047 31.1067 26.9171C30.3398 26.9253 30.257 26.9012 29.9935 26.593L29.7087 26.2599V22.0799C29.7087 17.4648 29.7077 17.4716 30.446 17.2787C30.9655 17.1431 32.0422 17.3128 32.7896 17.6481ZM16.6711 18.4874C16.8795 18.5786 17.3664 18.9544 17.7533 19.3225C18.8438 20.3606 19.1795 20.3543 20.3255 19.2738C21.116 18.5287 21.4945 18.3217 22.067 18.3217C22.5818 18.3217 23.2909 18.7316 23.5736 19.1924C23.8659 19.6692 23.9036 20.5499 23.6522 21.0276C23.5594 21.2038 22.4731 22.3623 21.2382 23.6018L18.993 25.8555L16.7478 23.6018C15.5129 22.3623 14.4266 21.2038 14.3338 21.0276C14.0825 20.5503 14.12 19.6692 14.4121 19.193C14.872 18.443 15.8622 18.1337 16.6711 18.4874ZM20.6336 34.7547C21.0822 34.9885 21.1984 35.4764 20.9012 35.8777C20.6767 36.1808 20.6629 36.183 18.993 36.183C17.3231 36.183 17.3093 36.1808 17.0848 35.8777C16.7947 35.4861 16.9022 34.9937 17.3286 34.7602C17.7676 34.5197 20.1751 34.5158 20.6336 34.7547Z" fill="white"/>
</svg>
