<svg width="55" height="46" viewBox="0 0 55 46" fill="none" xmlns="http://www.w3.org/2000/svg">
<g filter="url(#filter0_d_140_885)">
<path d="M24.983 0.660692L25.0206 0.98991C21.9199 1.34422 19.7764 1.97382 17.0676 3.32452C14.7217 4.49432 12.9743 5.7511 11.1825 7.55586C5.15219 13.6301 3.03307 22.5215 5.68202 30.6308C5.94584 31.4385 6.47449 32.6485 7.02305 33.7582C7.29647 34.3113 7.57249 34.8347 7.81976 35.2657C8.07065 35.7031 8.28126 36.0263 8.42387 36.1929C8.82613 36.6627 9.31794 36.8882 9.78864 36.9004C10.2579 36.9126 10.7382 36.7139 11.1256 36.2729C11.3172 36.0547 11.412 35.8929 11.4614 35.7104C11.5134 35.5188 11.5237 35.2742 11.4902 34.8742C11.4903 34.8748 11.4901 34.8741 11.4895 34.8718C11.4867 34.8607 11.4748 34.814 11.4383 34.7187C11.3992 34.6168 11.3426 34.4861 11.2715 34.3346C11.1298 34.0323 10.9369 33.6602 10.7277 33.2935C9.44265 31.0414 8.6018 28.6965 8.25568 26.3841L8.15352 25.7017L8.09658 25.3215L8.48107 25.3213L9.75461 25.3207C10.7722 25.3203 11.037 25.2583 11.3242 25.0832L11.3243 25.0831C11.6472 24.8863 11.8675 24.6548 12.0016 24.397C12.1355 24.1398 12.194 23.8368 12.1632 23.4798L12.1632 23.4797C12.1093 22.8542 11.9031 22.4679 11.5535 22.2222C11.1845 21.9627 10.5992 21.8184 9.69921 21.8183C9.62475 21.8183 9.55268 21.8186 9.48342 21.819C9.25139 21.8201 9.05081 21.8211 8.89699 21.8075C8.70969 21.7909 8.44642 21.745 8.29929 21.5073C8.23107 21.3972 8.20906 21.2773 8.20408 21.171C8.19911 21.0651 8.21017 20.9496 8.22774 20.8304C8.25425 20.6507 8.30249 20.4211 8.36089 20.1431C8.37883 20.0578 8.39772 19.9679 8.41723 19.8734C8.95577 17.2672 9.94425 14.9111 11.4136 12.7343C11.4136 12.7343 11.4136 12.7343 11.4136 12.7343L12.1428 11.6538L12.363 11.3276L12.6469 11.6002L13.5329 12.4505C13.7703 12.6783 14.0398 12.9007 14.2853 13.0771C14.5401 13.2603 14.7392 13.3722 14.8416 13.406C15.9716 13.7785 17.0912 12.9698 17.0912 11.7876C17.0912 11.4746 17.0547 11.289 16.9241 11.0648C16.7786 10.8151 16.5124 10.5107 16.0033 9.98983L16.2403 9.75822L16.0033 9.98982L15.1409 9.10735L14.8692 8.82926L15.1868 8.60503L16.2451 7.85803L16.2451 7.85801C18.4072 6.33207 21.2233 5.15795 23.8017 4.70841L23.8017 4.7084C24.137 4.64998 24.4481 4.5968 24.6792 4.55818C24.7947 4.53889 24.8909 4.52312 24.9604 4.51212C24.995 4.50665 25.0241 4.50218 25.0461 4.49902C25.057 4.49746 25.0676 4.496 25.0769 4.49486L25.0771 4.49482C25.08 4.49445 25.1041 4.4913 25.1288 4.4913C25.2658 4.4913 25.3498 4.57048 25.3809 4.60596C25.4139 4.64362 25.4309 4.68012 25.4378 4.69604C25.4529 4.73056 25.4602 4.76214 25.4633 4.77645C25.4707 4.81037 25.4755 4.84817 25.479 4.88141C25.4864 4.95152 25.4925 5.04636 25.4974 5.15594C25.5074 5.37706 25.5134 5.67851 25.5135 6.00775V6.00779C25.5136 6.69141 25.5755 7.14395 25.7085 7.47777C25.8356 7.79698 26.0373 8.03078 26.3729 8.25691C26.635 8.43355 27.016 8.52196 27.4059 8.50079C27.7979 8.47951 28.1427 8.35093 28.3472 8.15997L24.983 0.660692ZM24.983 0.660692L25.0206 0.98991C27.5523 0.700604 31.5134 1.12561 34.1325 1.97126L34.1325 1.97127C35.9536 2.55911 38.8861 4.04483 40.4741 5.18466C42.1147 6.36234 44.3483 8.60055 45.5378 10.2592C50.8143 17.617 51.2446 27.3004 46.6415 35.1501C46.2279 35.8555 45.9007 36.2819 45.5836 36.5347C45.2836 36.7738 44.978 36.869 44.5656 36.869C43.5766 36.869 42.8757 36.1742 42.8757 35.235C42.8757 34.7947 42.9787 34.4827 43.6331 33.3374C44.9435 31.0443 45.7824 28.7149 46.1314 26.3841L46.2335 25.7017L46.2905 25.3215L45.906 25.3213L44.6324 25.3207C43.6148 25.3203 43.3501 25.2583 43.0629 25.0832L43.0628 25.0831C42.7398 24.8863 42.5196 24.6548 42.3854 24.397C42.2515 24.1398 42.193 23.8368 42.2238 23.4798C42.2778 22.8542 42.4839 22.4679 42.8335 22.2222C43.2026 21.9627 43.7879 21.8184 44.6878 21.8183C44.7631 21.8183 44.8359 21.8187 44.9059 21.819C45.1368 21.8202 45.3365 21.8212 45.4897 21.8077C45.6771 21.7911 45.9403 21.7452 46.0875 21.5074C46.1557 21.3973 46.1778 21.2775 46.1829 21.1711C46.188 21.0652 46.1771 20.9495 46.1598 20.8301C46.1337 20.6506 46.0861 20.4212 46.0285 20.1435C46.0106 20.057 45.9917 19.9659 45.9721 19.8701L45.6475 19.9363L45.9721 19.8701C45.4603 17.3605 44.4098 14.8624 42.9692 12.7279L42.2442 11.6538L42.0241 11.3276L41.7401 11.6002L40.8542 12.4505C40.8542 12.4505 40.8541 12.4506 40.8541 12.4506C40.6167 12.6784 40.3472 12.9007 40.1018 13.0771C39.8469 13.2603 39.6478 13.3722 39.5455 13.406C38.4154 13.7785 37.2958 12.9698 37.2958 11.7876C37.2958 11.4746 37.3324 11.289 37.463 11.0648C37.6084 10.8151 37.8746 10.5107 38.3837 9.98983L38.1467 9.75822L38.3837 9.98982L39.2461 9.10735L39.5179 8.82926L39.2002 8.60503L38.1419 7.85803L37.9509 8.12874L38.1419 7.85802C35.7422 6.16425 33.1487 5.14025 29.8714 4.58262L29.8159 4.90929L29.8714 4.58262L29.4044 4.50318L29.0175 4.43736M24.983 0.660692L29.0175 4.43736M29.0175 4.43736V4.82985M29.0175 4.43736V4.82985M29.0175 4.82985V6.05451C29.0175 6.70871 28.9796 7.1027 28.8822 7.39755M29.0175 4.82985L28.8822 7.39755M30.4873 18.1218L30.7215 18.3562C29.2466 19.8297 28.4491 20.6201 27.966 21.0311C27.7262 21.2351 27.5369 21.3697 27.3611 21.4422C27.1614 21.5245 27.0018 21.5177 26.8581 21.4966L26.858 21.4966C25.8711 21.3517 24.5842 21.8279 23.7631 22.6816C23.3332 23.1285 23.0368 23.7856 22.921 24.4976C22.8053 25.209 22.8752 25.9435 23.1405 26.5355L22.8381 26.671L23.1405 26.5355C24.1843 28.8643 27.2662 29.4297 29.0348 27.6306C29.7485 26.9046 30.0443 26.177 30.0516 25.1023L30.0581 24.142L30.059 24.0066L30.1545 23.9106L33.3076 20.7396L33.5426 20.9732L33.3076 20.7396C35.0164 19.0212 35.87 18.1454 36.2743 17.5562C36.4693 17.2721 36.5393 17.0823 36.5599 16.918C36.5815 16.7462 36.5545 16.5674 36.49 16.2799M30.4873 18.1218L35.3976 14.7349C35.2449 14.7349 35.0338 14.7053 34.9286 14.6691M30.4873 18.1218L30.7215 18.3562C31.8776 17.2013 32.6883 16.4149 33.2608 15.8995C33.5472 15.6417 33.7692 15.456 33.9418 15.3273C34.1193 15.195 34.2254 15.1376 34.2826 15.1172C34.4221 15.0675 34.5675 15.0293 34.6858 15.008C34.7452 14.9973 34.7922 14.992 34.8249 14.9904C34.8333 14.9901 34.8396 14.99 34.8441 14.99M30.4873 18.1218L34.9286 14.6691M36.49 16.2799L36.8133 16.2073L36.49 16.28C36.49 16.28 36.49 16.2799 36.49 16.2799ZM36.49 16.2799C36.4412 16.0631 36.2456 15.7477 35.9826 15.4742C35.8556 15.3421 35.7255 15.2331 35.6099 15.1597C35.485 15.0803 35.4145 15.0662 35.3976 15.0662C35.2298 15.0662 34.9959 15.0372 34.8441 14.99M34.8441 14.99C34.8629 14.9902 34.8498 14.9924 34.8209 14.9824L34.9286 14.6691M34.8441 14.99C34.8361 14.9875 34.8283 14.985 34.8208 14.9824L34.9286 14.6691M28.8822 7.39755C28.7902 7.67605 28.6372 7.88905 28.3472 8.15995L28.8822 7.39755Z" fill="white" stroke="url(#paint0_linear_140_885)" stroke-width="0.662722"/>
</g>
<defs>
<filter id="filter0_d_140_885" x="0.227814" y="0.568115" width="53.9204" height="44.6643" filterUnits="userSpaceOnUse" color-interpolation-filters="sRGB">
<feFlood flood-opacity="0" result="BackgroundImageFix"/>
<feColorMatrix in="SourceAlpha" type="matrix" values="0 0 0 0 0 0 0 0 0 0 0 0 0 0 0 0 0 0 127 0" result="hardAlpha"/>
<feOffset dy="4"/>
<feGaussianBlur stdDeviation="2"/>
<feComposite in2="hardAlpha" operator="out"/>
<feColorMatrix type="matrix" values="0 0 0 0 0 0 0 0 0 0 0 0 0 0 0 0 0 0 0.25 0"/>
<feBlend mode="normal" in2="BackgroundImageFix" result="effect1_dropShadow_140_885"/>
<feBlend mode="normal" in="SourceGraphic" in2="effect1_dropShadow_140_885" result="shape"/>
</filter>
<linearGradient id="paint0_linear_140_885" x1="27.188" y1="0.568115" x2="27.188" y2="37.2323" gradientUnits="userSpaceOnUse">
<stop stop-color="#00A396"/>
<stop offset="1" stop-color="#008FA3"/>
</linearGradient>
</defs>
</svg>
