<svg width="35" height="39" viewBox="0 0 35 39" fill="none" xmlns="http://www.w3.org/2000/svg">
<path fill-rule="evenodd" clip-rule="evenodd" d="M12.8626 0.828236C12.6656 1.04053 12.6222 1.24514 12.6222 1.96345C12.6222 2.77359 12.6022 2.84482 12.357 2.90624C11.8646 3.02967 9.49524 4.30724 8.7935 4.82757C6.37379 6.62204 4.41653 9.31658 3.50579 12.1071C3.0252 13.5794 2.82822 14.6975 2.7549 16.3691L2.68736 17.9094L1.85077 18.2666C1.30204 18.5007 0.962193 18.724 0.863174 18.9155C0.752604 19.1294 0.720658 19.8029 0.743763 21.4368C0.774647 23.6192 0.781248 23.6711 1.05367 23.8923C1.25053 24.0523 1.51764 24.1183 1.96723 24.1183H2.60248V25.0424C2.60248 26.4186 2.60142 26.4178 4.53122 26.4645L6.12589 26.5032L6.32558 27.1154C6.43544 27.4521 6.6771 28.0324 6.86252 28.4046C7.04806 28.7771 7.19977 29.1369 7.19977 29.2042C7.19977 29.2717 6.72236 29.8112 6.13886 30.4031C5.34695 31.2064 5.07795 31.5577 5.07795 31.7886C5.07795 32.0301 5.48546 32.507 6.93867 33.9658C8.49904 35.5322 8.85539 35.8337 9.14667 35.8337C9.42663 35.8337 9.70129 35.6264 10.5632 34.7648L11.6325 33.6957L12.5287 34.1058C13.0216 34.3313 13.6421 34.5811 13.9077 34.661L14.3904 34.8062V36.1307C14.3904 37.634 14.5247 38.1676 14.943 38.3272C15.1013 38.3877 16.3077 38.4372 17.6238 38.4372C20.7878 38.4372 20.6374 38.5394 20.6397 36.3872L20.6413 34.8279L21.2894 34.6213C21.646 34.5077 22.2843 34.2449 22.7081 34.0376L23.4784 33.6605L24.5654 34.7472C25.4356 35.6171 25.7206 35.8337 25.9946 35.8337C26.2769 35.8337 26.6344 35.5384 28.0354 34.1474C29.7621 32.4331 30.1309 31.958 30.0164 31.5957C29.9811 31.4843 29.478 30.9191 28.8983 30.3397L27.8442 29.2865L28.1484 28.6846C28.3158 28.3535 28.569 27.7365 28.7113 27.3135L28.9699 26.5443L30.3148 26.5151C32.4838 26.4682 32.5438 26.429 32.5438 25.0566V24.1183H33.1921C33.6833 24.1183 33.8977 24.0609 34.0762 23.8817C34.2961 23.661 34.312 23.4872 34.312 21.3008C34.312 19.6048 34.2712 18.9048 34.1646 18.7685C34.0837 18.665 33.646 18.4189 33.1921 18.2216L32.367 17.8629L32.2967 16.1683C32.2009 13.8591 31.7954 12.218 30.8373 10.2629C29.2795 7.08426 26.707 4.62213 23.4702 3.21167L22.583 2.82518L22.5172 1.91777C22.4129 0.480206 22.7436 0.569195 17.5057 0.569195C13.1283 0.569195 13.1015 0.570734 12.8626 0.828236ZM20.8738 8.61614V15.1247H17.5142H14.1546V8.61614V2.10758H17.5142H20.8738V8.61614ZM12.8917 16.511C13.0863 16.7064 13.4388 16.7223 17.5731 16.7223C21.7075 16.7223 22.06 16.7064 22.2546 16.511C22.4495 16.3155 22.4695 15.8593 22.5241 10.3872L22.583 4.47469L23.3063 4.8181C25.7686 5.98727 28.0367 8.18953 29.2895 10.6279C30.3581 12.7074 30.7136 14.162 30.8449 16.9914C30.9395 19.0317 30.9027 18.9549 32.0134 19.4213L32.7206 19.7183L32.7538 21.1496L32.7869 22.5809L17.5473 22.5508L2.30778 22.5208V21.1599V19.799L3.16712 19.3848C3.6397 19.157 4.07656 18.8908 4.13786 18.7932C4.19904 18.6955 4.25043 18.1098 4.25197 17.4914C4.2535 16.8731 4.30643 15.9146 4.36961 15.3614C4.88592 10.8424 7.63616 6.88593 11.6202 4.93088L12.5633 4.46818L12.6222 10.384C12.6768 15.8592 12.6968 16.3155 12.8917 16.511ZM11.3156 24.7711C12.0412 28.0258 15.4301 30.283 18.6384 29.6485C21.24 29.134 23.191 27.3046 23.7435 24.8614L23.8982 24.1775L27.4548 24.1462L31.0114 24.1149V24.5307V24.9467H29.5465C28.1042 24.9467 28.0777 24.9516 27.8372 25.2585C27.7029 25.43 27.5929 25.6439 27.5929 25.7341C27.5929 26.0573 27 27.5928 26.5931 28.3231C25.9749 29.4331 26.0058 29.5606 27.1803 30.7452L28.1823 31.7558L27.0654 32.8724L25.9485 33.989L24.8998 32.9587C24.2831 32.353 23.7532 31.9286 23.6135 31.9286C23.4828 31.9286 22.9322 32.1639 22.39 32.4514C21.8478 32.739 20.9402 33.1149 20.3731 33.2868C19.7117 33.4874 19.2997 33.6789 19.2238 33.8213C19.1589 33.9433 19.1056 34.6856 19.1056 35.4709V36.8988H17.5731H16.0407V35.4854C16.0407 33.7502 15.9601 33.6218 14.6262 33.2326C14.1399 33.0908 13.2985 32.7393 12.7562 32.4517C12.2141 32.164 11.637 31.9286 11.4738 31.9286C11.2607 31.9286 10.8902 32.2106 10.1561 32.9319L9.13488 33.935L8.04921 32.8406L6.96366 31.7463L7.96575 30.7455C8.7223 29.99 8.96796 29.6674 8.96796 29.4299C8.96796 29.2568 8.7335 28.6698 8.44694 28.1256C8.16037 27.5813 7.80838 26.7366 7.66481 26.2484C7.2797 24.9392 7.31129 24.9594 5.56514 24.9206C4.23994 24.8911 4.07444 24.8643 4.03802 24.6736C3.93122 24.1147 3.90705 24.1183 7.64878 24.1183H11.1702L11.3156 24.7711ZM22.2883 24.3983C22.2883 24.5523 22.1004 25.0552 21.8709 25.5159C21.386 26.489 20.6081 27.2548 19.5997 27.7519C18.9832 28.0558 18.8187 28.0826 17.5731 28.0826C16.3122 28.0826 16.1683 28.0584 15.511 27.735C14.2316 27.1054 13.3219 26.0472 12.9361 24.7396L12.7528 24.1183H17.5206H22.2883V24.3983Z" fill="white" stroke="white" stroke-width="0.946746"/>
</svg>
