<svg width="39" height="39" viewBox="0 0 39 39" fill="none" xmlns="http://www.w3.org/2000/svg">
<path fill-rule="evenodd" clip-rule="evenodd" d="M8.86305 0.737742C8.28666 1.02278 8.10072 1.46248 8.10072 2.54047V3.4837L6.53444 3.54599C5.33567 3.59371 4.79167 3.67045 4.21563 3.87307C2.67394 4.41532 1.17776 5.93207 0.637065 7.50068L0.357971 8.31068V20.9818V33.6529L0.637065 34.4629C1.17539 36.025 2.65763 37.5316 4.21563 38.1007C4.93364 38.363 5.14512 38.3777 8.82889 38.4208C13.1162 38.471 13.2017 38.4583 13.6613 37.703C13.9547 37.2211 13.9547 36.7163 13.6613 36.2344C13.221 35.5107 13.0894 35.4884 9.25066 35.4884C5.26734 35.4884 4.96957 35.4369 4.13761 34.6033C3.20293 33.6671 3.25411 34.4558 3.25411 20.9818C3.25411 7.50778 3.20293 8.29647 4.13761 7.36023C4.80644 6.6902 5.4871 6.47515 6.93966 6.47515H8.10072V7.43389C8.10072 8.53876 8.28702 8.97337 8.88173 9.25616C9.53212 9.56536 10.1358 9.439 10.6467 8.88668C10.9104 8.60176 10.9378 8.47351 10.9378 7.52365V6.47515H14.295H17.6522L17.6936 7.53881C17.7327 8.54776 17.7539 8.62154 18.1046 8.97278C18.8375 9.70663 20.0703 9.48483 20.4607 8.54871C20.5544 8.3243 20.631 7.76594 20.631 7.30789V6.47515H23.9882H27.3454L27.3868 7.53881C27.4258 8.54492 27.4478 8.62225 27.7937 8.96863C28.2594 9.43509 28.911 9.53682 29.4967 9.23461C30.0828 8.93228 30.3238 8.37854 30.3239 7.3337L30.3242 6.47515H31.4852C32.9378 6.47515 33.6184 6.6902 34.2873 7.36023C34.7945 7.86838 35.1708 8.71568 35.1708 9.35007C35.1708 10.2124 35.8026 10.8567 36.6484 10.8567C37.6725 10.8567 38.2072 10.1311 38.081 8.91286C37.9043 7.20735 37.0679 5.73122 35.6859 4.68568C34.61 3.87165 33.7753 3.62095 31.8905 3.54599L30.3242 3.4837L30.3239 2.64066C30.3238 1.61217 30.0797 1.05582 29.4967 0.75515C28.911 0.452938 28.2594 0.554662 27.7937 1.02112C27.4478 1.36751 27.4258 1.44484 27.3868 2.45095L27.3454 3.51461H23.9882H20.631V2.68187C20.631 2.22381 20.5544 1.66546 20.4607 1.44105C20.0703 0.504925 18.8375 0.283121 18.1046 1.01698C17.7539 1.36822 17.7327 1.44199 17.6936 2.45095L17.6522 3.51461H14.295H10.9378V2.4661C10.9378 1.51625 10.9104 1.38799 10.6467 1.10307C10.1356 0.550518 9.50351 0.421083 8.86305 0.737742ZM23.3498 13.3875C19.264 14.1915 16.0085 16.6107 14.2461 20.1528C11.0999 26.4762 13.6342 33.9986 19.9827 37.1803C20.8783 37.6291 22.806 38.1865 23.9999 38.3418C26.5215 38.6698 29.8577 37.9998 31.6836 36.7986C32.3275 36.375 32.5698 35.7143 32.3212 35.0599C32.1231 34.5386 31.5114 34.0674 31.0326 34.0674C30.8564 34.0674 30.3134 34.2519 29.826 34.4775C28.2395 35.2118 27.2702 35.4258 25.5367 35.4245C23.8006 35.4231 22.8908 35.237 21.4969 34.5981C18.8168 33.3699 16.891 31.0763 16.1295 28.2055C15.7814 26.8935 15.7793 24.7961 16.1246 23.4686C16.6375 21.4967 17.8658 19.5809 19.416 18.3345C20.4201 17.5272 21.2215 17.0912 22.5248 16.6432C23.5818 16.2797 23.7424 16.2576 25.3594 16.2514C26.8009 16.246 27.2197 16.2874 27.9944 16.5123C28.9746 16.797 30.3501 17.4436 31.0328 17.9406C31.5519 18.3185 33.043 19.7596 33.043 19.8832C33.043 19.9338 32.4553 19.9752 31.7368 19.9752C30.8004 19.9752 30.3324 20.0261 30.0839 20.1548C29.3531 20.5334 29.1381 21.6839 29.6779 22.3267C30.1473 22.8856 30.588 22.9696 32.7313 22.9087C34.3369 22.8631 34.7464 22.8128 35.3182 22.5907C36.2624 22.224 37.1943 21.3413 37.6799 20.3537L38.0669 19.5664V17.2272V14.8882L37.6805 14.5007C37.3383 14.1577 37.2201 14.1133 36.6484 14.1133C36.0771 14.1133 35.9584 14.1579 35.6163 14.5001L35.2299 14.887L35.1908 16.291L35.1516 17.6949L34.3347 16.8877C32.7663 15.3382 30.8269 14.2237 28.6692 13.6322C27.3092 13.2593 24.6282 13.136 23.3498 13.3875ZM24.8117 20.0839C24.0898 20.5249 24.059 20.6436 24.059 22.9923V25.1278L23.0445 25.9561C21.9222 26.8724 21.6949 27.1988 21.6949 27.8945C21.6949 28.8373 22.7347 29.5428 23.5919 29.1818C24.0975 28.9687 26.4078 27.0651 26.6886 26.6301C26.8694 26.3502 26.8949 25.9774 26.8955 23.6107C26.8962 20.5969 26.8518 20.3866 26.1446 20.0504C25.6133 19.7978 25.2657 19.8066 24.8117 20.0839ZM35.6148 25.5421C35.1626 25.9949 35.1435 26.0441 35.198 26.6117C35.3233 27.9182 36.7559 28.4714 37.6623 27.5633C38.5887 26.6352 37.8881 25.0691 36.5458 25.0678C36.1695 25.0674 36.0047 25.1514 35.6148 25.5421ZM34.2796 30.7011C33.194 31.0751 32.9533 32.3494 33.8238 33.115C34.1526 33.4043 34.34 33.4753 34.775 33.4753C35.2468 33.4753 35.3761 33.4158 35.7758 33.0155C36.142 32.6486 36.2347 32.4681 36.2347 32.1215C36.2347 31.0381 35.2912 30.3527 34.2796 30.7011Z" fill="white"/>
</svg>
