<svg width="36" height="34" viewBox="0 0 36 34" fill="none" xmlns="http://www.w3.org/2000/svg">
<mask id="path-1-outside-1_140_770" maskUnits="userSpaceOnUse" x="0.115356" y="-0.585693" width="36" height="35" fill="black">
<rect fill="white" x="0.115356" y="-0.585693" width="36" height="35"/>
<path fill-rule="evenodd" clip-rule="evenodd" d="M7.08696 0.5206C6.21843 0.691316 5.42681 1.49983 5.22999 2.41711C5.15297 2.77631 5.1247 5.218 5.14539 9.72323C5.17604 16.4199 5.17875 16.4942 5.41013 16.9231C5.70856 17.4761 6.15148 17.8955 6.66233 18.1089C7.00279 18.2511 7.71057 18.2771 11.2389 18.2771H15.4128V19.2479V20.2186L9.15721 20.2499C2.93052 20.281 2.89954 20.2822 2.45174 20.5217C1.8993 20.8171 1.40253 21.4024 1.23788 21.9516C1.15361 22.233 1.11461 23.8258 1.11537 26.9555L1.11645 31.5466L1.37816 32.1088C1.69532 32.7899 2.31038 33.2705 3.07492 33.4345C3.79623 33.5891 16.2498 33.589 16.9293 33.4342C17.6205 33.2768 18.169 32.8793 18.5211 32.2802C18.809 31.7902 18.8269 31.6827 18.8622 30.2197L18.8995 28.6761H23.2222C27.4005 28.6761 27.5522 28.6688 27.7616 28.4594C28.0422 28.1788 28.0375 27.7885 27.7503 27.5284C27.5355 27.3338 27.2748 27.3203 23.2077 27.2914L18.893 27.2608L18.859 24.6286L18.825 21.9965L18.5 21.4742C18.1263 20.8735 17.797 20.6012 17.1939 20.394L16.7668 20.2473L16.7369 18.6155C16.714 17.3613 16.7444 16.8944 16.8685 16.5975C17.1715 15.872 16.899 15.894 25.5951 15.894C33.9302 15.894 33.9724 15.8966 34.2522 16.4194C34.3312 16.567 34.3692 18.2776 34.3692 21.6873V26.7366L34.0979 26.9881C33.9459 27.1289 33.6298 27.2659 33.3789 27.2995C32.6482 27.3975 32.3616 27.894 32.7503 28.3883C33.3559 29.158 35.1987 28.3043 35.611 27.063C35.7635 26.6039 35.7816 25.891 35.7543 21.4054C35.7203 15.7822 35.7457 16.0041 35.0563 15.3076C34.4797 14.725 34.0273 14.5991 32.5007 14.5965L31.1195 14.5942V8.56776C31.1195 4.30755 31.0827 2.41841 30.9938 2.12171C30.8224 1.54977 30.2454 0.904603 29.6868 0.660445C29.2509 0.469906 28.7668 0.456474 21.3705 0.430801C15.1747 0.409137 13.46 0.432534 13.2464 0.541615C13.0455 0.644088 12.967 0.781333 12.9425 1.07315C12.8774 1.85004 12.4527 1.81213 21.2305 1.81213H29.058L29.4117 2.1281L29.7655 2.44408L29.7971 6.89429C29.8146 9.34194 29.7995 11.3445 29.7638 11.3445C29.728 11.3445 28.8798 10.7596 27.8786 10.0446C26.6715 9.18249 25.9636 8.74476 25.7765 8.74476C25.5812 8.74476 24.8751 9.21434 23.4815 10.2709C22.3745 11.1103 21.41 11.7745 21.3384 11.7469C21.2667 11.7194 19.7967 10.5208 18.0718 9.08348C15.6702 7.08223 14.8666 6.46999 14.6412 6.46999C14.3605 6.46999 13.2871 7.30277 7.61362 11.9226L6.58456 12.7606L6.55596 7.74679C6.53549 4.14496 6.56268 2.64751 6.65247 2.42989C6.78571 2.1072 7.24218 1.81213 7.6082 1.81213C7.9102 1.81213 8.26355 1.43679 8.26355 1.11594C8.26355 0.881097 7.81001 0.383031 7.62608 0.415853C7.58946 0.422352 7.34682 0.469472 7.08696 0.5206ZM10.161 0.688283C9.88914 0.960281 9.98934 1.50027 10.3488 1.70045C10.6162 1.84939 10.6771 1.84939 10.9445 1.70045C11.5409 1.36833 11.3263 0.51226 10.6466 0.51226C10.4765 0.51226 10.2579 0.591443 10.161 0.688283ZM20.9038 3.33081C20.3201 3.43566 19.6443 3.94944 19.3395 4.52019C19.1222 4.92694 19.0855 5.12766 19.1178 5.73253C19.1499 6.3374 19.2122 6.53466 19.4942 6.92386C20.3803 8.14714 22.2911 8.21181 23.1782 7.04865C24.4881 5.33131 23.0306 2.94897 20.9038 3.33081ZM22.0288 4.94514C22.4248 5.34116 22.4455 5.79991 22.0861 6.21781C21.7462 6.61297 21.0615 6.64233 20.6966 6.27739C20.3316 5.91245 20.361 5.22775 20.7561 4.88783C21.174 4.52842 21.6328 4.54911 22.0288 4.94514ZM18.6566 11.3397L22.4962 14.54L19.794 14.5942C16.825 14.6536 16.772 14.6648 16.0954 15.3703C15.7258 15.7555 15.4128 16.3932 15.4128 16.7608C15.4128 16.9838 15.3948 16.9846 11.2876 16.9539L7.16235 16.9231L6.84215 16.5645C6.53711 16.2231 6.52336 16.1653 6.55325 15.3542L6.58456 14.5023L10.5914 11.2542C12.7952 9.46759 14.6475 8.0359 14.7076 8.07262C14.7679 8.10934 16.5449 9.5796 18.6566 11.3397ZM27.9134 11.7236L29.8291 13.0963L29.7974 13.8181L29.7655 14.54L27.2199 14.566L24.6744 14.592L23.6453 13.7326C23.0793 13.26 22.6162 12.8205 22.6162 12.7562C22.6162 12.5883 25.7267 10.247 25.8745 10.3037C25.9422 10.3297 26.8598 10.9687 27.9134 11.7236ZM26.6783 17.6863C24.599 18.03 23.4913 18.1619 22.6594 18.1648C21.6496 18.1684 21.4664 18.1985 21.1428 18.4147C20.542 18.8161 20.396 19.2411 20.3959 20.5897C20.3955 22.4323 20.7128 22.8521 22.1559 22.9191L22.9954 22.958V24.3485C22.9954 26.0958 22.9773 26.0763 24.5972 26.0763C25.2135 26.0763 25.8077 26.0281 25.9178 25.9692C26.045 25.9012 26.2634 25.4258 26.5165 24.6663L26.9149 23.4705L27.257 23.527C27.4451 23.5581 28.0378 23.6567 28.574 23.7463C30.5978 24.0844 30.6863 24.0227 30.6863 22.2727C30.6863 21.1261 30.6884 21.1165 30.9607 21.0481C31.5561 20.8987 31.5898 19.9791 31.0074 19.7761L30.6863 19.6641V18.6456C30.6863 17.7716 30.6555 17.5964 30.4696 17.4105C30.1801 17.121 30.0353 17.1315 26.6783 17.6863ZM29.2781 20.6033V22.4963L28.926 22.4252C28.7323 22.3861 27.6234 22.2044 26.4617 22.0213L24.3494 21.6883L24.3185 20.5785C24.3015 19.9681 24.3015 19.4655 24.3185 19.4617C24.8104 19.3517 28.6773 18.7314 28.926 18.7228L29.2781 18.7104V20.6033ZM22.9724 20.579L22.9412 21.581H22.3996H21.858L21.8268 20.579L21.7957 19.577H22.3996H23.0035L22.9724 20.579ZM17.1543 21.9517L17.4709 22.2684V26.8743V31.4803L17.2096 31.7843L16.9482 32.0882L10.0543 32.1177L3.16049 32.1472L2.84148 31.8281L2.52247 31.5091V26.8526V22.196L2.85578 21.9156L3.18898 21.6351H10.0134H16.8377L17.1543 21.9517ZM25.2972 23.2226C25.5262 23.2854 25.5245 23.3754 25.2801 24.0724C25.1033 24.5768 25.063 24.6163 24.6928 24.6476L24.2952 24.6813V23.8574V23.0335L24.7015 23.102C24.9249 23.1397 25.193 23.194 25.2972 23.2226ZM7.85442 23.9702C7.61654 24.1367 7.61362 24.172 7.61362 26.824C7.61362 29.2877 7.62998 29.5238 7.81174 29.6883C7.92071 29.7869 8.11797 29.8676 8.25023 29.8676C8.4685 29.8676 12.3906 27.5731 12.8402 27.1824C13.1044 26.9528 13.0779 26.4825 12.786 26.2193C12.4784 25.9419 8.46536 23.8016 8.25283 23.8016C8.16606 23.8016 7.98679 23.8775 7.85442 23.9702ZM10.5177 26.4831L10.9847 26.7545L10.0327 27.3361C9.50904 27.6561 9.04304 27.9178 8.99711 27.9178C8.95107 27.9178 8.91349 27.4051 8.91349 26.7786V25.6394L9.48218 25.9256C9.79501 26.0829 10.261 26.3338 10.5177 26.4831ZM29.7674 27.5522C29.4955 27.8242 29.5957 28.3642 29.9551 28.5644C30.2225 28.7133 30.2834 28.7133 30.5509 28.5644C31.1473 28.2323 30.9326 27.3762 30.253 27.3762C30.0828 27.3762 29.8642 27.4554 29.7674 27.5522Z"/>
</mask>
<path fill-rule="evenodd" clip-rule="evenodd" d="M7.08696 0.5206C6.21843 0.691316 5.42681 1.49983 5.22999 2.41711C5.15297 2.77631 5.1247 5.218 5.14539 9.72323C5.17604 16.4199 5.17875 16.4942 5.41013 16.9231C5.70856 17.4761 6.15148 17.8955 6.66233 18.1089C7.00279 18.2511 7.71057 18.2771 11.2389 18.2771H15.4128V19.2479V20.2186L9.15721 20.2499C2.93052 20.281 2.89954 20.2822 2.45174 20.5217C1.8993 20.8171 1.40253 21.4024 1.23788 21.9516C1.15361 22.233 1.11461 23.8258 1.11537 26.9555L1.11645 31.5466L1.37816 32.1088C1.69532 32.7899 2.31038 33.2705 3.07492 33.4345C3.79623 33.5891 16.2498 33.589 16.9293 33.4342C17.6205 33.2768 18.169 32.8793 18.5211 32.2802C18.809 31.7902 18.8269 31.6827 18.8622 30.2197L18.8995 28.6761H23.2222C27.4005 28.6761 27.5522 28.6688 27.7616 28.4594C28.0422 28.1788 28.0375 27.7885 27.7503 27.5284C27.5355 27.3338 27.2748 27.3203 23.2077 27.2914L18.893 27.2608L18.859 24.6286L18.825 21.9965L18.5 21.4742C18.1263 20.8735 17.797 20.6012 17.1939 20.394L16.7668 20.2473L16.7369 18.6155C16.714 17.3613 16.7444 16.8944 16.8685 16.5975C17.1715 15.872 16.899 15.894 25.5951 15.894C33.9302 15.894 33.9724 15.8966 34.2522 16.4194C34.3312 16.567 34.3692 18.2776 34.3692 21.6873V26.7366L34.0979 26.9881C33.9459 27.1289 33.6298 27.2659 33.3789 27.2995C32.6482 27.3975 32.3616 27.894 32.7503 28.3883C33.3559 29.158 35.1987 28.3043 35.611 27.063C35.7635 26.6039 35.7816 25.891 35.7543 21.4054C35.7203 15.7822 35.7457 16.0041 35.0563 15.3076C34.4797 14.725 34.0273 14.5991 32.5007 14.5965L31.1195 14.5942V8.56776C31.1195 4.30755 31.0827 2.41841 30.9938 2.12171C30.8224 1.54977 30.2454 0.904603 29.6868 0.660445C29.2509 0.469906 28.7668 0.456474 21.3705 0.430801C15.1747 0.409137 13.46 0.432534 13.2464 0.541615C13.0455 0.644088 12.967 0.781333 12.9425 1.07315C12.8774 1.85004 12.4527 1.81213 21.2305 1.81213H29.058L29.4117 2.1281L29.7655 2.44408L29.7971 6.89429C29.8146 9.34194 29.7995 11.3445 29.7638 11.3445C29.728 11.3445 28.8798 10.7596 27.8786 10.0446C26.6715 9.18249 25.9636 8.74476 25.7765 8.74476C25.5812 8.74476 24.8751 9.21434 23.4815 10.2709C22.3745 11.1103 21.41 11.7745 21.3384 11.7469C21.2667 11.7194 19.7967 10.5208 18.0718 9.08348C15.6702 7.08223 14.8666 6.46999 14.6412 6.46999C14.3605 6.46999 13.2871 7.30277 7.61362 11.9226L6.58456 12.7606L6.55596 7.74679C6.53549 4.14496 6.56268 2.64751 6.65247 2.42989C6.78571 2.1072 7.24218 1.81213 7.6082 1.81213C7.9102 1.81213 8.26355 1.43679 8.26355 1.11594C8.26355 0.881097 7.81001 0.383031 7.62608 0.415853C7.58946 0.422352 7.34682 0.469472 7.08696 0.5206ZM10.161 0.688283C9.88914 0.960281 9.98934 1.50027 10.3488 1.70045C10.6162 1.84939 10.6771 1.84939 10.9445 1.70045C11.5409 1.36833 11.3263 0.51226 10.6466 0.51226C10.4765 0.51226 10.2579 0.591443 10.161 0.688283ZM20.9038 3.33081C20.3201 3.43566 19.6443 3.94944 19.3395 4.52019C19.1222 4.92694 19.0855 5.12766 19.1178 5.73253C19.1499 6.3374 19.2122 6.53466 19.4942 6.92386C20.3803 8.14714 22.2911 8.21181 23.1782 7.04865C24.4881 5.33131 23.0306 2.94897 20.9038 3.33081ZM22.0288 4.94514C22.4248 5.34116 22.4455 5.79991 22.0861 6.21781C21.7462 6.61297 21.0615 6.64233 20.6966 6.27739C20.3316 5.91245 20.361 5.22775 20.7561 4.88783C21.174 4.52842 21.6328 4.54911 22.0288 4.94514ZM18.6566 11.3397L22.4962 14.54L19.794 14.5942C16.825 14.6536 16.772 14.6648 16.0954 15.3703C15.7258 15.7555 15.4128 16.3932 15.4128 16.7608C15.4128 16.9838 15.3948 16.9846 11.2876 16.9539L7.16235 16.9231L6.84215 16.5645C6.53711 16.2231 6.52336 16.1653 6.55325 15.3542L6.58456 14.5023L10.5914 11.2542C12.7952 9.46759 14.6475 8.0359 14.7076 8.07262C14.7679 8.10934 16.5449 9.5796 18.6566 11.3397ZM27.9134 11.7236L29.8291 13.0963L29.7974 13.8181L29.7655 14.54L27.2199 14.566L24.6744 14.592L23.6453 13.7326C23.0793 13.26 22.6162 12.8205 22.6162 12.7562C22.6162 12.5883 25.7267 10.247 25.8745 10.3037C25.9422 10.3297 26.8598 10.9687 27.9134 11.7236ZM26.6783 17.6863C24.599 18.03 23.4913 18.1619 22.6594 18.1648C21.6496 18.1684 21.4664 18.1985 21.1428 18.4147C20.542 18.8161 20.396 19.2411 20.3959 20.5897C20.3955 22.4323 20.7128 22.8521 22.1559 22.9191L22.9954 22.958V24.3485C22.9954 26.0958 22.9773 26.0763 24.5972 26.0763C25.2135 26.0763 25.8077 26.0281 25.9178 25.9692C26.045 25.9012 26.2634 25.4258 26.5165 24.6663L26.9149 23.4705L27.257 23.527C27.4451 23.5581 28.0378 23.6567 28.574 23.7463C30.5978 24.0844 30.6863 24.0227 30.6863 22.2727C30.6863 21.1261 30.6884 21.1165 30.9607 21.0481C31.5561 20.8987 31.5898 19.9791 31.0074 19.7761L30.6863 19.6641V18.6456C30.6863 17.7716 30.6555 17.5964 30.4696 17.4105C30.1801 17.121 30.0353 17.1315 26.6783 17.6863ZM29.2781 20.6033V22.4963L28.926 22.4252C28.7323 22.3861 27.6234 22.2044 26.4617 22.0213L24.3494 21.6883L24.3185 20.5785C24.3015 19.9681 24.3015 19.4655 24.3185 19.4617C24.8104 19.3517 28.6773 18.7314 28.926 18.7228L29.2781 18.7104V20.6033ZM22.9724 20.579L22.9412 21.581H22.3996H21.858L21.8268 20.579L21.7957 19.577H22.3996H23.0035L22.9724 20.579ZM17.1543 21.9517L17.4709 22.2684V26.8743V31.4803L17.2096 31.7843L16.9482 32.0882L10.0543 32.1177L3.16049 32.1472L2.84148 31.8281L2.52247 31.5091V26.8526V22.196L2.85578 21.9156L3.18898 21.6351H10.0134H16.8377L17.1543 21.9517ZM25.2972 23.2226C25.5262 23.2854 25.5245 23.3754 25.2801 24.0724C25.1033 24.5768 25.063 24.6163 24.6928 24.6476L24.2952 24.6813V23.8574V23.0335L24.7015 23.102C24.9249 23.1397 25.193 23.194 25.2972 23.2226ZM7.85442 23.9702C7.61654 24.1367 7.61362 24.172 7.61362 26.824C7.61362 29.2877 7.62998 29.5238 7.81174 29.6883C7.92071 29.7869 8.11797 29.8676 8.25023 29.8676C8.4685 29.8676 12.3906 27.5731 12.8402 27.1824C13.1044 26.9528 13.0779 26.4825 12.786 26.2193C12.4784 25.9419 8.46536 23.8016 8.25283 23.8016C8.16606 23.8016 7.98679 23.8775 7.85442 23.9702ZM10.5177 26.4831L10.9847 26.7545L10.0327 27.3361C9.50904 27.6561 9.04304 27.9178 8.99711 27.9178C8.95107 27.9178 8.91349 27.4051 8.91349 26.7786V25.6394L9.48218 25.9256C9.79501 26.0829 10.261 26.3338 10.5177 26.4831ZM29.7674 27.5522C29.4955 27.8242 29.5957 28.3642 29.9551 28.5644C30.2225 28.7133 30.2834 28.7133 30.5509 28.5644C31.1473 28.2323 30.9326 27.3762 30.253 27.3762C30.0828 27.3762 29.8642 27.4554 29.7674 27.5522Z" fill="white"/>
<path fill-rule="evenodd" clip-rule="evenodd" d="M7.08696 0.5206C6.21843 0.691316 5.42681 1.49983 5.22999 2.41711C5.15297 2.77631 5.1247 5.218 5.14539 9.72323C5.17604 16.4199 5.17875 16.4942 5.41013 16.9231C5.70856 17.4761 6.15148 17.8955 6.66233 18.1089C7.00279 18.2511 7.71057 18.2771 11.2389 18.2771H15.4128V19.2479V20.2186L9.15721 20.2499C2.93052 20.281 2.89954 20.2822 2.45174 20.5217C1.8993 20.8171 1.40253 21.4024 1.23788 21.9516C1.15361 22.233 1.11461 23.8258 1.11537 26.9555L1.11645 31.5466L1.37816 32.1088C1.69532 32.7899 2.31038 33.2705 3.07492 33.4345C3.79623 33.5891 16.2498 33.589 16.9293 33.4342C17.6205 33.2768 18.169 32.8793 18.5211 32.2802C18.809 31.7902 18.8269 31.6827 18.8622 30.2197L18.8995 28.6761H23.2222C27.4005 28.6761 27.5522 28.6688 27.7616 28.4594C28.0422 28.1788 28.0375 27.7885 27.7503 27.5284C27.5355 27.3338 27.2748 27.3203 23.2077 27.2914L18.893 27.2608L18.859 24.6286L18.825 21.9965L18.5 21.4742C18.1263 20.8735 17.797 20.6012 17.1939 20.394L16.7668 20.2473L16.7369 18.6155C16.714 17.3613 16.7444 16.8944 16.8685 16.5975C17.1715 15.872 16.899 15.894 25.5951 15.894C33.9302 15.894 33.9724 15.8966 34.2522 16.4194C34.3312 16.567 34.3692 18.2776 34.3692 21.6873V26.7366L34.0979 26.9881C33.9459 27.1289 33.6298 27.2659 33.3789 27.2995C32.6482 27.3975 32.3616 27.894 32.7503 28.3883C33.3559 29.158 35.1987 28.3043 35.611 27.063C35.7635 26.6039 35.7816 25.891 35.7543 21.4054C35.7203 15.7822 35.7457 16.0041 35.0563 15.3076C34.4797 14.725 34.0273 14.5991 32.5007 14.5965L31.1195 14.5942V8.56776C31.1195 4.30755 31.0827 2.41841 30.9938 2.12171C30.8224 1.54977 30.2454 0.904603 29.6868 0.660445C29.2509 0.469906 28.7668 0.456474 21.3705 0.430801C15.1747 0.409137 13.46 0.432534 13.2464 0.541615C13.0455 0.644088 12.967 0.781333 12.9425 1.07315C12.8774 1.85004 12.4527 1.81213 21.2305 1.81213H29.058L29.4117 2.1281L29.7655 2.44408L29.7971 6.89429C29.8146 9.34194 29.7995 11.3445 29.7638 11.3445C29.728 11.3445 28.8798 10.7596 27.8786 10.0446C26.6715 9.18249 25.9636 8.74476 25.7765 8.74476C25.5812 8.74476 24.8751 9.21434 23.4815 10.2709C22.3745 11.1103 21.41 11.7745 21.3384 11.7469C21.2667 11.7194 19.7967 10.5208 18.0718 9.08348C15.6702 7.08223 14.8666 6.46999 14.6412 6.46999C14.3605 6.46999 13.2871 7.30277 7.61362 11.9226L6.58456 12.7606L6.55596 7.74679C6.53549 4.14496 6.56268 2.64751 6.65247 2.42989C6.78571 2.1072 7.24218 1.81213 7.6082 1.81213C7.9102 1.81213 8.26355 1.43679 8.26355 1.11594C8.26355 0.881097 7.81001 0.383031 7.62608 0.415853C7.58946 0.422352 7.34682 0.469472 7.08696 0.5206ZM10.161 0.688283C9.88914 0.960281 9.98934 1.50027 10.3488 1.70045C10.6162 1.84939 10.6771 1.84939 10.9445 1.70045C11.5409 1.36833 11.3263 0.51226 10.6466 0.51226C10.4765 0.51226 10.2579 0.591443 10.161 0.688283ZM20.9038 3.33081C20.3201 3.43566 19.6443 3.94944 19.3395 4.52019C19.1222 4.92694 19.0855 5.12766 19.1178 5.73253C19.1499 6.3374 19.2122 6.53466 19.4942 6.92386C20.3803 8.14714 22.2911 8.21181 23.1782 7.04865C24.4881 5.33131 23.0306 2.94897 20.9038 3.33081ZM22.0288 4.94514C22.4248 5.34116 22.4455 5.79991 22.0861 6.21781C21.7462 6.61297 21.0615 6.64233 20.6966 6.27739C20.3316 5.91245 20.361 5.22775 20.7561 4.88783C21.174 4.52842 21.6328 4.54911 22.0288 4.94514ZM18.6566 11.3397L22.4962 14.54L19.794 14.5942C16.825 14.6536 16.772 14.6648 16.0954 15.3703C15.7258 15.7555 15.4128 16.3932 15.4128 16.7608C15.4128 16.9838 15.3948 16.9846 11.2876 16.9539L7.16235 16.9231L6.84215 16.5645C6.53711 16.2231 6.52336 16.1653 6.55325 15.3542L6.58456 14.5023L10.5914 11.2542C12.7952 9.46759 14.6475 8.0359 14.7076 8.07262C14.7679 8.10934 16.5449 9.5796 18.6566 11.3397ZM27.9134 11.7236L29.8291 13.0963L29.7974 13.8181L29.7655 14.54L27.2199 14.566L24.6744 14.592L23.6453 13.7326C23.0793 13.26 22.6162 12.8205 22.6162 12.7562C22.6162 12.5883 25.7267 10.247 25.8745 10.3037C25.9422 10.3297 26.8598 10.9687 27.9134 11.7236ZM26.6783 17.6863C24.599 18.03 23.4913 18.1619 22.6594 18.1648C21.6496 18.1684 21.4664 18.1985 21.1428 18.4147C20.542 18.8161 20.396 19.2411 20.3959 20.5897C20.3955 22.4323 20.7128 22.8521 22.1559 22.9191L22.9954 22.958V24.3485C22.9954 26.0958 22.9773 26.0763 24.5972 26.0763C25.2135 26.0763 25.8077 26.0281 25.9178 25.9692C26.045 25.9012 26.2634 25.4258 26.5165 24.6663L26.9149 23.4705L27.257 23.527C27.4451 23.5581 28.0378 23.6567 28.574 23.7463C30.5978 24.0844 30.6863 24.0227 30.6863 22.2727C30.6863 21.1261 30.6884 21.1165 30.9607 21.0481C31.5561 20.8987 31.5898 19.9791 31.0074 19.7761L30.6863 19.6641V18.6456C30.6863 17.7716 30.6555 17.5964 30.4696 17.4105C30.1801 17.121 30.0353 17.1315 26.6783 17.6863ZM29.2781 20.6033V22.4963L28.926 22.4252C28.7323 22.3861 27.6234 22.2044 26.4617 22.0213L24.3494 21.6883L24.3185 20.5785C24.3015 19.9681 24.3015 19.4655 24.3185 19.4617C24.8104 19.3517 28.6773 18.7314 28.926 18.7228L29.2781 18.7104V20.6033ZM22.9724 20.579L22.9412 21.581H22.3996H21.858L21.8268 20.579L21.7957 19.577H22.3996H23.0035L22.9724 20.579ZM17.1543 21.9517L17.4709 22.2684V26.8743V31.4803L17.2096 31.7843L16.9482 32.0882L10.0543 32.1177L3.16049 32.1472L2.84148 31.8281L2.52247 31.5091V26.8526V22.196L2.85578 21.9156L3.18898 21.6351H10.0134H16.8377L17.1543 21.9517ZM25.2972 23.2226C25.5262 23.2854 25.5245 23.3754 25.2801 24.0724C25.1033 24.5768 25.063 24.6163 24.6928 24.6476L24.2952 24.6813V23.8574V23.0335L24.7015 23.102C24.9249 23.1397 25.193 23.194 25.2972 23.2226ZM7.85442 23.9702C7.61654 24.1367 7.61362 24.172 7.61362 26.824C7.61362 29.2877 7.62998 29.5238 7.81174 29.6883C7.92071 29.7869 8.11797 29.8676 8.25023 29.8676C8.4685 29.8676 12.3906 27.5731 12.8402 27.1824C13.1044 26.9528 13.0779 26.4825 12.786 26.2193C12.4784 25.9419 8.46536 23.8016 8.25283 23.8016C8.16606 23.8016 7.98679 23.8775 7.85442 23.9702ZM10.5177 26.4831L10.9847 26.7545L10.0327 27.3361C9.50904 27.6561 9.04304 27.9178 8.99711 27.9178C8.95107 27.9178 8.91349 27.4051 8.91349 26.7786V25.6394L9.48218 25.9256C9.79501 26.0829 10.261 26.3338 10.5177 26.4831ZM29.7674 27.5522C29.4955 27.8242 29.5957 28.3642 29.9551 28.5644C30.2225 28.7133 30.2834 28.7133 30.5509 28.5644C31.1473 28.2323 30.9326 27.3762 30.253 27.3762C30.0828 27.3762 29.8642 27.4554 29.7674 27.5522Z" stroke="white" stroke-width="0.378698" mask="url(#path-1-outside-1_140_770)"/>
</svg>
