<svg width="34" height="34" viewBox="0 0 34 34" fill="none" xmlns="http://www.w3.org/2000/svg">
<g clip-path="url(#clip0_140_751)">
<path fill-rule="evenodd" clip-rule="evenodd" d="M8.42033 23.899L11.012 21.3168C11.3822 21.1324 11.9376 20.5791 11.7525 19.8413C11.3822 19.1035 10.6417 19.1035 10.0864 19.4724C9.53104 19.8413 9.16081 20.3946 8.79057 20.7635C8.23522 21.5013 6.75427 23.1613 6.0138 23.1613H2.31144V25.0057H6.93939C7.49474 25.0057 7.67986 24.6368 8.42033 23.899ZM29.894 17.9969L27.8577 17.2591L17.306 27.7723C17.1209 28.1412 17.6762 29.6167 17.8613 29.9856L29.894 17.9969ZM26.1917 16.3369C26.0065 15.7836 23.4149 13.5703 22.8595 13.0169L16.3804 6.37701C15.0846 5.08591 13.9739 3.42593 12.3078 4.53258L5.64357 11.1725C4.34774 12.4636 3.23703 13.3858 5.08821 15.2302C5.45845 15.7836 6.19892 16.3369 6.75427 16.8902C7.12451 17.2591 7.86498 18.1813 8.42033 18.5502C10.6417 15.7836 13.9739 17.8124 13.7888 20.5791C13.6036 21.6857 12.8632 22.0546 12.4929 22.6079L16.1953 26.2968L26.1917 16.3369ZM9.34592 4.53258C9.16081 3.97926 8.60545 3.79481 8.23522 3.24149C7.67986 3.42593 3.60727 7.6681 3.05191 8.22143L4.34774 9.51253C4.71798 9.32808 9.16081 4.90147 9.34592 4.53258ZM0.275146 8.22143C0.645382 7.6681 3.60727 4.90147 4.16262 4.34814L8.0501 0.474854L10.8269 3.24149C13.9739 1.39707 15.0846 2.31928 17.306 4.71703L26.9321 14.1236C28.2279 15.4147 27.8577 15.2302 29.894 15.968L33.041 17.0747C33.2261 17.0747 33.2261 17.0747 33.2261 17.0747L33.4112 17.2591C33.041 17.8124 26.0065 24.8212 25.2661 25.3746C23.9702 26.8501 22.6744 28.1412 21.1935 29.4323C20.6381 30.1701 17.4911 33.3056 17.1209 33.49C16.7506 32.9367 16.3804 31.4612 16.0102 30.5389C15.8251 29.6167 15.4548 28.5101 14.8995 27.9568L11.012 24.0835C10.4566 24.4524 8.42033 26.8501 8.0501 26.8501C7.67986 27.0345 3.05191 27.0345 2.31144 27.0345V29.6167H0.275146V18.5502H2.31144V21.1324C3.23703 21.1324 4.34774 21.1324 5.27333 21.1324C5.82868 21.1324 5.82868 20.9479 6.19892 20.5791C6.38404 20.3946 6.75427 20.2102 6.93939 20.0257C6.56916 19.4724 3.9775 16.8902 3.23703 16.1524C0.8305 13.7547 2.8668 11.3569 3.05191 10.8036L0.275146 8.22143H0.275146Z" fill="white"/>
<path fill-rule="evenodd" clip-rule="evenodd" d="M27.1172 28.5101C27.4874 28.1412 28.0428 27.5879 28.413 27.219C28.9684 27.7723 30.6344 29.2479 30.8195 29.8012L29.5237 30.9078L27.1172 28.5101Z" fill="white"/>
<path fill-rule="evenodd" clip-rule="evenodd" d="M23.7852 30.5389L25.4512 29.9856C25.6363 30.17 26.5619 32.3833 26.747 32.9366C26.1917 33.1211 25.4512 33.49 24.8959 33.49L23.7852 30.5389Z" fill="white"/>
<path fill-rule="evenodd" clip-rule="evenodd" d="M33.4113 25.0056L32.856 26.6656L29.894 25.7433L30.4494 23.8989C31.0048 24.0834 33.0411 24.6367 33.4113 25.0056Z" fill="white"/>
</g>
<defs>
<clipPath id="clip0_140_751">
<rect width="33.1361" height="33.1361" fill="white" transform="translate(0.275146 0.414307)"/>
</clipPath>
</defs>
</svg>
