<svg width="35" height="34" viewBox="0 0 35 34" fill="none" xmlns="http://www.w3.org/2000/svg">
<path fill-rule="evenodd" clip-rule="evenodd" d="M11.1659 1.08627C8.02462 1.48197 4.49503 1.92445 3.32234 2.06955C2.14976 2.21466 1.10283 2.37968 0.996041 2.43631C0.446167 2.72756 0.476558 1.87611 0.476558 16.986V30.9733L0.782882 31.2765L1.08921 31.5797H5.70838H10.3276V32.0828C10.3276 32.3596 10.3798 32.7343 10.4437 32.9157C10.6717 33.563 10.5363 33.5504 17.2442 33.5504C23.9521 33.5504 23.8167 33.563 24.0447 32.9157C24.1086 32.7343 24.1609 32.3596 24.1609 32.0828V31.5797H28.78H33.3992L33.7055 31.2765L34.0119 30.9733V16.986C34.0119 1.85724 34.0433 2.72819 33.486 2.433C33.2989 2.33384 19.06 0.533128 17.5586 0.418723C17.0735 0.381798 15.233 0.573994 11.1659 1.08627ZM24.6587 3.22781L32.0207 4.13092V5.20132V6.27162H17.2442H2.46772V5.20288V4.13413L9.56777 3.24607C13.4727 2.75754 16.8093 2.35043 16.9822 2.3412C17.1551 2.33207 20.6096 2.73109 24.6587 3.22781ZM4.35408 9.22769V10.213H3.4109H2.46772V9.22769V8.24233H3.4109H4.35408V9.22769ZM10.3276 9.22769V10.213H9.70683C9.19186 10.213 9.0311 10.2588 8.76365 10.4816C8.3452 10.8301 8.31564 11.4053 8.69396 11.8408L8.94663 12.1319L11.1729 12.1637C12.7312 12.1861 13.4899 12.1583 13.7021 12.0714C14.0979 11.9092 14.3476 11.4301 14.2647 10.9926C14.1633 10.4572 13.8742 10.2766 13.0446 10.2303L12.3187 10.1896V9.21597V8.24233H17.2442H22.1697V9.21597V10.1896L21.4438 10.2303C20.6142 10.2766 20.3252 10.4572 20.2237 10.9926C20.1408 11.4301 20.3906 11.9092 20.7863 12.0714C20.9985 12.1583 21.7572 12.1861 23.3156 12.1637L25.5418 12.1319L25.7945 11.8408C26.1728 11.4053 26.1432 10.8301 25.7248 10.4816C25.4573 10.2588 25.2966 10.213 24.7816 10.213H24.1609V9.22769V8.24233H26.152H28.1432V16.0214V23.8006H17.2442H6.34524V16.0214V8.24233H8.33639H10.3276V9.22769ZM32.0207 9.22769V10.213H31.0775H30.1343V9.22769V8.24233H31.0775H32.0207V9.22769ZM4.35408 13.1172V14.0507H3.4109H2.46772V13.1172V12.1838H3.4109H4.35408V13.1172ZM32.0207 13.1172V14.0507H31.0775H30.1343V13.1172V12.1838H31.0775H32.0207V13.1172ZM4.35408 17.0068V17.9922H3.4109H2.46772V17.0068V16.0214H3.4109H4.35408V17.0068ZM32.0207 17.0068V17.9922H31.0775H30.1343V17.0068V16.0214H31.0775H32.0207V17.0068ZM4.35408 20.8964V21.8299H3.4109H2.46772V20.8964V19.9629H3.4109H4.35408V20.8964ZM32.0207 20.8964V21.8299H31.0775H30.1343V20.8964V19.9629H31.0775H32.0207V20.8964ZM4.35408 24.7859V25.7713H3.4109H2.46772V24.7859V23.8006H3.4109H4.35408V24.7859ZM32.0207 24.7859V25.7713H31.0775H30.1343V24.7859V23.8006H31.0775H32.0207V24.7859ZM28.1432 27.6901V29.609H26.152H24.1609V29.0852C24.1609 28.5082 23.9536 28.0134 23.6426 27.8488C23.5109 27.779 21.294 27.742 17.2442 27.742C13.1944 27.742 10.9775 27.779 10.8458 27.8488C10.5348 28.0134 10.3276 28.5082 10.3276 29.0852V29.609H8.33639H6.34524V27.6901V25.7713H17.2442H28.1432V27.6901ZM4.35408 28.6755V29.609H3.4109H2.46772V28.6755V27.742H3.4109H4.35408V28.6755ZM32.0207 28.6755V29.609H31.0775H30.1343V28.6755V27.742H31.0775H32.0207V28.6755ZM22.1697 30.6462V31.5797H17.2442H12.3187V30.6462V29.7127H17.2442H22.1697V30.6462Z" fill="white"/>
</svg>
