<svg width="39" height="36" viewBox="0 0 39 36" fill="none" xmlns="http://www.w3.org/2000/svg">
<path fill-rule="evenodd" clip-rule="evenodd" d="M16.0367 9.48592C16.0367 9.69833 17.9484 11.61 18.1608 11.8224C19.0104 12.4597 19.8601 13.3093 20.4973 13.9465C21.347 14.7962 21.1345 14.3714 20.9221 15.6458L20.0725 21.3809C20.0725 22.6554 21.5594 21.5933 22.1966 21.1685L26.8696 18.832C26.8696 18.832 30.2682 20.5313 30.693 20.7437C31.3303 20.9561 32.8171 22.0182 33.242 22.0182C34.0916 22.0182 33.6668 20.7437 33.4544 20.3189L32.6047 14.5838C33.0296 14.159 36.0033 11.1852 36.4281 10.7604C36.8529 10.3356 37.4902 9.91074 37.4902 9.27351C37.4902 8.84869 36.4281 8.84869 36.0033 8.63628C35.3661 8.63628 34.7288 8.63628 34.0916 8.42386C33.4544 8.42386 30.9054 7.99904 30.2682 7.99904L27.5069 2.05154C27.2945 1.62672 27.2945 1.41431 26.6572 1.41431C26.4448 1.41431 25.3828 3.96324 24.9579 4.38806L23.4711 7.57422C23.2587 7.99904 23.0462 7.99904 21.7718 8.21145C21.1345 8.21145 20.4973 8.42386 19.6477 8.42386C19.0104 8.63628 18.3732 8.63628 17.736 8.63628C17.0987 8.84869 16.0367 8.84869 16.0367 9.48592V9.48592Z" stroke="white" stroke-width="1.42012" stroke-miterlimit="22.9256"/>
<path fill-rule="evenodd" clip-rule="evenodd" d="M0.955566 33.7008C0.955566 35.4001 2.44244 33.9132 3.5045 33.0636L5.41619 31.7891C5.84102 31.3643 6.26584 30.9395 6.69066 30.727L9.23959 33.7008C9.452 33.9132 9.87682 34.5504 10.3016 34.5504C10.9389 34.5504 10.7265 33.0636 10.9389 31.5767L11.5761 28.6029C12.0009 26.4788 12.6382 24.7795 13.4878 23.0803C13.7002 22.6554 13.9126 22.2306 14.125 22.0182C15.3995 19.8941 16.8864 18.6196 19.0105 17.3452C19.6477 17.1328 19.6477 17.3452 19.8601 16.4955C19.8601 16.0707 20.0725 15.2211 20.0725 14.7962C19.6477 14.7962 17.736 12.4597 17.5236 12.4597C17.0988 12.4597 13.9126 13.7342 13.2754 14.159C12.4258 14.5838 12.0009 14.7962 11.1513 15.4335C5.20378 19.2569 2.23003 24.7795 1.16798 31.3643C1.16798 32.0015 0.955566 32.8512 0.955566 33.7008V33.7008Z" stroke="white" stroke-width="1.42012" stroke-miterlimit="22.9256"/>
<path fill-rule="evenodd" clip-rule="evenodd" d="M29.6311 23.9299V25.8416C28.7814 25.8416 27.2946 25.6292 27.2946 26.2665C27.2946 27.1161 28.569 26.9037 29.6311 26.9037C29.6311 28.3906 29.4187 29.2402 30.2683 29.2402C31.118 29.2402 30.6931 28.3906 30.6931 26.9037C31.7552 26.9037 33.0296 27.1161 33.0296 26.4789C33.0296 25.6292 31.9676 25.8416 30.6931 25.8416C30.6931 23.9299 30.9055 23.5051 30.0559 23.5051C29.8435 23.5051 29.6311 23.7175 29.6311 23.9299Z" fill="white" stroke="white" stroke-width="1.42012"/>
<path fill-rule="evenodd" clip-rule="evenodd" d="M6.26584 5.87502V7.78671C5.20379 7.78671 3.92932 7.5743 3.92932 8.21154C3.92932 9.06118 4.77896 8.84877 6.26584 8.84877C6.26584 9.91082 6.05343 11.1853 6.69066 11.1853C7.54031 11.1853 7.32789 9.91082 7.32789 8.84877C8.60236 8.84877 9.66441 9.06118 9.66441 8.21154C9.66441 7.5743 8.17754 7.78671 7.32789 7.78671C7.32789 6.29984 7.54031 5.4502 6.69066 5.4502C6.47825 5.4502 6.26584 5.66261 6.26584 5.87502Z" fill="white" stroke="white" stroke-width="1.42012"/>
<path fill-rule="evenodd" clip-rule="evenodd" d="M12.8507 2.68851V3.53815C12.001 3.53815 10.939 3.53815 10.939 4.17539C10.939 4.81262 12.001 4.81262 12.8507 4.81262C12.8507 5.23744 12.6383 6.51191 13.2755 6.51191C14.1251 6.51191 13.9127 5.66226 13.9127 4.81262C14.5499 4.81262 15.612 5.02503 15.612 4.17539C15.612 3.53815 14.7624 3.53815 13.9127 3.53815C13.9127 2.90092 14.1251 1.83887 13.2755 1.83887C12.8507 1.83887 12.8507 2.26369 12.8507 2.68851Z" fill="white" stroke="white" stroke-width="1.42012"/>
<path fill-rule="evenodd" clip-rule="evenodd" d="M19.86 25.4166V26.6911C18.7979 26.6911 17.9483 26.4787 17.9483 27.1159C17.9483 27.9655 18.7979 27.7531 19.86 27.7531C19.86 29.0276 19.6476 29.4524 20.4972 29.4524C20.9221 29.4524 20.9221 28.1779 20.9221 27.7531C21.5593 27.7531 22.6213 27.9655 22.6213 27.1159C22.6213 26.4787 21.5593 26.6911 20.9221 26.6911C20.9221 26.0538 20.9221 24.9918 20.4972 24.9918C20.2848 24.7794 19.86 24.9918 19.86 25.4166Z" fill="white" stroke="white" stroke-width="1.42012"/>
</svg>
