<svg width="26" height="34" viewBox="0 0 26 34" fill="none" xmlns="http://www.w3.org/2000/svg">
<g clip-path="url(#clip0_140_779)">
<path fill-rule="evenodd" clip-rule="evenodd" d="M14.3518 6.26188H19.364L15.4656 12.9448C15.1872 13.7802 14.6303 14.6155 14.3518 15.1724V6.26188ZM12.4026 15.1724C12.1242 14.894 11.8457 14.3371 11.5673 14.0586C11.2888 13.7802 11.2888 13.2232 11.0104 12.9448L7.112 6.26188H12.4026V15.1724ZM3.21364 2.36352C3.4921 2.36352 22.9839 2.36352 23.2624 2.36352C24.0977 2.64198 24.0977 4.03425 23.2624 4.3127C22.9839 4.3127 3.77055 4.3127 3.21364 4.3127C2.37828 4.03425 2.37828 2.64198 3.21364 2.36352ZM4.88437 6.26188C5.71973 7.65416 12.1242 18.7923 12.1242 19.0708L5.44128 30.7659C5.16282 31.3228 5.16282 31.6012 4.88437 31.6012C3.77055 31.6012 2.93519 31.3228 2.65673 32.4366C2.37828 33.5504 3.77055 33.5504 4.60591 33.5504C6.5551 33.5504 5.99819 33.5504 7.66891 30.4874C8.50428 29.0952 9.33964 27.9813 10.175 26.5891C10.4535 25.7537 11.8457 23.2476 12.4026 22.6907V31.3228C12.4026 32.4366 12.1242 33.5504 13.238 33.5504C14.3518 33.5504 14.3518 32.4366 14.3518 31.6012V22.6907C14.6303 22.9692 19.0855 31.0443 19.9209 32.4366C20.4778 33.5504 20.4778 33.5504 21.8701 33.5504C22.7055 33.5504 24.0977 33.5504 23.8193 32.4366C23.8193 31.3228 22.7055 31.6012 21.8701 31.6012C21.5916 31.6012 21.5916 31.3228 21.3132 30.7659L14.3518 19.0708C14.3518 18.7923 17.4148 13.5017 17.9717 12.6663C19.0855 10.4387 20.4778 8.48952 21.5916 6.26188C22.7055 6.26188 24.6546 6.54034 25.49 4.59116C26.3254 2.92043 25.49 1.2497 24.3762 0.692795C23.2624 0.135886 10.4535 0.41434 7.66891 0.41434C6.27664 0.41434 3.21364 0.135886 2.37828 0.692795C0.150641 1.80661 0.150641 4.86961 2.37828 5.98343C3.21364 6.54034 4.049 6.26188 4.88437 6.26188Z" fill="white"/>
</g>
<defs>
<clipPath id="clip0_140_779">
<rect width="25.2039" height="33.1361" fill="white" transform="translate(0.636047 0.414307)"/>
</clipPath>
</defs>
</svg>
