<svg width="34" height="34" viewBox="0 0 34 34" fill="none" xmlns="http://www.w3.org/2000/svg">
<path fill-rule="evenodd" clip-rule="evenodd" d="M3.6175 2.47103C4.07455 2.2425 15.9578 2.47103 18.2431 2.47103C19.3857 2.47103 20.0713 2.2425 20.7569 2.92808C21.4424 3.84218 21.2139 7.27005 21.2139 8.6412V26.4661C21.2139 28.5229 21.4424 31.0366 20.0713 31.4937C19.3857 31.7222 9.78767 31.4937 8.188 31.4937C1.33225 31.4937 2.47488 32.1793 2.47488 25.3235V4.29923C2.47488 3.38513 2.7034 2.92808 3.6175 2.47103ZM3.6175 0.414307C1.56078 0.871356 0.418156 2.2425 0.418156 4.29923V25.3235C0.418156 26.9232 0.189631 30.3511 0.875205 31.7222C2.01783 33.5504 3.38898 33.5504 6.13128 33.5504C8.41653 33.5504 18.7001 33.5504 20.0713 33.5504C21.8995 33.0933 23.0421 31.7222 23.0421 29.6655V8.6412C23.0421 7.04153 23.2706 3.61365 22.5851 2.2425C21.4424 0.414307 20.0713 0.414307 17.329 0.414307C15.2723 0.414307 4.76013 0.414307 3.6175 0.414307V0.414307Z" fill="white"/>
<path fill-rule="evenodd" clip-rule="evenodd" d="M10.9305 17.3252C14.1298 16.8682 16.6436 19.382 17.1006 21.8957C17.7862 25.3236 15.2724 27.8374 12.5301 28.2944C9.33079 28.7515 6.81702 26.4662 6.35997 23.7239C5.90292 20.5246 8.18817 18.0108 10.9305 17.3252ZM10.9305 15.497C7.04554 15.9541 3.8462 19.382 4.30325 23.7239C4.98882 27.3803 8.41669 30.8082 12.7587 30.1226C16.4151 29.6656 19.6144 26.4662 19.1574 21.8957C18.7003 18.2393 15.2724 15.04 10.9305 15.497Z" fill="white"/>
<path fill-rule="evenodd" clip-rule="evenodd" d="M11.3872 5.67043C15.2722 4.98486 15.9577 10.9265 12.3013 11.3835C10.4731 11.6121 9.10198 10.4694 8.87346 8.86977C8.64493 7.2701 9.78756 5.89896 11.3872 5.67043ZM11.1587 3.84223C9.55903 4.07076 8.64493 4.52781 7.95936 5.44191C5.21706 9.0983 8.18788 13.8973 12.5299 13.2117C14.8151 12.9832 16.8718 10.698 16.6433 7.72715C16.1863 5.44191 13.901 3.38519 11.1587 3.84223Z" fill="white"/>
<path fill-rule="evenodd" clip-rule="evenodd" d="M27.1554 12.7547C26.6983 11.6121 28.7551 11.155 28.9836 12.2977C29.2121 13.6688 27.3839 13.8973 27.1554 12.7547ZM28.9836 9.7839C24.4131 8.64128 23.956 15.04 27.841 15.497C29.6692 15.497 30.8118 14.1259 30.8118 12.5262C31.0403 10.698 30.8118 7.9557 31.0403 6.35603C31.2688 6.58455 31.9544 6.81308 32.4114 7.0416C32.8685 7.0416 33.5541 6.58455 33.5541 6.12751C33.5541 5.21341 31.9544 4.75636 31.0403 4.29931C29.6692 3.61373 28.9836 3.61373 28.9836 5.44193C28.9836 7.0416 28.9836 8.41275 28.9836 9.7839Z" fill="white"/>
<path fill-rule="evenodd" clip-rule="evenodd" d="M27.1554 30.8079C26.6983 29.6653 28.7551 29.2083 28.9836 30.3509C29.2121 31.722 27.3839 31.9506 27.1554 30.8079ZM28.9836 27.8371C24.4131 26.6945 23.956 33.0932 27.841 33.5502C29.6692 33.5502 30.8118 32.1791 30.8118 30.5794C31.0403 28.7512 30.8118 26.0089 31.0403 24.4092C31.2688 24.6378 31.9544 25.0948 32.4114 25.0948C32.8685 25.0948 33.5541 24.8663 33.5541 24.1807C33.5541 23.2666 31.9544 22.8096 31.0403 22.3525C29.6692 21.667 28.9836 21.667 28.9836 23.4952C28.9836 25.0948 28.9836 26.466 28.9836 27.8371Z" fill="white"/>
<path fill-rule="evenodd" clip-rule="evenodd" d="M11.3874 21.21C13.4441 20.7529 14.1297 23.9523 12.3015 24.4093C10.2447 24.8664 9.10211 21.8956 11.3874 21.21ZM10.9303 19.3818C9.33063 19.8388 7.73096 21.4385 8.41653 23.7238C9.33063 28.0657 16.1864 26.6946 15.2723 22.1241C14.8152 20.2959 12.987 18.9247 10.9303 19.3818Z" fill="white"/>
<path fill-rule="evenodd" clip-rule="evenodd" d="M11.3874 7.72703C10.2448 8.18408 10.9304 10.0123 12.3015 9.32671C13.2157 8.86966 12.7586 7.04145 11.3874 7.72703Z" fill="white"/>
<path fill-rule="evenodd" clip-rule="evenodd" d="M4.98864 13.2117C4.76011 13.4402 4.53159 13.2117 4.53159 13.6687C4.07454 14.5828 4.76011 15.2684 5.67421 15.0398C6.81683 14.5828 6.13126 12.7546 4.98864 13.2117Z" fill="white"/>
<path fill-rule="evenodd" clip-rule="evenodd" d="M18.0146 13.2117C17.329 13.4402 17.1005 13.6687 17.329 14.3543C17.329 14.8113 18.0146 15.2684 18.4716 15.0398C19.6142 14.5828 19.1572 12.7546 18.0146 13.2117Z" fill="white"/>
</svg>
