<svg width="35" height="34" viewBox="0 0 35 34" fill="none" xmlns="http://www.w3.org/2000/svg">
<path fill-rule="evenodd" clip-rule="evenodd" d="M30.0479 13.2474C31.5802 13.0558 31.9633 12.6727 32.7294 12.2897V32.4012H31.7717C31.7717 26.4635 31.0056 23.782 30.6225 18.0358C30.431 16.695 30.0479 14.3966 30.0479 13.2474ZM2.84947 32.4012H1.89178V12.2897C2.84947 12.8643 3.04101 13.0558 4.57332 13.4389C4.57332 14.2051 3.23255 25.5058 3.04101 27.4212C2.84947 29.145 2.84947 30.6773 2.84947 32.4012ZM1.89178 9.79967H32.7294V10.3743C32.7294 11.5235 30.431 12.2897 29.4733 12.2897C26.0256 12.2897 26.0256 10.3743 24.8764 10.3743C24.1102 11.1404 23.7271 11.7151 22.3864 12.0981C20.471 12.6727 18.9387 12.0981 17.5979 10.9489C16.4487 9.79967 16.6402 12.0981 13.3841 12.2897C10.1279 12.4812 9.93638 9.99121 8.97869 10.7574C8.40408 11.1404 8.40408 11.332 7.63793 11.7151C4.95639 13.2474 1.89178 11.5235 1.89178 10.3743V9.79967ZM10.511 5.20276C11.2771 4.62814 17.0233 1.56354 17.4064 1.56354C17.5979 1.56354 23.5356 4.62814 24.1102 5.20276C25.451 5.77737 26.4087 6.16045 27.5579 6.9266C28.7071 7.50122 30.0479 8.07583 31.0056 8.65044H3.61563L10.511 5.20276ZM17.2148 11.9066C17.981 12.8643 19.5133 13.4389 21.2371 13.4389C23.5356 13.2474 24.1102 12.4812 25.0679 11.7151C25.6425 12.0981 26.2171 12.4812 26.7917 12.8643C27.3664 13.0558 28.7071 13.2474 28.8987 13.4389L30.6225 28.9535C30.6225 30.2943 30.431 32.4012 30.814 33.5504C31.7717 33.5504 32.7294 33.5504 33.6871 33.5504C33.8786 33.1673 33.8786 33.1673 33.8786 32.7842V9.4166C33.8786 8.84198 33.6871 8.84198 33.304 8.45891C30.431 7.11814 17.7894 0.414307 17.4064 0.414307C17.0233 0.414307 4.76485 6.73506 2.4664 8.07583C0.934092 8.65044 0.742554 8.65044 0.742554 9.4166V32.7842C0.742554 33.1673 0.742554 33.1673 0.934092 33.5504C1.89178 33.5504 2.84947 33.5504 3.80716 33.5504C4.38178 32.2096 3.9987 29.7196 3.9987 28.1873C4.19024 26.4635 4.38178 24.9312 4.57332 23.2073C4.95639 19.9512 5.33947 16.695 5.72254 13.4389C7.06331 13.4389 8.40408 12.6727 9.17023 11.9066C9.74484 12.2897 10.1279 12.6727 10.8941 13.0558C12.6179 13.6304 14.7248 13.6304 16.2571 12.4812C16.6402 12.2897 16.8318 12.0981 17.2148 11.9066Z" fill="white" stroke="white" stroke-width="0.473373" stroke-miterlimit="22.9256"/>
</svg>
