<svg width="31" height="19" viewBox="0 0 31 19" fill="none" xmlns="http://www.w3.org/2000/svg">
<mask id="path-1-inside-1_140_902" fill="white">
<path fill-rule="evenodd" clip-rule="evenodd" d="M21.2266 0.866546C22.2324 0.0316372 23.7246 0.17018 24.5595 1.17599L29.903 7.61329C30.292 8.08194 30.4697 8.65618 30.4468 9.22032C30.4696 9.78425 30.2919 10.3582 29.903 10.8267L24.5595 17.264C23.7246 18.2698 22.2324 18.4083 21.2266 17.5734C20.2208 16.7385 20.0822 15.2463 20.9171 14.2405L23.0571 11.6625H2.83732C1.53014 11.6625 0.470459 10.6028 0.470459 9.29564C0.470459 7.98846 1.53014 6.92877 2.83732 6.92877H23.1827L20.9171 4.19946C20.0822 3.19365 20.2208 1.70146 21.2266 0.866546Z"/>
</mask>
<path fill-rule="evenodd" clip-rule="evenodd" d="M21.2266 0.866546C22.2324 0.0316372 23.7246 0.17018 24.5595 1.17599L29.903 7.61329C30.292 8.08194 30.4697 8.65618 30.4468 9.22032C30.4696 9.78425 30.2919 10.3582 29.903 10.8267L24.5595 17.264C23.7246 18.2698 22.2324 18.4083 21.2266 17.5734C20.2208 16.7385 20.0822 15.2463 20.9171 14.2405L23.0571 11.6625H2.83732C1.53014 11.6625 0.470459 10.6028 0.470459 9.29564C0.470459 7.98846 1.53014 6.92877 2.83732 6.92877H23.1827L20.9171 4.19946C20.0822 3.19365 20.2208 1.70146 21.2266 0.866546Z" fill="#464646"/>
<path d="M24.5595 1.17599L23.4668 2.08303L23.4668 2.08303L24.5595 1.17599ZM21.2266 0.866546L22.1336 1.95925L21.2266 0.866546ZM29.903 7.61329L28.8103 8.52033L29.903 7.61329ZM30.4468 9.22032L29.0279 9.16269L29.0255 9.22012L29.0278 9.27756L30.4468 9.22032ZM29.903 10.8267L30.9957 11.7337L30.9957 11.7337L29.903 10.8267ZM24.5595 17.264L25.6522 18.171L24.5595 17.264ZM21.2266 17.5734L20.3195 18.6661L21.2266 17.5734ZM20.9171 14.2405L22.0098 15.1476L20.9171 14.2405ZM23.0571 11.6625L24.1498 12.5695L26.0815 10.2424H23.0571V11.6625ZM23.1827 6.92877V8.34889H26.2072L24.2754 6.02173L23.1827 6.92877ZM20.9171 4.19946L22.0099 3.29242V3.29242L20.9171 4.19946ZM25.6522 0.268949C24.3164 -1.34035 21.9288 -1.56202 20.3196 -0.226162L22.1336 1.95925C22.536 1.62529 23.1328 1.68071 23.4668 2.08303L25.6522 0.268949ZM30.9957 6.70625L25.6522 0.268948L23.4668 2.08303L28.8103 8.52033L30.9957 6.70625ZM31.8658 9.27796C31.9024 8.37664 31.6176 7.45541 30.9957 6.70625L28.8103 8.52033C28.9665 8.70847 29.0371 8.93571 29.0279 9.16269L31.8658 9.27796ZM30.9957 11.7337C31.6173 10.9849 31.9021 10.0641 31.8658 9.16309L29.0278 9.27756C29.037 9.50444 28.9664 9.73158 28.8103 9.91964L30.9957 11.7337ZM25.6522 18.171L30.9957 11.7337L28.8103 9.91964L23.4668 16.3569L25.6522 18.171ZM20.3195 18.6661C21.9288 20.002 24.3163 19.7803 25.6522 18.171L23.4668 16.3569C23.1328 16.7593 22.5359 16.8147 22.1336 16.4807L20.3195 18.6661ZM19.8244 13.3335C18.4886 14.9428 18.7102 17.3303 20.3195 18.6661L22.1336 16.4807C21.7313 16.1468 21.6759 15.5499 22.0098 15.1476L19.8244 13.3335ZM21.9644 10.7555L19.8244 13.3335L22.0098 15.1476L24.1498 12.5695L21.9644 10.7555ZM2.83732 13.0826H23.0571V10.2424H2.83732V13.0826ZM-0.949659 9.29564C-0.949659 11.3871 0.74583 13.0826 2.83732 13.0826V10.2424C2.31445 10.2424 1.89058 9.81851 1.89058 9.29564H-0.949659ZM2.83732 5.50866C0.74583 5.50866 -0.949659 7.20415 -0.949659 9.29564H1.89058C1.89058 8.77277 2.31445 8.34889 2.83732 8.34889V5.50866ZM23.1827 5.50866H2.83732V8.34889H23.1827V5.50866ZM19.8244 5.1065L22.09 7.83582L24.2754 6.02173L22.0099 3.29242L19.8244 5.1065ZM20.3196 -0.226162C18.7103 1.10969 18.4886 3.49721 19.8244 5.1065L22.0099 3.29242C21.6759 2.8901 21.7313 2.29322 22.1336 1.95925L20.3196 -0.226162Z" fill="#F3F3F3" mask="url(#path-1-inside-1_140_902)"/>
</svg>
