<svg width="27" height="24" viewBox="0 0 27 24" fill="none" xmlns="http://www.w3.org/2000/svg">
<path fill-rule="evenodd" clip-rule="evenodd" d="M13.9405 4.95706C13.6345 4.76681 13.2469 4.7668 12.9409 4.95706L4.80336 10.0156C4.52544 10.1884 4.35645 10.4924 4.35645 10.8197V22.1269C4.35645 22.6498 4.78032 23.0736 5.30319 23.0736H9.27046C9.79333 23.0736 10.2172 22.6498 10.2172 22.1269V16.2929C10.2172 15.77 10.6411 15.3461 11.164 15.3461H15.1313C15.6541 15.3461 16.078 15.77 16.078 16.2929V22.1269C16.078 22.6498 16.5019 23.0736 17.0248 23.0736H21.5782C22.1011 23.0736 22.5249 22.6498 22.5249 22.1269V10.8197C22.5249 10.4924 22.3559 10.1884 22.078 10.0156L13.9405 4.95706Z" fill="#F8F8F8"/>
<path fill-rule="evenodd" clip-rule="evenodd" d="M0.253906 8.50913C0.253906 8.24737 0.389083 8.00417 0.611389 7.86598L12.9409 0.20155C13.247 0.0112927 13.6345 0.0112928 13.9405 0.20155L26.27 7.86598C26.4924 8.00417 26.6275 8.24737 26.6275 8.50913V8.50913C26.6275 9.1031 25.9749 9.46586 25.4704 9.15227L13.9405 1.9849C13.6345 1.79465 13.247 1.79465 12.9409 1.9849L1.41099 9.15227C0.906541 9.46586 0.253906 9.1031 0.253906 8.50913V8.50913Z" fill="#F8F8F8"/>
</svg>
