<svg width="21" height="21" viewBox="0 0 21 21" fill="none" xmlns="http://www.w3.org/2000/svg">
<path fill-rule="evenodd" clip-rule="evenodd" d="M4.39775 0.730293C3.28307 0.97437 2.60977 1.34456 1.80921 2.15359C1.15673 2.81289 0.810387 3.38014 0.550305 4.21513L0.375732 4.77565V10.5989V16.4221L0.550305 16.9826C0.816245 17.8365 1.15461 18.3837 1.84037 19.069C2.52613 19.7543 3.07378 20.0924 3.92825 20.3582L4.48918 20.5326H10.3166H16.1439L16.7049 20.3582C17.5593 20.0924 18.107 19.7543 18.7928 19.069C19.4785 18.3837 19.8169 17.8365 20.0828 16.9826L20.2574 16.4221V10.5989V4.77565L20.0828 4.21513C19.8169 3.36127 19.4785 2.81401 18.7928 2.12874C18.1069 1.44334 17.5591 1.10516 16.7049 0.839782L16.1439 0.665521L10.4724 0.65375C5.77675 0.644035 4.73144 0.657176 4.39775 0.730293ZM16.0349 4.00761C16.6386 4.15945 17.0634 4.83607 16.9294 5.43215C16.7838 6.07949 16.273 6.46165 15.6166 6.41419C14.9696 6.36742 14.551 5.94914 14.5042 5.30267C14.4519 4.58028 14.9258 4.03881 15.6956 3.94122C15.7233 3.93773 15.876 3.96757 16.0349 4.00761ZM11.5631 6.64942C12.5012 6.94476 13.3968 7.6527 13.8863 8.4857C14.2868 9.16742 14.4446 9.76456 14.4446 10.5989C14.4446 11.4332 14.2868 12.0303 13.8863 12.712C13.5853 13.2243 12.9439 13.8652 12.4312 14.166C11.749 14.5663 11.1515 14.724 10.3166 14.724C9.48166 14.724 8.88408 14.5663 8.20188 14.166C7.68925 13.8652 7.04787 13.2243 6.74684 12.712C6.34628 12.0303 6.18853 11.4332 6.18853 10.5989C6.18853 9.99787 6.21452 9.80249 6.35001 9.3844C6.5684 8.71078 6.90059 8.16651 7.39271 7.67605C8.5059 6.56665 10.074 6.18058 11.5631 6.64942Z" fill="#E73670"/>
</svg>
