<svg width="21" height="21" viewBox="0 0 21 21" fill="none" xmlns="http://www.w3.org/2000/svg">
<path fill-rule="evenodd" clip-rule="evenodd" d="M3.69032 0.727387C3.07637 0.914469 1.65044 2.03827 1.16566 2.71725C0.799801 3.22955 0.757913 3.41931 0.767424 4.52091C0.795012 7.73683 2.17582 11.3611 4.42568 14.1235C6.11353 16.1958 8.20657 17.8395 10.5668 18.9461C12.3481 19.7813 14.0949 20.284 15.8659 20.471C17.1976 20.6117 17.6536 20.5326 18.5404 20.0075C19.1728 19.633 20.3163 18.5705 20.5052 18.1817C20.7219 17.7358 20.6921 17.2082 20.4139 16.5619C20.0855 15.7989 19.9905 15.6964 19.3044 15.3633C18.1302 14.7932 15.6361 14.0347 15.1067 14.0866C14.7205 14.1245 14.261 14.3938 13.3373 15.1234L12.563 15.735L12.2918 15.6084C11.0979 15.0508 8.87738 13.3113 7.82418 12.1087C6.91864 11.0746 5.90288 9.52929 5.52333 8.60818L5.39821 8.30467L6.29377 7.51541C7.37887 6.5591 7.57859 6.25739 7.50365 5.68725C7.42197 5.06592 7.07729 3.55222 6.85571 2.84164C6.54118 1.83315 6.33154 1.48673 5.87131 1.21531C4.98614 0.69318 4.30373 0.540553 3.69032 0.727387Z" fill="#E73670"/>
</svg>
