<svg width="23" height="17" viewBox="0 0 23 17" fill="none" xmlns="http://www.w3.org/2000/svg">
<path fill-rule="evenodd" clip-rule="evenodd" d="M4.16971 0.563139C4.09135 0.579117 3.85096 0.626626 3.63549 0.668596C3.42003 0.710637 2.97478 0.87319 2.64606 1.02985C2.1721 1.25575 1.92736 1.43456 1.46381 1.89375C0.811424 2.53991 0.463259 3.10271 0.204984 3.92854C0.0385233 4.46087 0.0384521 4.4635 0.0384521 8.54452C0.0384521 12.6255 0.0385233 12.6282 0.204984 13.1605C0.463259 13.9863 0.811424 14.5491 1.46381 15.1953C1.92879 15.6559 2.17061 15.8323 2.64606 16.058C3.70074 16.5586 3.24373 16.5337 11.3994 16.5337C19.5551 16.5337 19.0981 16.5586 20.1527 16.058C20.6282 15.8323 20.87 15.6559 21.335 15.1953C21.9874 14.5491 22.3355 13.9863 22.5938 13.1605C22.7603 12.6282 22.7603 12.6255 22.7603 8.54452C22.7603 4.4635 22.7603 4.46087 22.5938 3.92854C22.3361 3.10441 21.9872 2.5397 21.339 1.89765C20.9143 1.47696 20.6159 1.25241 20.228 1.06138C19.141 0.526069 19.7437 0.562074 11.6131 0.547302C7.59758 0.539988 4.24806 0.54716 4.16971 0.563139ZM11.7555 6.82574C13.4205 7.6645 14.8433 8.40767 14.9173 8.47727C15.1946 8.73782 15.2218 8.72113 12.1473 10.1771C11.7555 10.3626 10.7788 10.8255 9.97668 11.2057C8.89814 11.7168 8.49 11.8791 8.40965 11.8286C8.31535 11.7693 8.29847 11.339 8.28223 8.57229C8.26549 5.71038 8.27532 5.37576 8.37824 5.30048C8.44128 5.25432 8.54584 5.2355 8.61059 5.25858C8.67534 5.28173 10.0906 5.98691 11.7555 6.82574Z" fill="#E73670"/>
</svg>
