<svg width="40" height="40" viewBox="0 0 40 40" fill="none" xmlns="http://www.w3.org/2000/svg">
<g filter="url(#filter0_dd_237_2)">
<rect x="5.38159" y="4.87573" width="29.0335" height="29.0335" rx="3.78698" fill="#E73670"/>
</g>
<path fill-rule="evenodd" clip-rule="evenodd" d="M10.6376 12.3075C10.4632 12.4771 10.4595 12.505 10.4595 13.6138V14.7468H10.1293C9.72495 14.7468 9.42747 14.8875 9.31244 15.1332C9.19988 15.3735 9.20307 15.488 9.32913 15.7251C9.45933 15.9701 9.72226 16.0884 10.1363 16.0884H10.4595V16.7592V17.4301H9.58299C8.71103 17.4301 8.70544 17.4311 8.4944 17.6365C8.22863 17.8951 8.21521 18.1936 8.45717 18.4676C8.62735 18.6605 8.65609 18.6667 9.52762 18.7011L10.4232 18.7364L10.4595 21.9377L10.4957 25.1391L10.6994 25.3094C10.8534 25.4383 10.9878 25.4798 11.2511 25.4798H11.5991L11.6431 24.9257C11.7563 23.4958 12.7397 22.2607 14.1143 21.8216C15.0597 21.5197 16.2508 21.6442 17.1216 22.1361C18.1153 22.6974 18.8779 23.9927 18.8779 25.1193V25.4798H20.9826H23.0872V18.807V12.1342H16.9515H10.8157L10.6376 12.3075ZM16.2709 14.9532C16.5438 15.2188 16.5584 15.5716 16.3079 15.855L16.1329 16.0531L13.2961 16.0732L10.4595 16.0932V15.42V14.7468H13.2591H16.0588L16.2709 14.9532ZM24.4661 17.5713V19.5484H27.7838H31.1016L30.7348 19.1777C27.9131 16.3255 27.3333 15.7582 27.1659 15.6856C27.0386 15.6304 26.5308 15.5994 25.7179 15.5973L24.4661 15.5941V17.5713ZM15.7968 17.6034C15.928 17.7309 15.975 17.853 15.975 18.0656C15.975 18.2781 15.928 18.4002 15.7968 18.5277L15.6188 18.7011H13.0391H10.4595V18.0656V17.4301H13.0391H15.6188L15.7968 17.6034ZM24.4661 21.8162V22.7424L24.7382 22.5035C25.3949 21.927 26.1182 21.6663 27.0582 21.6676C28.1657 21.669 28.8994 21.9589 29.6605 22.6956C30.3256 23.3394 30.7047 24.2044 30.7065 25.0826L30.7073 25.4975L30.943 25.4516C31.0725 25.4264 31.244 25.3421 31.324 25.2644C31.462 25.1302 31.4705 25.0153 31.4906 23.0066L31.5117 20.89H27.9889H24.4661V21.8162ZM14.515 23.0311C13.6088 23.3606 13.0306 24.0799 12.9465 24.9826C12.8675 25.8308 13.3515 26.6876 14.1607 27.1319C14.5296 27.3344 14.612 27.351 15.2493 27.3508C15.8286 27.3507 15.9885 27.3248 16.2504 27.1889C16.7309 26.9396 17.1121 26.5656 17.3333 26.1267C17.5024 25.791 17.5347 25.6364 17.5347 25.1621C17.5347 24.6877 17.5024 24.5331 17.3333 24.1974C17.1103 23.755 16.7247 23.3785 16.2504 23.1405C15.8619 22.9455 14.9147 22.8857 14.515 23.0311ZM26.3314 23.0354C25.3846 23.3784 24.803 24.1875 24.7988 25.1675C24.797 25.5916 24.8326 25.7382 25.0336 26.1354C25.4686 26.9952 26.2204 27.4201 27.2238 27.3733C27.8893 27.3422 28.3296 27.1457 28.7775 26.6799C29.813 25.6028 29.4905 23.8425 28.1339 23.1666C27.6839 22.9423 26.7717 22.8759 26.3314 23.0354Z" fill="white"/>
<defs>
<filter id="filter0_dd_237_2" x="0.647864" y="0.142005" width="38.501" height="39.4478" filterUnits="userSpaceOnUse" color-interpolation-filters="sRGB">
<feFlood flood-opacity="0" result="BackgroundImageFix"/>
<feColorMatrix in="SourceAlpha" type="matrix" values="0 0 0 0 0 0 0 0 0 0 0 0 0 0 0 0 0 0 127 0" result="hardAlpha"/>
<feOffset dx="0.946746" dy="1.89349"/>
<feGaussianBlur stdDeviation="1.89349"/>
<feComposite in2="hardAlpha" operator="out"/>
<feColorMatrix type="matrix" values="0 0 0 0 0.192157 0 0 0 0 0.0235294 0 0 0 0 0.25098 0 0 0 0.16 0"/>
<feBlend mode="normal" in2="BackgroundImageFix" result="effect1_dropShadow_237_2"/>
<feColorMatrix in="SourceAlpha" type="matrix" values="0 0 0 0 0 0 0 0 0 0 0 0 0 0 0 0 0 0 127 0" result="hardAlpha"/>
<feOffset dx="-2.84024" dy="-2.84024"/>
<feGaussianBlur stdDeviation="0.946746"/>
<feComposite in2="hardAlpha" operator="out"/>
<feColorMatrix type="matrix" values="0 0 0 0 1 0 0 0 0 1 0 0 0 0 1 0 0 0 1 0"/>
<feBlend mode="normal" in2="effect1_dropShadow_237_2" result="effect2_dropShadow_237_2"/>
<feBlend mode="normal" in="SourceGraphic" in2="effect2_dropShadow_237_2" result="shape"/>
</filter>
</defs>
</svg>
