<svg width="39" height="40" viewBox="0 0 39 40" fill="none" xmlns="http://www.w3.org/2000/svg">
<g filter="url(#filter0_dd_237_4)">
<rect x="4.93774" y="4.87573" width="29.0335" height="29.0335" rx="3.78698" fill="#E73670"/>
</g>
<path fill-rule="evenodd" clip-rule="evenodd" d="M16.7099 8.78372C16.3052 9.00259 16.2909 9.10529 16.2878 11.8206L16.2849 14.3619L16.495 14.6621C16.8106 15.1127 17.0361 15.9241 17.0919 16.8091L17.1419 17.6007H19.6123H22.0828L22.1327 16.8091C22.1886 15.9241 22.4141 15.1127 22.7297 14.6621L22.9398 14.3619V11.8447C22.9398 9.13379 22.92 8.99204 22.5118 8.78608C22.1888 8.62306 17.0108 8.62095 16.7099 8.78372ZM10.3135 10.4291C9.88081 10.6372 9.67151 10.9902 9.67151 11.5118C9.67151 11.8437 9.71917 12.0236 9.85702 12.2122C10.21 12.695 10.3943 12.7296 12.6164 12.7296H14.6211V11.5118V10.2941L12.6038 10.2959C10.9162 10.2975 10.542 10.3192 10.3135 10.4291ZM24.6035 11.5118V12.7296H26.6083C28.8304 12.7296 29.0147 12.695 29.3677 12.2122C29.5055 12.0236 29.5532 11.8437 29.5532 11.5118C29.5532 11.18 29.5055 11.0001 29.3677 10.8115C29.0147 10.3287 28.8304 10.2941 26.6083 10.2941H24.6035V11.5118ZM17.9486 24.0985V28.9726L18.6276 30.0453C19.3686 31.216 19.5524 31.4478 19.6791 31.3715C19.725 31.3437 20.1031 30.7968 20.5193 30.1562L21.2761 28.9913V24.1078V19.2244H19.6123H17.9486V24.0985Z" fill="white"/>
<defs>
<filter id="filter0_dd_237_4" x="0.204016" y="0.142005" width="38.501" height="39.4478" filterUnits="userSpaceOnUse" color-interpolation-filters="sRGB">
<feFlood flood-opacity="0" result="BackgroundImageFix"/>
<feColorMatrix in="SourceAlpha" type="matrix" values="0 0 0 0 0 0 0 0 0 0 0 0 0 0 0 0 0 0 127 0" result="hardAlpha"/>
<feOffset dx="0.946746" dy="1.89349"/>
<feGaussianBlur stdDeviation="1.89349"/>
<feComposite in2="hardAlpha" operator="out"/>
<feColorMatrix type="matrix" values="0 0 0 0 0.192157 0 0 0 0 0.0235294 0 0 0 0 0.25098 0 0 0 0.16 0"/>
<feBlend mode="normal" in2="BackgroundImageFix" result="effect1_dropShadow_237_4"/>
<feColorMatrix in="SourceAlpha" type="matrix" values="0 0 0 0 0 0 0 0 0 0 0 0 0 0 0 0 0 0 127 0" result="hardAlpha"/>
<feOffset dx="-2.84024" dy="-2.84024"/>
<feGaussianBlur stdDeviation="0.946746"/>
<feComposite in2="hardAlpha" operator="out"/>
<feColorMatrix type="matrix" values="0 0 0 0 1 0 0 0 0 1 0 0 0 0 1 0 0 0 1 0"/>
<feBlend mode="normal" in2="effect1_dropShadow_237_4" result="effect2_dropShadow_237_4"/>
<feBlend mode="normal" in="SourceGraphic" in2="effect2_dropShadow_237_4" result="shape"/>
</filter>
</defs>
</svg>
