<svg width="39" height="40" viewBox="0 0 39 40" fill="none" xmlns="http://www.w3.org/2000/svg">
<g filter="url(#filter0_dd_237_3)">
<rect x="5.13306" y="4.87573" width="29.0335" height="29.0335" rx="3.78698" fill="#E73670"/>
</g>
<path fill-rule="evenodd" clip-rule="evenodd" d="M24.7618 8.70409C23.4427 8.92555 22.31 10.1256 22.2138 11.4037C22.128 12.5425 22.1884 12.4187 21.2587 13.3627L20.4157 14.2186L20.649 14.46L20.8822 14.7015L21.2016 14.5137C21.446 14.37 21.6109 14.3265 21.905 14.3284C22.4114 14.3315 22.654 14.4684 23.3377 15.1363L23.8987 15.6845L24.2064 15.3699C24.5495 15.0192 24.8153 14.9186 25.3999 14.918C26.1831 14.9172 27.0442 14.5203 27.6182 13.8955C28.1613 13.3044 28.5083 12.2388 28.3953 11.5094L28.349 11.2108L27.4096 12.1558C26.3398 13.232 26.5097 13.1664 25.2494 12.9888C24.7211 12.9143 24.4094 12.8368 24.334 12.7612C24.2586 12.6856 24.1814 12.3728 24.1072 11.8429C23.9305 10.5814 23.8635 10.7546 24.9524 9.65999C25.7865 8.82163 25.8859 8.69822 25.7273 8.69822C25.6272 8.69822 25.4553 8.68509 25.3451 8.66901C25.235 8.65294 24.9725 8.66873 24.7618 8.70409ZM17.5369 13.2001C17.2684 13.4268 17.1932 13.719 17.3344 13.9866C17.3917 14.0951 17.888 14.6322 18.4373 15.1802L19.436 16.1765L19.9211 15.686L20.4063 15.1955L19.3573 14.1431C18.426 13.2088 18.2771 13.0865 18.0315 13.0535C17.8025 13.0227 17.7172 13.048 17.5369 13.2001ZM15.84 14.3783C15.6722 14.5076 15.5675 14.7438 15.5675 14.993C15.5675 15.1834 15.6756 15.3284 16.2814 15.9495C16.6741 16.3521 17.1982 16.8899 17.446 17.1448C18.0086 17.7231 18.1932 17.8516 18.4622 17.8521C18.8403 17.853 18.9274 17.7272 18.9384 17.1645L18.9482 16.6621L17.7583 15.4754C16.574 14.2943 16.567 14.2887 16.2595 14.2909C16.0896 14.2921 15.9008 14.3315 15.84 14.3783ZM21.4463 15.1885C21.2968 15.299 20.8196 15.7526 20.3858 16.1963C19.7105 16.887 19.6004 17.0312 19.6197 17.1985C19.6348 17.3291 19.723 17.4488 19.886 17.5596C20.2452 17.8038 20.7069 17.7517 21.1998 17.4115C21.4926 17.2095 21.6401 17.1538 21.8824 17.1538C22.5889 17.1538 23.0644 17.7335 22.9156 18.4133C22.8889 18.5356 22.7101 18.8093 22.5184 19.0217C22.0864 19.5002 21.9094 19.8806 21.9079 20.3334C21.9061 20.8768 22.0249 21.1828 22.3979 21.5961C22.5871 21.8056 22.7418 22.0374 22.7418 22.1111C22.7418 22.2877 22.5594 22.4647 22.3775 22.4647C22.1771 22.4647 21.6524 21.8855 21.4281 21.4165C21.2686 21.0831 21.2445 20.9443 21.246 20.3683C21.2481 19.5811 21.3784 19.2486 21.9163 18.6582C22.2565 18.2847 22.3248 18.0911 22.1707 17.9365C22.0284 17.7938 21.7954 17.8427 21.4245 18.0931C20.8991 18.4478 20.2029 18.5106 19.6828 18.2503C19.4881 18.1529 19.4579 18.155 19.3038 18.2766C19.2116 18.3494 19.0576 18.4388 18.9616 18.4755C18.7941 18.5393 18.7883 18.561 18.8231 18.9951C18.8531 19.3707 18.8326 19.5035 18.7025 19.773C18.5322 20.126 18.1788 20.4069 17.8127 20.4803C17.5905 20.5249 17.5874 20.531 17.5874 20.9224C17.5874 21.6821 17.008 22.2551 16.2398 22.2551C15.7385 22.2551 15.5244 22.1269 14.7359 21.3545L14.0088 20.6423L13.4473 21.2012C12.809 21.8366 12.5753 21.957 11.9678 21.9631C10.4668 21.9784 9.19365 23.1062 8.9546 24.6322C8.69291 26.302 9.95058 27.9864 11.6035 28.1801C12.6045 28.2974 13.4666 28.0268 14.1802 27.3715C14.8071 26.7956 15.1475 26.032 15.1582 25.1769C15.1612 24.9343 15.2087 24.6258 15.2636 24.4913C15.3281 24.3333 16.3176 23.2885 18.0598 21.5388C20.2872 19.3018 20.7889 18.8309 20.9454 18.8309C21.1297 18.8309 21.2791 18.9919 21.2791 19.1903C21.2791 19.2393 20.4253 20.1379 19.3819 21.1873L17.4848 23.0952L19.4516 25.0684L21.4184 27.0417L23.6243 24.8286L25.8301 22.6155L25.5409 22.1703C25.0467 21.4092 24.9787 21.1065 24.655 18.2291C24.5799 17.5615 24.2905 17.098 23.3332 16.1131C22.1844 14.931 21.9497 14.816 21.4463 15.1885ZM14.9482 16.3429C14.7294 16.4646 14.5978 16.7127 14.5948 17.0096C14.5925 17.2285 14.7015 17.36 15.8254 18.4938C17.1744 19.8548 17.3445 19.9682 17.7492 19.7755C18.0138 19.6496 18.1447 19.4233 18.1447 19.0917C18.1447 18.8971 17.9847 18.7095 16.8366 17.5576C15.4398 16.1563 15.3675 16.1098 14.9482 16.3429ZM13.5189 18.2074C13.3971 18.3526 13.3385 18.505 13.3385 18.6771C13.3385 18.9144 13.4276 19.021 14.6466 20.244C15.7915 21.3927 15.982 21.5563 16.1744 21.5563C16.5391 21.5563 16.7503 21.4367 16.8629 21.1664C17.04 20.7412 16.9325 20.5791 15.5797 19.2295L14.3398 17.9924H14.0195C13.7473 17.9924 13.6721 18.0247 13.5189 18.2074ZM24.1099 25.32L21.4045 28.0349L21.5856 28.2166C21.6852 28.3165 21.7667 28.4312 21.7667 28.4714C21.7667 28.5212 22.8836 28.5444 25.2842 28.5444H28.8017V26.4829C28.8017 24.8922 28.7821 24.4214 28.7155 24.4214C28.6682 24.4214 28.2213 24.0127 27.7223 23.5132L26.8153 22.6051L24.1099 25.32ZM12.629 23.064C13.1533 23.2014 13.6349 23.3665 13.699 23.4308C13.8162 23.5485 14.3137 25.3213 14.3137 25.6213C14.3137 25.8288 12.8139 27.3558 12.6083 27.3577C12.336 27.3602 10.5161 26.8456 10.4058 26.7348C10.2959 26.6246 9.78237 24.7988 9.78488 24.5273C9.78683 24.3208 11.3069 22.8141 11.5134 22.8141C11.6026 22.8141 12.1046 22.9266 12.629 23.064ZM11.0594 24.0898L10.4904 24.666L10.6994 25.4327C10.8144 25.8545 10.9145 26.2043 10.922 26.2101C10.9294 26.2159 11.2803 26.3173 11.7017 26.4354L12.4679 26.65L13.0413 26.0773L13.6147 25.5046L13.4001 24.7257L13.1854 23.9468L12.5132 23.7618C12.1435 23.6601 11.7931 23.5626 11.7347 23.5452C11.6691 23.5256 11.4107 23.7339 11.0594 24.0898Z" fill="white"/>
<defs>
<filter id="filter0_dd_237_3" x="0.399329" y="0.142005" width="38.501" height="39.4478" filterUnits="userSpaceOnUse" color-interpolation-filters="sRGB">
<feFlood flood-opacity="0" result="BackgroundImageFix"/>
<feColorMatrix in="SourceAlpha" type="matrix" values="0 0 0 0 0 0 0 0 0 0 0 0 0 0 0 0 0 0 127 0" result="hardAlpha"/>
<feOffset dx="0.946746" dy="1.89349"/>
<feGaussianBlur stdDeviation="1.89349"/>
<feComposite in2="hardAlpha" operator="out"/>
<feColorMatrix type="matrix" values="0 0 0 0 0.192157 0 0 0 0 0.0235294 0 0 0 0 0.25098 0 0 0 0.16 0"/>
<feBlend mode="normal" in2="BackgroundImageFix" result="effect1_dropShadow_237_3"/>
<feColorMatrix in="SourceAlpha" type="matrix" values="0 0 0 0 0 0 0 0 0 0 0 0 0 0 0 0 0 0 127 0" result="hardAlpha"/>
<feOffset dx="-2.84024" dy="-2.84024"/>
<feGaussianBlur stdDeviation="0.946746"/>
<feComposite in2="hardAlpha" operator="out"/>
<feColorMatrix type="matrix" values="0 0 0 0 1 0 0 0 0 1 0 0 0 0 1 0 0 0 1 0"/>
<feBlend mode="normal" in2="effect1_dropShadow_237_3" result="effect2_dropShadow_237_3"/>
<feBlend mode="normal" in="SourceGraphic" in2="effect2_dropShadow_237_3" result="shape"/>
</filter>
</defs>
</svg>
