<svg width="15" height="15" viewBox="0 0 15 15" fill="none" xmlns="http://www.w3.org/2000/svg">
<g clip-path="url(#clip0_131_94)">
<path fill-rule="evenodd" clip-rule="evenodd" d="M2.16697 1.21129C2.36285 1.11335 7.45569 1.21129 8.43508 1.21129C8.92478 1.21129 9.2186 1.11335 9.51241 1.40717C9.80623 1.79892 9.70829 3.26801 9.70829 3.85565V11.4949C9.70829 12.3764 9.80623 13.4537 9.2186 13.6496C8.92478 13.7475 4.81133 13.6496 4.12576 13.6496C1.18758 13.6496 1.67727 13.9434 1.67727 11.0052V1.9948C1.67727 1.60304 1.77521 1.40717 2.16697 1.21129V1.21129ZM2.16697 0.329834C1.28552 0.525712 0.795822 1.11335 0.795822 1.9948V11.0052C0.795822 11.6908 0.697882 13.1599 0.9917 13.7475C1.4814 14.531 2.06903 14.531 3.2443 14.531C4.22369 14.531 8.63096 14.531 9.2186 14.531C10.0021 14.3351 10.4918 13.7475 10.4918 12.8661V3.85565C10.4918 3.17007 10.5897 1.70098 10.2959 1.11335C9.80623 0.329834 9.2186 0.329834 8.04333 0.329834C7.16187 0.329834 2.65667 0.329834 2.16697 0.329834V0.329834Z" fill="#464646"/>
<path fill-rule="evenodd" clip-rule="evenodd" d="M5.30106 7.57731C6.67221 7.38143 7.74954 8.45876 7.94542 9.5361C8.23924 11.0052 7.16191 12.0825 5.98664 12.2784C4.61549 12.4743 3.53816 11.4949 3.34228 10.3196C3.1464 8.94846 4.12579 7.87113 5.30106 7.57731ZM5.30106 6.7938C3.6361 6.98968 2.26495 8.45876 2.46083 10.3196C2.75464 11.8866 4.22373 13.3557 6.08458 13.0619C7.6516 12.866 9.02275 11.4949 8.82687 9.5361C8.63099 7.96907 7.16191 6.59792 5.30106 6.7938V6.7938Z" fill="#464646"/>
<path fill-rule="evenodd" clip-rule="evenodd" d="M5.49696 2.58249C7.16193 2.28868 7.45574 4.83509 5.88872 5.03097C5.1052 5.12891 4.51757 4.63922 4.41963 3.95364C4.32169 3.26807 4.81138 2.68043 5.49696 2.58249V2.58249ZM5.39902 1.79898C4.71344 1.89692 4.32169 2.0928 4.02787 2.48455C2.8526 4.05158 4.12581 6.1083 5.98666 5.81448C6.96605 5.71655 7.8475 4.73715 7.74956 3.46395C7.55368 2.48455 6.57429 1.6031 5.39902 1.79898V1.79898Z" fill="#464646"/>
<path fill-rule="evenodd" clip-rule="evenodd" d="M12.2546 5.61858C12.0588 5.12888 12.9402 4.933 13.0381 5.4227C13.1361 6.01033 12.3526 6.10827 12.2546 5.61858ZM13.0381 4.34537C11.0794 3.85567 10.8835 6.59797 12.5484 6.79385C13.332 6.79385 13.8217 6.20621 13.8217 5.52064C13.9196 4.73712 13.8217 3.56185 13.9196 2.87628C14.0175 2.97422 14.3114 3.07216 14.5072 3.1701C14.7031 3.1701 14.9969 2.97422 14.9969 2.77834C14.9969 2.38658 14.3114 2.1907 13.9196 1.99483C13.332 1.70101 13.0381 1.70101 13.0381 2.48452C13.0381 3.1701 13.0381 3.75773 13.0381 4.34537Z" fill="#464646"/>
<path fill-rule="evenodd" clip-rule="evenodd" d="M12.2546 13.3558C12.0588 12.8661 12.9402 12.6702 13.0381 13.1599C13.1361 13.7475 12.3526 13.8454 12.2546 13.3558ZM13.0381 12.0825C11.0794 11.5929 10.8835 14.3351 12.5484 14.531C13.332 14.531 13.8217 13.9434 13.8217 13.2578C13.9196 12.4743 13.8217 11.299 13.9196 10.6135C14.0175 10.7114 14.3114 10.9073 14.5072 10.9073C14.7031 10.9073 14.9969 10.8093 14.9969 10.5155C14.9969 10.1238 14.3114 9.92789 13.9196 9.73201C13.332 9.43819 13.0381 9.43819 13.0381 10.2217C13.0381 10.9073 13.0381 11.4949 13.0381 12.0825Z" fill="#464646"/>
<path fill-rule="evenodd" clip-rule="evenodd" d="M5.49687 9.24232C6.37833 9.04644 6.67214 10.4176 5.88863 10.6135C5.00718 10.8093 4.51748 9.53613 5.49687 9.24232V9.24232ZM5.30099 8.4588C4.61542 8.65468 3.92985 9.34025 4.22366 10.3196C4.61542 12.1805 7.5536 11.5929 7.16184 9.63407C6.96596 8.85056 6.18245 8.26292 5.30099 8.4588V8.4588Z" fill="#464646"/>
<path fill-rule="evenodd" clip-rule="evenodd" d="M5.49687 3.46392C5.00717 3.6598 5.30099 4.44332 5.88863 4.1495C6.28039 3.95362 6.08451 3.1701 5.49687 3.46392V3.46392Z" fill="#464646"/>
<path fill-rule="evenodd" clip-rule="evenodd" d="M2.75456 5.8145C2.65663 5.91244 2.55869 5.8145 2.55869 6.01038C2.36281 6.40213 2.65663 6.69595 3.04838 6.59801C3.53808 6.40213 3.24426 5.61862 2.75456 5.8145V5.8145Z" fill="#464646"/>
<path fill-rule="evenodd" clip-rule="evenodd" d="M8.33714 5.8145C8.04332 5.91244 7.94538 6.01038 8.04332 6.30419C8.04332 6.50007 8.33714 6.69595 8.53302 6.59801C9.02271 6.40213 8.82683 5.61862 8.33714 5.8145V5.8145Z" fill="#464646"/>
</g>
<defs>
<clipPath id="clip0_131_94">
<rect width="14.2012" height="14.2573" fill="white" transform="translate(0.795776 0.301758)"/>
</clipPath>
</defs>
</svg>
