<svg width="16" height="13" viewBox="0 0 16 13" fill="none" xmlns="http://www.w3.org/2000/svg">
<path fill-rule="evenodd" clip-rule="evenodd" d="M11.0941 0.440794C10.7349 0.52308 10.4419 0.650182 10.1424 0.853706C9.77784 1.10147 7.9537 2.93934 7.8949 3.11812C7.77842 3.47234 8.13093 3.82857 8.48264 3.71205C8.5795 3.67997 8.97229 3.32021 9.58303 2.70425C10.1054 2.17745 10.6091 1.69684 10.7024 1.63624C11.1517 1.34452 11.8493 1.27725 12.3789 1.47453C12.6247 1.56611 12.7542 1.66518 13.2063 2.10732C13.9172 2.80265 14.0479 3.05142 14.0479 3.70957C14.0479 4.47723 14.0474 4.4779 12.043 6.4843C10.0579 8.47148 10.0849 8.45189 9.32044 8.45275C8.67393 8.45341 8.42303 8.32255 7.74313 7.63007C7.05828 6.93244 6.97197 6.75094 6.96727 5.99797C6.96537 5.69642 6.94661 5.41138 6.92556 5.36451C6.86481 5.22916 6.62397 5.12728 6.44465 5.16108C6.19883 5.20733 6.0577 5.41381 6.01808 5.78519C5.91495 6.75171 6.25407 7.54673 7.13153 8.39568C7.93081 9.16901 8.44568 9.40672 9.32144 9.40672C9.95241 9.40672 10.3616 9.28625 10.8498 8.95681C11.3182 8.64078 14.3118 5.62601 14.5907 5.1895C14.8831 4.73196 14.997 4.31714 14.997 3.70957C14.997 2.80933 14.7104 2.21139 13.8976 1.41551C13.3977 0.926076 12.9799 0.644699 12.555 0.511257C12.1502 0.384156 11.482 0.351928 11.0941 0.440794ZM5.84151 3.78109C5.46634 3.87639 5.16922 4.01731 4.83247 4.25955C4.39574 4.57378 1.43625 7.5822 1.20149 7.95063C0.909449 8.40889 0.795776 8.82356 0.795776 9.43056C0.795776 10.3317 1.04744 10.8641 1.85764 11.6772C2.66784 12.4904 3.19835 12.743 4.09619 12.743C4.70227 12.743 5.11578 12.6284 5.57075 12.3345C5.97908 12.0708 7.82849 10.2329 7.89784 10.022C8.00771 9.68791 7.68004 9.33111 7.33784 9.41211C7.25428 9.43185 6.84144 9.80709 6.18629 10.4588C5.07887 11.5602 4.90206 11.6879 4.38624 11.7587C3.64895 11.8599 3.21098 11.6731 2.50899 10.9582C1.8556 10.2927 1.74582 10.0729 1.74582 9.43056C1.74582 8.66471 1.72663 8.69145 3.70662 6.69907C5.70575 4.68739 5.70642 4.68691 6.4713 4.68691C7.11914 4.68691 7.3698 4.81763 8.04961 5.51006C8.73146 6.20459 8.81763 6.38614 8.82451 7.14216C8.82727 7.44371 8.8466 7.72876 8.86746 7.77562C8.91619 7.88494 9.13831 8.00031 9.30006 8.00031C9.3791 8.00031 9.48423 7.94182 9.58265 7.84303C9.7177 7.70749 9.74411 7.64123 9.77375 7.36357C9.87731 6.39286 9.54645 5.60865 8.67232 4.75275C7.92045 4.0166 7.39641 3.76192 6.5663 3.72931C6.27217 3.71777 6.01979 3.73579 5.84151 3.78109Z" fill="#464646" stroke="#464646" stroke-width="0.284024"/>
</svg>
