<svg width="16" height="16" viewBox="0 0 16 16" fill="none" xmlns="http://www.w3.org/2000/svg">
<path fill-rule="evenodd" clip-rule="evenodd" d="M13.3552 6.63599C14.0119 6.5539 14.1761 6.38973 14.5044 6.22555V14.8448H14.094C14.094 12.3 13.7656 11.1508 13.6015 8.68818C13.5194 8.11357 13.3552 7.12852 13.3552 6.63599V6.63599ZM1.69874 14.8448H1.2883V6.22555C1.69874 6.47181 1.78083 6.5539 2.43753 6.71808C2.43753 7.04643 1.86292 11.8896 1.78083 12.7105C1.69874 13.4493 1.69874 14.106 1.69874 14.8448ZM1.2883 5.15841H14.5044V5.40467C14.5044 5.8972 13.5194 6.22555 13.1089 6.22555C11.6314 6.22555 11.6314 5.40467 11.1388 5.40467C10.8105 5.73302 10.6463 5.97929 10.0717 6.14346C9.25082 6.38973 8.59411 6.14346 8.0195 5.65094C7.52697 5.15841 7.60906 6.14346 6.21357 6.22555C4.81808 6.30764 4.73599 5.2405 4.32555 5.56885C4.07929 5.73302 4.07929 5.81511 3.75094 5.97929C2.60171 6.63599 1.2883 5.8972 1.2883 5.40467V5.15841V5.15841ZM4.98225 3.1883C5.3106 2.94204 7.77324 1.62863 7.93741 1.62863C8.0195 1.62863 10.5642 2.94204 10.8105 3.1883C11.3851 3.43457 11.7955 3.59874 12.2881 3.92709C12.7806 4.17336 13.3552 4.41962 13.7656 4.66588H2.02709L4.98225 3.1883V3.1883ZM7.85532 6.06137C8.18368 6.47181 8.84038 6.71808 9.57917 6.71808C10.5642 6.63599 10.8105 6.30764 11.2209 5.97929C11.4672 6.14346 11.7134 6.30764 11.9597 6.47181C12.206 6.5539 12.7806 6.63599 12.8627 6.71808L13.6015 13.3672C13.6015 13.9418 13.5194 14.8448 13.6836 15.3373C14.094 15.3373 14.5044 15.3373 14.9149 15.3373C14.997 15.1731 14.997 15.1731 14.997 15.0089V4.99423C14.997 4.74797 14.9149 4.74797 14.7507 4.58379C13.5194 4.00918 8.10159 1.13611 7.93741 1.13611C7.77324 1.13611 2.51962 3.845 1.53457 4.41962C0.877864 4.66588 0.795776 4.66588 0.795776 4.99423V15.0089C0.795776 15.1731 0.795776 15.1731 0.877864 15.3373C1.2883 15.3373 1.69874 15.3373 2.10918 15.3373C2.35544 14.7627 2.19127 13.6955 2.19127 13.0388C2.27336 12.3 2.35544 11.6433 2.43753 10.9046C2.60171 9.50906 2.76588 8.11357 2.93006 6.71808C3.50467 6.71808 4.07929 6.38973 4.40764 6.06137C4.6539 6.22555 4.81808 6.38973 5.14643 6.5539C5.88522 6.80016 6.78818 6.80016 7.44489 6.30764C7.60906 6.22555 7.69115 6.14346 7.85532 6.06137V6.06137Z" fill="#464646" stroke="#464646" stroke-width="0.473373" stroke-miterlimit="22.9256"/>
</svg>
