<svg width="15" height="15" viewBox="0 0 15 15" fill="none" xmlns="http://www.w3.org/2000/svg">
<path fill-rule="evenodd" clip-rule="evenodd" d="M5.32245 0.337776C3.99222 0.505338 2.49757 0.69271 2.00098 0.754157C1.50444 0.815604 1.06111 0.885484 1.01589 0.909466C0.783034 1.0328 0.795904 0.672242 0.795904 7.07068V12.9938L0.92562 13.1222L1.05534 13.2506H3.01138H4.96742V13.4636C4.96742 13.5808 4.98957 13.7395 5.01659 13.8163C5.11316 14.0904 5.05582 14.0851 7.89636 14.0851C10.7369 14.0851 10.6796 14.0904 10.7761 13.8163C10.8032 13.7395 10.8253 13.5808 10.8253 13.4636V13.2506H12.7813H14.7374L14.8671 13.1222L14.9968 12.9938V7.07068C14.9968 0.664249 15.0101 1.03306 14.7741 0.90806C14.6949 0.866071 8.6653 0.103539 8.0295 0.0550929C7.82407 0.0394566 7.04471 0.120844 5.32245 0.337776ZM11.0361 1.24464L14.1536 1.62707V2.08034V2.53357H7.89636H1.63908V2.081V1.62843L4.64568 1.25237C6.29929 1.04549 7.71219 0.873098 7.78542 0.869189C7.85864 0.865324 9.32147 1.03429 11.0361 1.24464ZM2.43789 3.78535V4.20261H2.03848H1.63908V3.78535V3.36809H2.03848H2.43789V3.78535ZM4.96742 3.78535V4.20261H4.70457C4.4865 4.20261 4.41843 4.22198 4.30517 4.31633C4.12797 4.46391 4.11546 4.7075 4.27566 4.89193L4.38266 5.01517L5.32538 5.02866C5.98527 5.03814 6.30657 5.02637 6.39644 4.98957C6.56401 4.92087 6.66976 4.718 6.63466 4.53273C6.5917 4.30601 6.4693 4.22954 6.11801 4.2099L5.8106 4.19269V3.78039V3.36809H7.89636H9.98212V3.78039V4.19269L9.67472 4.2099C9.32342 4.22954 9.20103 4.30601 9.15807 4.53273C9.12297 4.718 9.22872 4.92087 9.39629 4.98957C9.48616 5.02637 9.80745 5.03814 10.4674 5.02866L11.4101 5.01517L11.5171 4.89193C11.6773 4.7075 11.6648 4.46391 11.4876 4.31633C11.3743 4.22198 11.3062 4.20261 11.0882 4.20261H10.8253V3.78535V3.36809H11.6685H12.5117V6.66225V9.95641H7.89636H3.28106V6.66225V3.36809H4.12424H4.96742V3.78535ZM14.1536 3.78535V4.20261H13.7542H13.3548V3.78535V3.36809H13.7542H14.1536V3.78535ZM2.43789 5.43243V5.82773H2.03848H1.63908V5.43243V5.03713H2.03848H2.43789V5.43243ZM14.1536 5.43243V5.82773H13.7542H13.3548V5.43243V5.03713H13.7542H14.1536V5.43243ZM2.43789 7.07951V7.49677H2.03848H1.63908V7.07951V6.66225H2.03848H2.43789V7.07951ZM14.1536 7.07951V7.49677H13.7542H13.3548V7.07951V6.66225H13.7542H14.1536V7.07951ZM2.43789 8.72659V9.12189H2.03848H1.63908V8.72659V8.33129H2.03848H2.43789V8.72659ZM14.1536 8.72659V9.12189H13.7542H13.3548V8.72659V8.33129H13.7542H14.1536V8.72659ZM2.43789 10.3737V10.7909H2.03848H1.63908V10.3737V9.95641H2.03848H2.43789V10.3737ZM14.1536 10.3737V10.7909H13.7542H13.3548V10.3737V9.95641H13.7542H14.1536V10.3737ZM12.5117 11.6035V12.416H11.6685H10.8253V12.1942C10.8253 11.9499 10.7375 11.7404 10.6059 11.6707C10.5501 11.6411 9.6113 11.6255 7.89636 11.6255C6.18142 11.6255 5.24266 11.6411 5.18687 11.6707C5.0552 11.7404 4.96742 11.9499 4.96742 12.1942V12.416H4.12424H3.28106V11.6035V10.7909H7.89636H12.5117V11.6035ZM2.43789 12.0207V12.416H2.03848H1.63908V12.0207V11.6255H2.03848H2.43789V12.0207ZM14.1536 12.0207V12.416H13.7542H13.3548V12.0207V11.6255H13.7542H14.1536V12.0207ZM9.98212 12.8553V13.2506H7.89636H5.8106V12.8553V12.46H7.89636H9.98212V12.8553Z" fill="#464646"/>
</svg>
