<svg width="15" height="17" viewBox="0 0 15 17" fill="none" xmlns="http://www.w3.org/2000/svg">
<mask id="path-1-inside-1_131_30" fill="white">
<path fill-rule="evenodd" clip-rule="evenodd" d="M3.81898 1.02371L3.66394 1.15393V5.16437V9.17476L3.79379 9.29672C3.91728 9.41271 3.96303 9.41985 4.73036 9.44379L5.53709 9.46894L3.65578 10.2706C0.921228 11.4359 0.959874 11.4171 0.856835 11.6328C0.773245 11.8077 0.773748 11.822 0.869079 11.9958C0.956045 12.1543 1.04614 12.2103 1.59811 12.4493C1.94452 12.5993 2.23605 12.73 2.24598 12.7397C2.2559 12.7494 2.17655 12.7939 2.06963 12.8385C1.07627 13.2526 0.931507 13.332 0.860715 13.5011C0.776923 13.7013 0.81053 13.8737 0.959975 14.0104C1.08735 14.127 7.75725 16.9882 7.90161 16.9882C8.04717 16.9882 14.7062 14.1282 14.8328 14.0114C14.9821 13.8735 15.0158 13.7012 14.9326 13.5024C14.8721 13.3578 14.792 13.3039 14.3397 13.1027C14.052 12.9748 13.7512 12.8454 13.6712 12.8153C13.5911 12.7852 13.5347 12.7514 13.5458 12.7404C13.5568 12.7294 13.849 12.5989 14.1952 12.4506C14.752 12.2119 14.8359 12.1599 14.9237 11.9979C15.019 11.8221 15.0195 11.8077 14.9359 11.6328C14.8329 11.4171 14.8715 11.4359 12.137 10.2706L10.2556 9.46894L11.0624 9.44379C11.8297 9.41985 11.8755 9.41271 11.9989 9.29672L12.1288 9.17476V5.16437V1.15393L11.9738 1.02371L11.8188 0.893494H7.89637H3.97397L3.81898 1.02371ZM11.2218 5.16623V8.48334L9.93816 8.49833L8.65453 8.51332L8.27542 8.88928L7.89637 9.26524L7.51731 8.88928L7.13821 8.51332L5.85458 8.49833L4.57089 8.48334V5.16623V1.84911H7.89637H11.2218V5.16623ZM7.31219 3.17532C6.60195 3.91004 5.96945 4.80048 5.70029 5.44472C5.57927 5.73442 5.55352 5.8671 5.55407 6.1992C5.55463 6.55585 5.57262 6.63391 5.71057 6.87875C5.96049 7.32221 6.28412 7.47536 7.15317 7.56142L7.44289 7.59009V7.90655C7.44289 8.18136 7.46038 8.24041 7.57571 8.35559C7.75856 8.53806 8.03417 8.53806 8.21702 8.35559C8.33236 8.24041 8.34984 8.18136 8.34984 7.90655V7.59009L8.63956 7.56142C9.50862 7.47536 9.83225 7.32221 10.0822 6.87875C10.2201 6.63391 10.2381 6.55585 10.2387 6.1992C10.2392 5.8671 10.2135 5.73442 10.0924 5.44472C9.82328 4.80048 9.19078 3.91004 8.48054 3.17532C8.13998 2.82299 8.11121 2.80474 7.89637 2.80474C7.68152 2.80474 7.65275 2.82299 7.31219 3.17532ZM8.26101 4.34439C9.12453 5.39201 9.47038 6.13377 9.24122 6.44656C9.17179 6.54132 8.85688 6.62134 8.53879 6.62501L8.34984 6.62722V6.27963C8.34984 5.95321 8.34037 5.92409 8.1948 5.80182C8.10749 5.72848 7.97714 5.6716 7.89637 5.6716C7.8156 5.6716 7.68525 5.72848 7.59793 5.80182C7.45237 5.92409 7.44289 5.95321 7.44289 6.27963V6.62722L7.25395 6.62501C6.93586 6.62134 6.62095 6.54132 6.55152 6.44656C6.38655 6.22138 6.53942 5.71204 6.95213 5.11141C7.28453 4.62776 7.83157 3.96154 7.89637 3.96154C7.92337 3.96154 8.08748 4.1338 8.26101 4.34439ZM7.42929 10.1091C7.66091 10.3374 7.72233 10.372 7.89637 10.372C8.0704 10.372 8.13182 10.3374 8.36345 10.1091C8.51012 9.96445 8.65614 9.84616 8.68793 9.84616C8.75046 9.84616 9.71178 10.245 9.77229 10.296C9.79255 10.3131 9.37873 10.5409 8.85275 10.8023L7.89637 11.2775L6.94115 10.8028C6.41572 10.5417 5.99586 10.3182 6.00805 10.3061C6.05204 10.2622 7.01643 9.85627 7.08863 9.85129C7.12929 9.84847 7.28262 9.96445 7.42929 10.1091ZM5.805 11.2916C6.34559 11.5609 6.78788 11.7932 6.78788 11.8077C6.78788 11.8222 6.3479 12.0533 5.81013 12.3213L4.83244 12.8085L3.83248 12.3793C3.28252 12.1432 2.75397 11.9171 2.65793 11.8769L2.48325 11.8037L3.64046 11.3053C4.27689 11.0312 4.80317 10.8058 4.80987 10.8043C4.81662 10.8029 5.26445 11.0222 5.805 11.2916ZM12.2051 11.3265L13.3129 11.8017L13.1365 11.8759C13.0395 11.9167 12.5102 12.1432 11.9603 12.3793L10.9603 12.8085L9.9826 12.3213C9.44483 12.0533 9.00486 11.8222 9.00486 11.8077C9.00486 11.7523 10.9486 10.8096 11.021 10.8299C11.0629 10.8417 11.5958 11.0651 12.2051 11.3265ZM8.89588 12.8313L9.8198 13.2964L8.85879 13.7063L7.89773 14.1163L6.93611 13.706L5.97449 13.2955L6.89762 12.8309C7.40536 12.5754 7.8548 12.3663 7.89637 12.3663C7.93794 12.3663 8.38773 12.5756 8.89588 12.8313ZM5.63857 14.1791C6.8111 14.6811 7.82709 15.0921 7.89637 15.0922C7.96565 15.0924 8.98551 14.6802 10.1627 14.1763L12.3032 13.2601L12.7974 13.4708C13.0692 13.5867 13.2851 13.6873 13.277 13.6944C13.2399 13.7276 7.93713 15.9823 7.89637 15.9823C7.85591 15.9823 2.55308 13.7277 2.516 13.6948C2.50073 13.6812 3.41377 13.2751 3.47197 13.2696C3.49112 13.2677 4.46609 13.677 5.63857 14.1791Z"/>
</mask>
<path fill-rule="evenodd" clip-rule="evenodd" d="M3.81898 1.02371L3.66394 1.15393V5.16437V9.17476L3.79379 9.29672C3.91728 9.41271 3.96303 9.41985 4.73036 9.44379L5.53709 9.46894L3.65578 10.2706C0.921228 11.4359 0.959874 11.4171 0.856835 11.6328C0.773245 11.8077 0.773748 11.822 0.869079 11.9958C0.956045 12.1543 1.04614 12.2103 1.59811 12.4493C1.94452 12.5993 2.23605 12.73 2.24598 12.7397C2.2559 12.7494 2.17655 12.7939 2.06963 12.8385C1.07627 13.2526 0.931507 13.332 0.860715 13.5011C0.776923 13.7013 0.81053 13.8737 0.959975 14.0104C1.08735 14.127 7.75725 16.9882 7.90161 16.9882C8.04717 16.9882 14.7062 14.1282 14.8328 14.0114C14.9821 13.8735 15.0158 13.7012 14.9326 13.5024C14.8721 13.3578 14.792 13.3039 14.3397 13.1027C14.052 12.9748 13.7512 12.8454 13.6712 12.8153C13.5911 12.7852 13.5347 12.7514 13.5458 12.7404C13.5568 12.7294 13.849 12.5989 14.1952 12.4506C14.752 12.2119 14.8359 12.1599 14.9237 11.9979C15.019 11.8221 15.0195 11.8077 14.9359 11.6328C14.8329 11.4171 14.8715 11.4359 12.137 10.2706L10.2556 9.46894L11.0624 9.44379C11.8297 9.41985 11.8755 9.41271 11.9989 9.29672L12.1288 9.17476V5.16437V1.15393L11.9738 1.02371L11.8188 0.893494H7.89637H3.97397L3.81898 1.02371ZM11.2218 5.16623V8.48334L9.93816 8.49833L8.65453 8.51332L8.27542 8.88928L7.89637 9.26524L7.51731 8.88928L7.13821 8.51332L5.85458 8.49833L4.57089 8.48334V5.16623V1.84911H7.89637H11.2218V5.16623ZM7.31219 3.17532C6.60195 3.91004 5.96945 4.80048 5.70029 5.44472C5.57927 5.73442 5.55352 5.8671 5.55407 6.1992C5.55463 6.55585 5.57262 6.63391 5.71057 6.87875C5.96049 7.32221 6.28412 7.47536 7.15317 7.56142L7.44289 7.59009V7.90655C7.44289 8.18136 7.46038 8.24041 7.57571 8.35559C7.75856 8.53806 8.03417 8.53806 8.21702 8.35559C8.33236 8.24041 8.34984 8.18136 8.34984 7.90655V7.59009L8.63956 7.56142C9.50862 7.47536 9.83225 7.32221 10.0822 6.87875C10.2201 6.63391 10.2381 6.55585 10.2387 6.1992C10.2392 5.8671 10.2135 5.73442 10.0924 5.44472C9.82328 4.80048 9.19078 3.91004 8.48054 3.17532C8.13998 2.82299 8.11121 2.80474 7.89637 2.80474C7.68152 2.80474 7.65275 2.82299 7.31219 3.17532ZM8.26101 4.34439C9.12453 5.39201 9.47038 6.13377 9.24122 6.44656C9.17179 6.54132 8.85688 6.62134 8.53879 6.62501L8.34984 6.62722V6.27963C8.34984 5.95321 8.34037 5.92409 8.1948 5.80182C8.10749 5.72848 7.97714 5.6716 7.89637 5.6716C7.8156 5.6716 7.68525 5.72848 7.59793 5.80182C7.45237 5.92409 7.44289 5.95321 7.44289 6.27963V6.62722L7.25395 6.62501C6.93586 6.62134 6.62095 6.54132 6.55152 6.44656C6.38655 6.22138 6.53942 5.71204 6.95213 5.11141C7.28453 4.62776 7.83157 3.96154 7.89637 3.96154C7.92337 3.96154 8.08748 4.1338 8.26101 4.34439ZM7.42929 10.1091C7.66091 10.3374 7.72233 10.372 7.89637 10.372C8.0704 10.372 8.13182 10.3374 8.36345 10.1091C8.51012 9.96445 8.65614 9.84616 8.68793 9.84616C8.75046 9.84616 9.71178 10.245 9.77229 10.296C9.79255 10.3131 9.37873 10.5409 8.85275 10.8023L7.89637 11.2775L6.94115 10.8028C6.41572 10.5417 5.99586 10.3182 6.00805 10.3061C6.05204 10.2622 7.01643 9.85627 7.08863 9.85129C7.12929 9.84847 7.28262 9.96445 7.42929 10.1091ZM5.805 11.2916C6.34559 11.5609 6.78788 11.7932 6.78788 11.8077C6.78788 11.8222 6.3479 12.0533 5.81013 12.3213L4.83244 12.8085L3.83248 12.3793C3.28252 12.1432 2.75397 11.9171 2.65793 11.8769L2.48325 11.8037L3.64046 11.3053C4.27689 11.0312 4.80317 10.8058 4.80987 10.8043C4.81662 10.8029 5.26445 11.0222 5.805 11.2916ZM12.2051 11.3265L13.3129 11.8017L13.1365 11.8759C13.0395 11.9167 12.5102 12.1432 11.9603 12.3793L10.9603 12.8085L9.9826 12.3213C9.44483 12.0533 9.00486 11.8222 9.00486 11.8077C9.00486 11.7523 10.9486 10.8096 11.021 10.8299C11.0629 10.8417 11.5958 11.0651 12.2051 11.3265ZM8.89588 12.8313L9.8198 13.2964L8.85879 13.7063L7.89773 14.1163L6.93611 13.706L5.97449 13.2955L6.89762 12.8309C7.40536 12.5754 7.8548 12.3663 7.89637 12.3663C7.93794 12.3663 8.38773 12.5756 8.89588 12.8313ZM5.63857 14.1791C6.8111 14.6811 7.82709 15.0921 7.89637 15.0922C7.96565 15.0924 8.98551 14.6802 10.1627 14.1763L12.3032 13.2601L12.7974 13.4708C13.0692 13.5867 13.2851 13.6873 13.277 13.6944C13.2399 13.7276 7.93713 15.9823 7.89637 15.9823C7.85591 15.9823 2.55308 13.7277 2.516 13.6948C2.50073 13.6812 3.41377 13.2751 3.47197 13.2696C3.49112 13.2677 4.46609 13.677 5.63857 14.1791Z" fill="#464646" stroke="#F8F8F8" stroke-width="0.189349" mask="url(#path-1-inside-1_131_30)"/>
</svg>
