<svg width="16" height="15" viewBox="0 0 16 15" fill="none" xmlns="http://www.w3.org/2000/svg">
<path fill-rule="evenodd" clip-rule="evenodd" d="M6.65784 4.05465C6.65784 4.13721 7.40092 4.8803 7.48349 4.96286C7.81375 5.21056 8.14401 5.54082 8.3917 5.78851C8.72196 6.11877 8.6394 5.95364 8.55683 6.44903L8.22657 8.67829C8.22657 9.17368 8.80453 8.76085 9.05222 8.59572L10.8687 7.68751C10.8687 7.68751 12.1897 8.34803 12.3548 8.43059C12.6025 8.51316 13.1805 8.92598 13.3456 8.92598C13.6759 8.92598 13.5107 8.43059 13.4282 8.26546L13.0979 6.03621C13.263 5.87108 14.4189 4.71517 14.5841 4.55004C14.7492 4.38491 14.9969 4.21978 14.9969 3.97208C14.9969 3.80695 14.5841 3.80695 14.4189 3.72439C14.1713 3.72439 13.9236 3.72439 13.6759 3.64182C13.4282 3.64182 12.4374 3.47669 12.1897 3.47669L11.1163 1.16487C11.0338 0.99974 11.0338 0.917175 10.7861 0.917175C10.7035 0.917175 10.2907 1.90796 10.1256 2.07309L9.54761 3.31156C9.46505 3.47669 9.38248 3.47669 8.88709 3.55926C8.6394 3.55926 8.3917 3.64182 8.06144 3.64182C7.81375 3.72439 7.56605 3.72439 7.31836 3.72439C7.07066 3.80695 6.65784 3.80695 6.65784 4.05465V4.05465Z" stroke="#464646" stroke-width="0.946746" stroke-miterlimit="22.9256"/>
<path fill-rule="evenodd" clip-rule="evenodd" d="M0.795776 13.467C0.795776 14.1275 1.37373 13.5496 1.78656 13.2193L2.52964 12.7239C2.69477 12.5588 2.8599 12.3937 3.02503 12.3111L4.01581 13.467C4.09838 13.5496 4.26351 13.7973 4.42864 13.7973C4.67633 13.7973 4.59377 13.2193 4.67633 12.6414L4.92403 11.4855C5.08916 10.6598 5.33685 9.99928 5.66711 9.33876C5.74968 9.17363 5.83224 9.0085 5.91481 8.92594C6.4102 8.10029 6.98815 7.6049 7.8138 7.10951C8.0615 7.02694 8.0615 7.10951 8.14406 6.77925C8.14406 6.61412 8.22663 6.28386 8.22663 6.11873C8.0615 6.11873 7.31841 5.21051 7.23585 5.21051C7.07072 5.21051 5.83224 5.7059 5.58455 5.87103C5.25429 6.03616 5.08916 6.11873 4.7589 6.36642C2.44708 7.85259 1.29117 9.99928 0.878341 12.5588C0.878341 12.8065 0.795776 13.1368 0.795776 13.467V13.467Z" stroke="#464646" stroke-width="0.946746" stroke-miterlimit="22.9256"/>
<path fill-rule="evenodd" clip-rule="evenodd" d="M11.942 9.66904V10.4121C11.6118 10.4121 11.0338 10.3296 11.0338 10.5773C11.0338 10.9075 11.5292 10.8249 11.942 10.8249C11.942 11.4029 11.8595 11.7332 12.1897 11.7332C12.52 11.7332 12.3549 11.4029 12.3549 10.8249C12.7677 10.8249 13.2631 10.9075 13.2631 10.6598C13.2631 10.3296 12.8502 10.4121 12.3549 10.4121C12.3549 9.66904 12.4374 9.50391 12.1072 9.50391C12.0246 9.50391 11.942 9.58647 11.942 9.66904Z" fill="#464646" stroke="#464646" stroke-width="0.284024"/>
<path fill-rule="evenodd" clip-rule="evenodd" d="M2.86 2.65103V3.39412C2.44717 3.39412 1.95178 3.31155 1.95178 3.55925C1.95178 3.88951 2.28204 3.80694 2.86 3.80694C2.86 4.21977 2.77743 4.71516 3.02513 4.71516C3.35539 4.71516 3.27282 4.21977 3.27282 3.80694C3.76821 3.80694 4.18104 3.88951 4.18104 3.55925C4.18104 3.31155 3.60308 3.39412 3.27282 3.39412C3.27282 2.81616 3.35539 2.4859 3.02513 2.4859C2.94256 2.4859 2.86 2.56847 2.86 2.65103V2.65103Z" fill="#464646" stroke="#464646" stroke-width="0.284024"/>
<path fill-rule="evenodd" clip-rule="evenodd" d="M5.41948 1.4126V1.74286C5.08922 1.74286 4.67639 1.74286 4.67639 1.99055C4.67639 2.23825 5.08922 2.23825 5.41948 2.23825C5.41948 2.40338 5.33691 2.89877 5.58461 2.89877C5.91487 2.89877 5.8323 2.56851 5.8323 2.23825C6.08 2.23825 6.49282 2.32081 6.49282 1.99055C6.49282 1.74286 6.16256 1.74286 5.8323 1.74286C5.8323 1.49516 5.91487 1.08234 5.58461 1.08234C5.41948 1.08234 5.41948 1.24747 5.41948 1.4126Z" fill="#464646" stroke="#464646" stroke-width="0.284024"/>
<path fill-rule="evenodd" clip-rule="evenodd" d="M8.14409 10.247V10.7423C7.73126 10.7423 7.401 10.6598 7.401 10.9075C7.401 11.2377 7.73126 11.1552 8.14409 11.1552C8.14409 11.6506 8.06152 11.8157 8.39178 11.8157C8.55691 11.8157 8.55691 11.3203 8.55691 11.1552C8.80461 11.1552 9.21743 11.2377 9.21743 10.9075C9.21743 10.6598 8.80461 10.7423 8.55691 10.7423C8.55691 10.4947 8.55691 10.0818 8.39178 10.0818C8.30922 9.99926 8.14409 10.0818 8.14409 10.247Z" fill="#464646" stroke="#464646" stroke-width="0.284024"/>
</svg>
