<svg width="15" height="16" viewBox="0 0 15 16" fill="none" xmlns="http://www.w3.org/2000/svg">
<path fill-rule="evenodd" clip-rule="evenodd" d="M3.18083 2.52537C3.18083 3.62791 3.16868 4.52999 3.15386 4.52999C3.13904 4.52999 3.08444 4.50749 3.03255 4.48C2.98067 4.4525 2.8201 4.41099 2.67583 4.38774C2.13944 4.30132 1.5795 4.5033 1.20139 4.91964C0.619776 5.56004 0.669995 6.59249 1.31121 7.17765C1.64983 7.48664 1.88996 7.5722 2.4185 7.57225C2.81786 7.5723 2.9031 7.55673 3.14285 7.44023C3.48304 7.27481 3.81123 6.92002 3.94059 6.57772C4.0344 6.32953 4.03845 6.2235 4.03845 4.00936C4.03845 2.73918 4.05455 1.70074 4.07418 1.70169C4.11888 1.70386 4.73922 2.45415 4.86324 2.65612C5.02924 2.92634 5.09881 3.25312 5.07713 3.66145C5.0604 3.97714 5.02715 4.10506 4.88483 4.40174L4.71278 4.76045L5.07837 4.94002C5.27948 5.03879 5.45905 5.12633 5.47745 5.13454C5.52071 5.15392 5.76246 4.67484 5.87776 4.34132C5.94518 4.14633 5.96743 3.94719 5.96748 3.53947C5.96753 2.64315 5.84594 2.38934 4.85162 1.21034L4.27001 0.520752H3.72542H3.18083V2.52537ZM11.2495 0.569287C10.9124 0.629284 10.5416 0.772296 10.2093 0.9704L9.92984 1.137L9.75784 0.970683L9.58579 0.80437L9.27976 1.11006L8.97373 1.41576L9.12658 1.57188C9.21068 1.65777 9.27948 1.74862 9.27948 1.77376C9.27948 1.79895 9.22973 1.89347 9.16899 1.98379C8.99756 2.23859 8.80616 2.72909 8.74156 3.07912C8.67461 3.44174 9.00661 3.0129 5.52014 7.24043C4.33809 8.67376 3.64833 9.54947 3.57143 9.7146C3.41848 10.0429 3.40143 10.5318 3.53131 10.8652L3.61974 11.0921L2.81348 11.9028C1.9378 12.7833 1.79334 12.9939 1.69828 13.5281C1.52233 14.5169 2.32192 15.5147 3.35759 15.5986C3.73442 15.6291 4.12345 15.5438 4.43153 15.363C4.54292 15.2976 6.00622 14.0615 7.68335 12.6161C9.36047 11.1707 10.8149 9.92841 10.9153 9.85554C11.1349 9.69621 11.4464 9.64026 11.6832 9.71767C12.1814 9.88044 12.4558 10.4438 12.2612 10.9047C12.2241 10.9927 11.6875 11.6056 11.069 12.2665C9.81587 13.6055 9.70829 13.7609 9.70829 14.2312C9.70829 14.7763 9.98411 15.2269 10.4592 15.4579L10.7327 15.5908L12.8648 15.606L14.997 15.6212V15.1697V14.7182L12.9839 14.7175C11.4763 14.717 10.941 14.702 10.8518 14.6581C10.6807 14.5739 10.5506 14.2924 10.6106 14.1362C10.6496 14.0348 11.2881 13.3282 12.6141 11.9194C13.0788 11.4257 13.2719 10.9392 13.2155 10.4046C13.1796 10.0646 12.9741 9.61064 12.74 9.3541C12.2549 8.82252 11.3151 8.65432 10.6511 8.98025C10.4844 9.06209 9.31421 10.0368 7.19269 11.861C5.07451 13.6822 3.92848 14.6369 3.81618 14.6736C3.56471 14.7557 3.21599 14.7066 2.9872 14.5567C2.71395 14.3777 2.53813 13.9988 2.58492 13.6898C2.60327 13.5686 2.64691 13.4161 2.68193 13.3509C2.7169 13.2857 3.08554 12.8975 3.50115 12.4881L4.25676 11.7438L4.4533 11.8125C4.90127 11.969 5.33841 11.951 5.7466 11.7592C5.84017 11.7152 7.30004 10.5589 8.99079 9.18948C11.2581 7.35311 12.0966 6.6997 12.1859 6.6997C12.4992 6.6997 13.1703 6.45325 13.602 6.17972C13.6999 6.11775 13.7207 6.12492 13.8766 6.27448L14.0452 6.43636L14.354 6.13341L14.6628 5.83045L14.499 5.66366L14.3351 5.49693L14.4957 5.23751C14.7512 4.82479 14.9114 4.2934 14.9365 3.77531C14.9813 2.85276 14.6822 2.08714 14.0242 1.44042C13.6066 1.02993 13.2733 0.82918 12.7338 0.663198C12.3539 0.546317 11.6341 0.500753 11.2495 0.569287ZM12.4786 1.50957C13.1903 1.7273 13.7365 2.27392 13.9563 2.98823C14.089 3.41943 14.0651 4.05568 13.9021 4.43566C13.6952 4.9178 13.8331 5.0045 12.1375 3.32651C11.2993 2.49707 10.6136 1.80291 10.6136 1.78399C10.6136 1.76503 10.6832 1.71352 10.7684 1.66947C11.2733 1.40849 11.9434 1.34581 12.4786 1.50957ZM13.0435 5.47872C13.0435 5.54117 12.4498 5.75904 12.1428 5.80922C11.3233 5.94323 10.3987 5.52707 9.94066 4.81814C9.69171 4.43278 9.60023 4.06228 9.6209 3.52363C9.6371 3.102 9.65807 3.00469 9.79491 2.71631L9.95052 2.3884L11.497 3.9188C12.3476 4.76055 13.0435 5.46249 13.0435 5.47872ZM8.98703 4.93186C9.28739 5.56721 9.81811 6.10124 10.4468 6.40066C10.6302 6.48801 10.7701 6.57508 10.7576 6.59423C10.7146 6.66008 5.68175 10.7281 5.45114 10.8835C5.17513 11.0693 4.96592 11.084 4.70006 10.9361C4.46145 10.8033 4.30055 10.4948 4.3411 10.2476C4.37664 10.0307 4.29145 10.1419 6.1543 7.87889C7.01912 6.82823 7.97427 5.66659 8.27677 5.2975C8.57932 4.92837 8.83018 4.62593 8.83428 4.62537C8.83833 4.6248 8.90708 4.76272 8.98703 4.93186ZM2.83654 5.38755C3.13971 5.57202 3.24839 5.96573 3.08716 6.29543C2.94817 6.5797 2.74454 6.6997 2.40111 6.6997C2.15997 6.6997 2.11371 6.68253 1.94261 6.52952C1.60604 6.2285 1.58751 5.78441 1.89868 5.47636C2.15311 5.22449 2.51264 5.19043 2.83654 5.38755ZM8.32618 6.44065L8.01868 6.74781L8.33938 7.0653L8.66008 7.38273L8.97021 7.07577L9.28033 6.76875L8.95701 6.45113L8.63369 6.1335L8.32618 6.44065Z" fill="#464646"/>
</svg>
