<svg width="15" height="15" viewBox="0 0 15 15" fill="none" xmlns="http://www.w3.org/2000/svg">
<path fill-rule="evenodd" clip-rule="evenodd" d="M7.07971 0.414705C5.27983 0.64327 3.60378 1.54728 2.47716 2.89718C1.66835 3.8663 1.10183 5.07495 0.880422 6.30385C0.758898 6.97835 0.769941 8.29054 0.902509 8.92358C1.44289 11.5047 3.25756 13.5686 5.68301 14.3605C6.37577 14.5867 6.69029 14.6378 7.03006 14.5792C7.78601 14.449 8.32358 13.901 8.43148 13.1505C8.45584 12.9808 8.47619 12.3146 8.47668 11.67L8.47757 10.4981L8.6223 10.4678C8.87545 10.4149 9.38181 10.1448 9.64481 9.92239C9.94374 9.66955 10.1587 9.39441 10.3443 9.02707C10.5727 8.57518 10.6137 8.29623 10.6144 7.18762L10.615 6.1906L10.4631 6.02383C10.3152 5.86154 10.3015 5.85662 9.95096 5.84058L9.59084 5.82415V5.04298C9.59084 4.17914 9.56087 4.0538 9.32512 3.93118C9.25325 3.89384 9.11302 3.86325 9.0135 3.86325C8.86957 3.86325 8.79846 3.8946 8.66616 4.01645L8.49984 4.16965L8.48594 5.00165L8.47205 5.83364H7.91818H7.36431V5.04773C7.36431 4.17874 7.3346 4.05393 7.09859 3.93118C7.02672 3.89384 6.88649 3.86325 6.78697 3.86325C6.64304 3.86325 6.57193 3.8946 6.43963 4.01645L6.2733 4.16965L6.25941 5.00165L6.24552 5.83364H5.92089C5.53387 5.83364 5.32609 5.94354 5.24046 6.19346C5.16093 6.42566 5.16632 7.8902 5.2483 8.32628C5.43119 9.29921 6.14911 10.119 7.08599 10.4249L7.31978 10.5012V11.7991C7.31978 13.2402 7.31127 13.2871 7.02556 13.4234C6.838 13.5129 6.78897 13.5101 6.31784 13.3828C4.13334 12.7922 2.48562 11.0066 1.99409 8.6973C1.88454 8.18262 1.88263 7.00088 1.99044 6.45244C2.47043 4.01116 4.29962 2.13629 6.70819 1.61687C7.36092 1.47607 8.44048 1.47702 9.09909 1.61888C10.2987 1.87732 11.2475 2.39701 12.1332 3.28069C13.0061 4.15151 13.5367 5.13998 13.8044 6.39341C13.9104 6.88955 13.9109 8.22445 13.8054 8.69967C13.6072 9.59221 13.2202 10.4739 12.7342 11.1403C12.1836 11.8952 11.3458 12.5943 10.5113 12.9953C10.0663 13.209 9.94325 13.3321 9.9172 13.5893C9.89227 13.8359 10.0193 14.0522 10.2447 14.147C10.4619 14.2382 10.61 14.2039 11.1153 13.9452C13.051 12.9541 14.4223 11.1447 14.8743 8.98533C14.9805 8.47773 14.9952 8.30658 14.9969 7.55774C14.9985 6.84867 14.9821 6.62292 14.8984 6.20287C14.3152 3.27258 12.1527 1.0961 9.23459 0.502432C8.70731 0.395135 7.59137 0.349727 7.07971 0.414705ZM9.50178 7.52738C9.50178 8.16095 9.44594 8.40756 9.23027 8.72632C8.42886 9.91092 6.6438 9.53973 6.34562 8.12651C6.3181 7.99597 6.29557 7.6786 6.29557 7.4212V6.95319H7.89867H9.50178V7.52738Z" fill="#464646"/>
</svg>
