<svg width="15" height="20" viewBox="0 0 15 20" fill="none" xmlns="http://www.w3.org/2000/svg">
<g clip-path="url(#clip0_131_91)">
<path fill-rule="evenodd" clip-rule="evenodd" d="M8.52395 3.78002H11.3481L9.15153 7.54551C8.99464 8.0162 8.68084 8.48689 8.52395 8.80068V3.78002V3.78002ZM7.42568 8.80068C7.26878 8.64378 7.11189 8.32999 6.95499 8.1731C6.7981 8.0162 6.7981 7.70241 6.6412 7.54551L4.44466 3.78002H7.42568V8.80068ZM2.24812 1.58348C2.40502 1.58348 13.3877 1.58348 13.5446 1.58348C14.0153 1.74037 14.0153 2.52485 13.5446 2.68175C13.3877 2.68175 2.56191 2.68175 2.24812 2.68175C1.77743 2.52485 1.77743 1.74037 2.24812 1.58348ZM3.1895 3.78002C3.66018 4.56449 7.26878 10.8403 7.26878 10.9972L3.50329 17.5868C3.34639 17.9006 3.34639 18.0575 3.1895 18.0575C2.56191 18.0575 2.09123 17.9006 1.93433 18.5282C1.77743 19.1558 2.56191 19.1558 3.0326 19.1558C4.13087 19.1558 3.81708 19.1558 4.75845 17.4299C5.22914 16.6455 5.69983 16.0179 6.17051 15.2334C6.32741 14.7627 7.11189 13.3507 7.42568 13.0369V17.9006C7.42568 18.5282 7.26878 19.1558 7.89637 19.1558C8.52395 19.1558 8.52395 18.5282 8.52395 18.0575V13.0369C8.68084 13.1938 11.1912 17.7437 11.6619 18.5282C11.9757 19.1558 11.9757 19.1558 12.7601 19.1558C13.2308 19.1558 14.0153 19.1558 13.8584 18.5282C13.8584 17.9006 13.2308 18.0575 12.7601 18.0575C12.6032 18.0575 12.6032 17.9006 12.4463 17.5868L8.52395 10.9972C8.52395 10.8403 10.2498 7.8593 10.5636 7.38862C11.1912 6.13345 11.9757 5.03518 12.6032 3.78002C13.2308 3.78002 14.3291 3.93691 14.7998 2.83864C15.2705 1.89727 14.7998 0.955895 14.1722 0.642103C13.5446 0.328312 6.32741 0.485208 4.75845 0.485208C3.97397 0.485208 2.24812 0.328312 1.77743 0.642103C0.522268 1.26969 0.522268 2.99554 1.77743 3.62312C2.24812 3.93691 2.71881 3.78002 3.1895 3.78002V3.78002Z" fill="#464646"/>
</g>
<defs>
<clipPath id="clip0_131_91">
<rect width="14.2012" height="18.6706" fill="white" transform="translate(0.795776 0.485229)"/>
</clipPath>
</defs>
</svg>
