<svg width="15" height="14" viewBox="0 0 15 14" fill="none" xmlns="http://www.w3.org/2000/svg">
<path d="M4.69707 0.999435L4.69706 0.999438C4.40412 1.07151 4.16694 1.26043 4.01959 1.54307C3.95329 1.67029 3.91917 1.83973 3.9217 2.01654C3.92422 2.19303 3.96318 2.36879 4.03481 2.5076C4.19223 2.81252 4.48166 3.15775 4.81845 3.43737L4.75797 3.51021L4.81845 3.43737C4.90055 3.50554 4.97573 3.57211 5.03094 3.62478C5.05835 3.65093 5.08202 3.67478 5.0994 3.69428C5.10791 3.70381 5.1165 3.71409 5.12353 3.72415C5.12699 3.72909 5.13145 3.73594 5.13541 3.74401C5.13815 3.74961 5.1466 3.76723 5.1466 3.79066C5.1466 3.83394 5.12201 3.86268 5.10556 3.87675C5.08871 3.89117 5.06987 3.89991 5.05481 3.90538C5.02388 3.91662 4.9874 3.92177 4.95169 3.92177C4.92449 3.92177 4.86337 3.93143 4.77222 3.95257C4.68437 3.97295 4.57689 4.00196 4.46196 4.03609C4.23168 4.10446 3.9761 4.19202 3.79388 4.26906L3.79388 4.26906C2.83317 4.67518 1.90648 5.56422 1.40605 6.56399C0.870293 7.63432 0.744801 8.92703 1.06367 10.0981C1.18546 10.5454 1.5299 11.2519 1.82281 11.6538L1.7463 11.7096L1.82282 11.6538C2.69544 12.8512 3.95253 13.5493 5.46078 13.6724L5.45344 13.7623L5.46078 13.6724C5.63506 13.6866 5.90058 13.6798 6.1495 13.6597C6.2734 13.6497 6.39156 13.6365 6.49048 13.6213C6.54296 13.6133 6.58832 13.6049 6.62547 13.5966C6.6081 13.5839 6.58799 13.5694 6.56482 13.5529L6.5648 13.5528C6.44086 13.4644 6.14037 13.1954 5.89605 12.9559L5.9443 12.9067L5.89605 12.9559L5.47311 12.5412L5.19144 12.4932C3.93466 12.2788 2.9272 11.5258 2.3899 10.3966C2.14842 9.88926 2.06965 9.56041 2.03988 8.94446C1.99848 8.08767 2.17644 7.40364 2.6224 6.71344C3.13981 5.91256 3.95489 5.32767 4.87602 5.0965C5.12088 5.03506 5.45878 5.00838 5.79065 5.01272C6.12245 5.01705 6.45821 5.05253 6.69862 5.12042C7.75475 5.41861 8.59749 6.11547 9.07065 7.08361L8.98559 7.12518L9.07065 7.08362C9.4711 7.90309 9.57383 8.80501 9.36292 9.66417C9.30891 9.88421 9.21395 10.1428 9.10617 10.3799C8.9988 10.6162 8.8757 10.838 8.76313 10.9816C8.72991 11.0239 8.70009 11.0672 8.67906 11.102C8.67433 11.1099 8.67021 11.117 8.6667 11.1234C8.67923 11.1331 8.69671 11.145 8.71966 11.1587C8.7829 11.1964 8.87419 11.24 8.98058 11.2831C9.19384 11.3695 9.45343 11.4486 9.64333 11.4754L9.78667 11.4957L9.90014 11.317L9.90015 11.317C10.0981 11.0053 10.3512 10.3948 10.4647 9.95108L10.5488 9.9726L10.4647 9.95108C10.5882 9.46853 10.6307 8.58735 10.5551 8.06578C10.3742 6.81874 9.71782 5.6749 8.74608 4.91129L8.80247 4.83952L8.74608 4.91129C8.13048 4.42751 7.40144 4.08426 6.73291 3.9603C6.64236 3.94353 6.5601 3.92488 6.50019 3.90803C6.47082 3.89977 6.44386 3.89113 6.42333 3.88245C6.41404 3.87852 6.40031 3.87223 6.38776 3.86307C6.382 3.85887 6.36978 3.84934 6.35979 3.83357C6.34852 3.81576 6.33584 3.7816 6.35202 3.74311M4.69707 0.999435L6.47856 3.60814C6.44782 3.63637 6.42188 3.66078 6.40292 3.67944C6.39354 3.68868 6.3851 3.69726 6.3784 3.70457C6.37511 3.70816 6.37141 3.71236 6.36794 3.71673L6.36772 3.71701C6.36577 3.71946 6.35772 3.72955 6.35202 3.74311M4.69707 0.999435C4.76699 0.982223 4.86193 0.966826 4.9043 0.96468L4.69707 0.999435ZM6.35202 3.74311L6.4393 3.7798L6.35189 3.74342C6.35193 3.74332 6.35198 3.74321 6.35202 3.74311ZM6.49933 3.71008C6.50009 3.71064 6.50174 3.71185 6.50394 3.71375C6.50469 3.71304 6.50546 3.71233 6.50622 3.71161C6.50261 3.71029 6.49958 3.70911 6.49712 3.70807C6.49467 3.70703 6.49373 3.70653 6.49389 3.7066C6.4941 3.70671 6.49623 3.70783 6.49933 3.71008ZM6.53159 3.8185C6.52982 3.81801 6.52807 3.81753 6.52634 3.81704C6.52322 3.82431 6.51996 3.82922 6.51903 3.83061L6.51636 3.83431C6.51589 3.8349 6.51625 3.83441 6.51805 3.83245C6.52092 3.82931 6.52537 3.8247 6.53159 3.8185ZM6.73977 13.6627C6.82482 13.6309 6.81421 13.6144 6.61978 13.4758L6.73977 13.6627ZM6.71276 3.40017C6.71276 3.40017 6.71276 3.40018 6.71276 3.40018L6.77472 3.47176L6.71276 3.40017ZM7.13471 6.40925L7.03733 6.53812L7.03732 6.53813C6.36814 7.42392 6.14309 8.75108 6.47359 9.84598C6.86612 11.1463 7.81813 12.0602 9.16223 12.4314L9.18547 12.3473L9.16224 12.4314C9.39446 12.4955 9.7379 12.5228 10.0772 12.5182C10.4169 12.5135 10.765 12.4768 11.007 12.4067C12.0708 12.0986 12.8984 11.4123 13.3726 10.4424C13.5042 10.1735 13.5912 9.95814 13.6487 9.72872C13.7062 9.49956 13.7332 9.26025 13.7485 8.94446C13.7899 8.08767 13.6119 7.40364 13.1659 6.71344C12.57 5.79095 11.6678 5.20917 10.5673 5.0362C10.4184 5.01279 10.3636 5.00196 10.3014 4.96245C10.232 4.91834 10.1533 4.83832 9.97683 4.65494L9.91223 4.71711L9.97683 4.65494C9.78261 4.45311 9.48735 4.18256 9.31805 4.05197C9.25218 4.00115 9.20243 3.96229 9.16562 3.93184C9.19547 3.92691 9.23176 3.92174 9.27286 3.91659C9.36945 3.90449 9.48989 3.89281 9.61041 3.88458C11.1221 3.78128 12.4324 4.25609 13.4404 5.26793C14.9351 6.76845 15.3201 8.9545 14.4263 10.8617C13.747 12.3112 12.5145 13.2664 10.8724 13.611C10.6817 13.651 10.3524 13.6694 10.0117 13.6653C9.67158 13.6612 9.33228 13.6347 9.12228 13.5894C7.48653 13.2364 6.19185 12.1732 5.56505 10.6716C5.00531 9.3306 5.08086 7.69752 5.75851 6.45249L5.75851 6.45249C5.77219 6.42734 5.78507 6.40361 5.79722 6.3812C5.84835 6.28696 5.8868 6.21608 5.91949 6.16175C5.96094 6.09287 5.98571 6.06382 6.00374 6.05049C6.0149 6.04223 6.02636 6.03721 6.05917 6.03942C6.09107 6.04157 6.12967 6.04937 6.18886 6.06134C6.20361 6.06432 6.21963 6.06756 6.23715 6.07103L6.23716 6.07103C6.37819 6.09899 6.55708 6.15295 6.72324 6.21483C6.89085 6.27726 7.03711 6.34464 7.11642 6.39715L7.11644 6.39716L7.13471 6.40925ZM5.59675 1.13164L5.5339 1.20245C5.53391 1.20246 5.53392 1.20246 5.53393 1.20247L5.59675 1.13164Z" fill="#464646" stroke="#F8F8F8" stroke-width="0.189349"/>
</svg>
