<svg width="15" height="15" viewBox="0 0 15 15" fill="none" xmlns="http://www.w3.org/2000/svg">
<path fill-rule="evenodd" clip-rule="evenodd" d="M6.29576 0.062699C5.85927 0.180988 5.47428 0.502587 5.26158 0.926624C5.09858 1.25166 5.08133 1.38781 5.09409 2.25026C5.10369 2.90257 5.09511 3.04145 5.04689 3.01358C5.01445 2.99487 4.73794 2.82563 4.43241 2.6375C3.79722 2.24642 3.70118 2.20244 3.3653 2.14863C2.2777 1.97448 1.30903 2.96379 1.49826 4.0555C1.56603 4.44654 1.72815 4.7509 2.01764 5.03034L2.25881 5.26317L1.64576 5.61192C0.692014 6.15442 0.654773 6.22047 0.98119 6.78909C1.72824 8.09041 2.10265 8.70346 2.21509 8.8097C2.40094 8.98523 2.56572 8.968 2.96587 8.73128L3.29917 8.53409L3.32139 11.3048L3.34361 14.0755L3.46831 14.1832L3.59301 14.291H7.90469H12.2164L12.3463 14.1605L12.4762 14.03V10.5405C12.4762 6.94931 12.4755 6.93534 12.3023 6.80169C12.2486 6.76029 11.5356 6.74632 9.32088 6.74323C7.4122 6.7406 6.43295 6.72421 6.47668 6.69563C6.5561 6.64374 7.14445 6.30232 9.54309 4.91616C10.533 4.3441 11.3879 3.82705 11.4429 3.76717C11.6346 3.55854 11.595 3.4486 10.8816 2.20436C10.3332 1.24773 10.1949 1.03754 10.0706 0.971858C9.98825 0.92832 9.87897 0.902778 9.82777 0.915148C9.77658 0.927517 9.43661 1.10872 9.07228 1.31788L8.40985 1.69816L8.38319 1.46015C8.27284 0.476063 7.26373 -0.19951 6.29576 0.062699ZM7.06765 0.910414C7.26359 0.992667 7.48473 1.2568 7.54455 1.48002C7.60881 1.71986 7.53655 2.03682 7.37354 2.23012C7.30803 2.30782 6.96442 2.53868 6.61 2.74307L5.96561 3.11472L5.93415 2.39543C5.90135 1.64609 5.91291 1.48927 6.01588 1.28676C6.20404 0.916755 6.6784 0.74698 7.06765 0.910414ZM10.1654 2.63692C10.527 3.26802 10.555 3.33344 10.4857 3.38618C10.4219 3.43467 7.88603 4.90969 3.5464 7.42242C3.04688 7.71169 2.63398 7.94372 2.62883 7.93805C2.55875 7.86111 1.81143 6.54037 1.82125 6.51076C1.83521 6.4687 1.96377 6.39288 4.72127 4.80082C5.62564 4.27868 7.11552 3.41748 8.0321 2.88699C8.94869 2.35654 9.7145 1.92768 9.73392 1.93398C9.75329 1.94027 9.94745 2.2566 10.1654 2.63692ZM12.6327 2.64742C12.5651 2.70636 12.5071 2.81456 12.4921 2.90923C12.4706 3.04502 12.4875 3.09409 12.5991 3.21957C12.7047 3.33835 12.7654 3.36858 12.8984 3.36858C13.0313 3.36858 13.092 3.33835 13.1977 3.21957C13.3092 3.09409 13.3261 3.04502 13.3046 2.90923C13.2718 2.70163 13.0983 2.54695 12.8984 2.54695C12.8059 2.54695 12.7034 2.58575 12.6327 2.64742ZM3.39267 3.00804C3.53515 3.06217 4.75229 3.80329 4.73212 3.82361C4.65244 3.90363 3.3577 4.60689 3.25402 4.62645C2.92578 4.68834 2.53301 4.46632 2.3828 4.134C2.08847 3.48299 2.73771 2.75919 3.39267 3.00804ZM13.5597 4.28444C13.402 4.38103 13.3205 4.57295 13.3205 4.84811V5.03718L13.0257 5.05602C12.7713 5.07232 12.7164 5.09174 12.6257 5.19771C12.487 5.35976 12.487 5.58383 12.6257 5.74588C12.7164 5.85185 12.7713 5.87127 13.0257 5.88757L13.3205 5.90641V6.10361C13.3205 6.37787 13.4196 6.59043 13.5885 6.67813C13.7585 6.76645 13.9091 6.73765 14.0576 6.58837C14.1492 6.49639 14.1649 6.43775 14.1649 6.18827V5.89601L14.4205 5.89583C14.7539 5.89561 14.9486 5.78299 14.9889 5.56704C15.0244 5.37655 14.9398 5.18302 14.7871 5.10536C14.726 5.07433 14.561 5.04861 14.4205 5.04825L14.1649 5.04758V4.77671C14.1649 4.45998 14.121 4.35879 13.9436 4.26658C13.7759 4.17946 13.7273 4.18174 13.5597 4.28444ZM11.0699 5.09018C10.8254 5.19364 10.7569 5.53556 10.9383 5.7474C11.1737 6.02243 11.6318 5.84042 11.6318 5.4718C11.6318 5.19164 11.3241 4.98261 11.0699 5.09018ZM6.65444 9.51644V11.4847L6.78434 11.6152C6.87945 11.7107 6.95677 11.7457 7.07307 11.7457C7.20915 11.7457 7.27963 11.7002 7.56534 11.4275L7.89878 11.1092L8.23222 11.4275C8.51793 11.7002 8.58841 11.7457 8.72449 11.7457C8.84079 11.7457 8.91812 11.7107 9.01322 11.6152L9.14312 11.4847V9.51644V7.54822H10.3875H11.6318V10.4954V13.4426H7.89843H4.1651L4.17652 10.7331L4.18799 8.02356L4.58795 7.78667L4.98792 7.54973L5.82118 7.54897L6.65444 7.54822V9.51644ZM8.29875 8.91343V10.2786L8.18165 10.1861C8.11072 10.13 7.99922 10.0935 7.89878 10.0935C7.79835 10.0935 7.68684 10.13 7.61592 10.1861L7.49882 10.2786V8.91343V7.54822H7.89878H8.29875V8.91343Z" fill="#464646"/>
</svg>
