<svg width="15" height="15" viewBox="0 0 15 15" fill="none" xmlns="http://www.w3.org/2000/svg">
<path fill-rule="evenodd" clip-rule="evenodd" d="M2.03838 1.32827V2.56787H2.45998H2.88158V5.48976V8.41165H1.83868H0.795776V9.67338V10.9351H1.21737H1.63897V12.5953V14.2554H7.89637H14.1538V12.5953V10.9351H14.5754H14.997V9.67338V8.41165H13.9541H12.9112V5.48976V2.56787H13.3328H13.7544V1.32827V0.0886841H7.89637H2.03838V1.32827ZM12.9112 1.35041V1.77099H7.89637H2.88158V1.35041V0.929835H7.89637H12.9112V1.35041ZM12.068 5.48976V8.41165H11.2248H10.3816L10.381 8.2235C10.3793 7.58542 9.91959 6.79629 9.27508 6.32489L9.12273 6.21346L9.23656 6.06187C9.41527 5.82392 9.48499 5.65923 9.53976 5.34557C9.73103 4.2499 8.70619 3.23857 7.62047 3.45165C6.38745 3.69364 5.81696 5.07658 6.54805 6.05125C6.60619 6.12877 6.65323 6.20846 6.65257 6.22833C6.6519 6.24821 6.56962 6.31431 6.46973 6.37518C6.22453 6.52455 5.85086 6.94251 5.6864 7.25131C5.53063 7.54376 5.41116 7.96854 5.41116 8.22987V8.41165H4.56797H3.72477V5.48976V2.56787H7.89637H12.068V5.48976ZM8.23103 4.3334C8.53387 4.47059 8.74058 4.79745 8.73832 5.13559C8.73637 5.43739 8.44214 5.79921 8.12798 5.88625C7.92224 5.94323 7.8705 5.94323 7.66476 5.88625C7.3506 5.79921 7.05637 5.43739 7.05442 5.13559C7.05215 4.79745 7.25887 4.47059 7.56171 4.3334C7.78937 4.2302 8.00337 4.2302 8.23103 4.3334ZM8.62098 6.92915C9.10764 7.16971 9.47026 7.67224 9.55493 8.2235L9.58382 8.41165H7.89637H6.20891L6.2378 8.2235C6.33539 7.58808 6.76662 7.06134 7.36733 6.84383C7.5077 6.79301 7.67718 6.77685 7.96294 6.78703C8.29631 6.79894 8.40513 6.82245 8.62098 6.92915ZM14.1538 9.67338V10.094H7.89637H1.63897V9.67338V9.2528H7.89637H14.1538V9.67338ZM13.3106 12.1747V13.4143H7.89637H2.48217V12.1747V10.9351H7.89637H13.3106V12.1747Z" fill="#464646"/>
</svg>
