<svg width="16" height="11" viewBox="0 0 16 11" fill="none" xmlns="http://www.w3.org/2000/svg">
<path d="M11.1376 8.15234L11.1679 8.11855C11.6 8.50639 12.0073 8.82172 12.3726 9.054C12.7385 9.28665 13.0597 9.43435 13.3199 9.48966C13.5443 9.53738 13.7208 9.50447 13.8609 9.39506C14.0031 9.28398 14.115 9.08849 14.1959 8.79569C14.2548 8.58262 14.282 8.12238 14.2769 7.60818C14.2717 7.09596 14.2346 6.538 14.1679 6.13296C13.8473 4.18526 13.2838 2.78215 12.5607 2.09755C12.2911 1.84223 12.0709 1.71954 11.7177 1.62743C11.2696 1.51056 10.9344 1.5448 9.63527 1.85758C8.82924 2.05163 8.35306 2.14929 7.85372 2.14238C7.35492 2.13547 6.83532 2.02423 5.94222 1.80672C5.49532 1.69791 5.10798 1.62655 4.78955 1.59332C4.4701 1.55998 4.22381 1.56545 4.057 1.60752L11.1376 8.15234ZM11.1376 8.15234L11.1679 8.11855C10.9445 7.91805 10.6391 7.6743 10.4881 7.57658C9.96165 7.23594 9.24079 7.02516 8.47172 6.95466C7.70221 6.88412 6.88065 6.95364 6.151 7.17707C5.6887 7.31864 5.15795 7.5966 4.8486 7.86058C3.99736 8.58691 3.80444 8.74348 3.5239 8.93657C3.2425 9.13025 2.95267 9.28154 2.69767 9.37508C2.44017 9.46954 2.22656 9.50196 2.09334 9.4685C2.00536 9.44638 1.90356 9.37196 1.81081 9.26143C1.71896 9.15198 1.64048 9.0124 1.59677 8.86869L1.55148 8.88247M11.1376 8.15234L1.55148 8.88247M1.55148 8.88247L1.59677 8.86869C1.53899 8.67886 1.50283 8.30509 1.49345 7.87747C1.4841 7.45158 1.50141 6.97842 1.54811 6.59284L1.50627 6.58777M1.55148 8.88247L1.50627 6.58777M1.50627 6.58777L1.54811 6.59283C1.72812 5.10606 2.12316 3.75468 2.64021 2.84819L1.50627 6.58777ZM3.56565 5.83811L3.56565 5.83811C3.54121 5.74657 3.52442 5.70311 3.50434 5.67821C3.4876 5.65746 3.4654 5.64588 3.40993 5.63434L3.56565 5.83811ZM3.56565 5.83811C3.60354 5.97996 3.70709 6.13384 3.8324 6.26125M3.56565 5.83811L3.8324 6.26125M5.84665 3.56228L5.84666 3.56228C6.27539 3.68904 6.60219 4.14882 6.60098 4.61608C6.60046 4.8281 6.50959 5.04869 6.37056 5.22939C6.23149 5.41013 6.04053 5.5558 5.83378 5.61375C5.75147 5.63683 5.71277 5.65353 5.688 5.67627L5.84665 3.56228ZM5.84665 3.56228C5.75004 3.53374 5.70911 3.51686 5.68355 3.49218C5.65882 3.4683 5.6436 3.43228 5.61889 3.34397C5.58239 3.2134 5.49771 3.07257 5.3942 2.95174C5.29069 2.83092 5.16452 2.72564 5.04113 2.66953C4.91612 2.61268 4.75491 2.58534 4.59659 2.58529C4.43831 2.58523 4.27768 2.61244 4.1539 2.66929C4.05128 2.71641 3.90852 2.81432 3.83347 2.88946M5.84665 3.56228L3.83347 2.88946M4.38419 3.3881L4.38418 3.38811C4.34269 3.42432 4.31738 3.45768 4.29807 3.50977C4.27775 3.56459 4.26368 3.64113 4.24901 3.76539C4.23851 3.85434 4.22628 3.9281 4.20911 3.98838C4.19194 4.04871 4.16906 4.09841 4.13549 4.13701C4.06616 4.21675 3.96416 4.23497 3.83003 4.23497C3.66724 4.23497 3.53512 4.27487 3.44549 4.33953C3.35696 4.4034 3.30885 4.49172 3.31028 4.59607C3.31155 4.68856 3.35278 4.76141 3.42999 4.81298C3.50913 4.86584 3.62837 4.89754 3.78415 4.89754C3.92888 4.89754 4.04508 4.92615 4.1254 4.99389C4.20741 5.06305 4.24324 5.16537 4.24324 5.29213C4.24324 5.40214 4.26021 5.51057 4.28813 5.59931C4.31673 5.69018 4.35429 5.75245 4.38968 5.77933C4.38969 5.77933 4.38969 5.77933 4.38969 5.77933L4.38419 3.3881ZM4.38419 3.3881C4.50748 3.28042 4.67381 3.27573 4.79226 3.37176C4.85589 3.42334 4.88359 3.4858 4.9078 3.7199M4.38419 3.3881L4.9078 3.7199M3.97343 0.891902L3.97343 0.89191L3.97343 0.891902ZM3.97343 0.891902L3.97283 0.88842L3.97343 0.891902ZM3.83347 2.88946C3.76035 2.96265 3.68489 3.07569 3.62771 3.18558M3.83347 2.88946L3.62771 3.18558M3.62771 3.18558C3.59894 3.24087 3.57422 3.29648 3.55648 3.3472M3.62771 3.18558L3.55648 3.3472M3.55648 3.3472C3.53904 3.39703 3.52713 3.44552 3.52663 3.48547M3.55648 3.3472L3.52663 3.48547M3.52663 3.48547C3.5264 3.50338 3.51449 3.51669 3.49272 3.51669M3.52663 3.48547L3.49272 3.51669M3.49272 3.51669C3.47479 3.51669 3.45232 3.52159 3.43037 3.52767M3.49272 3.51669L3.43037 3.52767M3.43037 3.52767C3.40711 3.5341 3.37983 3.5432 3.35043 3.55414M3.43037 3.52767L3.35043 3.55414M3.35043 3.55414C3.29158 3.57604 3.22219 3.60606 3.15608 3.63904M3.35043 3.55414L3.15608 3.63904M3.15608 3.63904C2.56922 3.93181 2.39336 4.63882 2.76307 5.19814L3.15608 3.63904ZM3.8324 6.26125C3.9578 6.38874 4.11109 6.49592 4.25451 6.53894M3.8324 6.26125L4.25451 6.53894M4.25451 6.53894C4.84675 6.71658 5.44982 6.3928 5.62671 5.80175L4.25451 6.53894ZM11.5352 2.97366C11.4544 2.84105 11.3171 2.74699 11.1657 2.70081C11.0143 2.65461 10.8445 2.65503 10.6962 2.71646C10.2737 2.89139 10.1985 3.49222 10.5447 3.80978C10.6133 3.8727 10.6667 3.91446 10.7308 3.93865C10.7947 3.96271 10.8647 3.96771 10.9626 3.96771C11.4932 3.96771 11.8094 3.42389 11.5352 2.97366ZM11.5352 2.97366L11.4947 2.99828L11.5351 2.97366C11.5351 2.97366 11.5352 2.97366 11.5352 2.97366ZM4.9078 3.7199C4.92713 3.90697 4.95708 4.03862 5.02482 4.12199M4.9078 3.7199L5.02482 4.12199M5.02482 4.12199C5.09646 4.21019 5.20139 4.23497 5.33882 4.23497M5.02482 4.12199L5.33882 4.23497M5.33882 4.23497C5.46825 4.23497 5.58476 4.25957 5.67435 4.30062M5.33882 4.23497L5.67435 4.30062M5.67435 4.30062C5.76473 4.34202 5.82275 4.39764 5.84518 4.45669L5.67435 4.30062ZM9.05991 4.65721C9.03042 4.41609 9.1534 4.17212 9.37086 4.02668C9.67863 3.82084 10.0855 3.93069 10.2878 4.26283L9.05991 4.65721ZM9.05991 4.65721C9.14051 5.31625 9.99906 5.46561 10.3003 4.87411L9.05991 4.65721ZM3.96538 0.845263L3.96538 0.845263C2.86075 1.03603 1.96114 2.11928 1.37097 3.91921C0.964376 5.1593 0.753058 6.42194 0.748545 7.63958L0.795881 7.63975L0.748545 7.63958C0.744224 8.82468 0.871438 9.373 1.27594 9.81231C1.42529 9.97452 1.54965 10.0793 1.70022 10.142C1.85029 10.2045 2.02155 10.2231 2.26044 10.2229C2.4256 10.2228 2.54131 10.2176 2.64517 10.1999C2.74975 10.1821 2.84048 10.1519 2.95623 10.1038C3.59565 9.8379 4.15785 9.45562 5.05932 8.67732C5.34555 8.43019 5.55754 8.26721 5.76586 8.14602C5.97363 8.02516 6.17942 7.94489 6.45418 7.86517C7.31916 7.61426 8.45867 7.61426 9.32366 7.86517C9.85317 8.01881 10.1494 8.18561 10.6294 8.60248L10.6604 8.56674L10.6294 8.60249C11.7514 9.5769 12.4603 10.0309 13.1173 10.1853L13.1261 10.1476L13.1173 10.1853C13.4756 10.2695 13.8023 10.2492 14.0797 10.1274C14.3573 10.0055 14.5813 9.78368 14.7369 9.47246C14.9623 9.02167 15.0611 8.30716 15.042 7.4685C15.0229 6.62808 14.8852 5.6567 14.6322 4.68792C14.0243 2.35958 13.0851 1.0635 11.7928 0.841204L11.7928 0.841203C11.3093 0.758086 10.8139 0.818221 9.6799 1.08984C9.11686 1.22467 8.48318 1.35819 8.27157 1.38687L8.27157 1.38687C7.78277 1.45317 7.46537 1.41309 6.20792 1.11697C4.87633 0.80339 4.48978 0.754718 3.96538 0.845263ZM4.60016 5.83152H4.60014L5.81625 4.76547C5.75812 4.84389 5.65421 4.89754 5.51511 4.89754C5.30334 4.89754 5.14667 4.93071 5.04444 5.02564C4.94118 5.12152 4.90496 5.26937 4.90496 5.4675C4.90496 5.59497 4.87524 5.68566 4.82555 5.74363C4.77695 5.80035 4.70347 5.83245 4.60016 5.83152ZM11.7853 5.05227L11.8152 5.01969L11.7853 5.05227C11.832 5.0951 11.8921 5.13665 11.9513 5.16958C12.0098 5.20213 12.0714 5.22845 12.1212 5.23781L12.1299 5.19164L12.1212 5.23781C12.2445 5.26096 12.3886 5.2314 12.5129 5.17322C12.6371 5.11516 12.7501 5.02455 12.806 4.91644C13.1061 4.33537 12.5149 3.70627 11.9283 3.99574C11.6834 4.11659 11.5624 4.35675 11.5904 4.64881C11.5997 4.74508 11.6123 4.81517 11.6423 4.87747C11.6725 4.94013 11.7183 4.99074 11.7853 5.05227ZM10.6945 5.25311L10.7139 5.29528L10.6945 5.25311C10.4563 5.36294 10.3258 5.58107 10.3258 5.85908C10.3258 6.51343 11.195 6.74256 11.5379 6.18711C11.577 6.12373 11.6026 6.06795 11.6152 6.00353C11.6278 5.93986 11.6271 5.87092 11.6186 5.78235C11.606 5.65085 11.5673 5.5386 11.499 5.44557C11.4306 5.35256 11.3348 5.28178 11.2126 5.22966C11.1173 5.18901 11.043 5.16652 10.9623 5.17037C10.8827 5.17416 10.8024 5.20338 10.6945 5.25311ZM3.04707 5.47277C3.16123 5.54973 3.28982 5.60936 3.40992 5.63434L3.04707 5.47277Z" fill="#464646" stroke="#878181" stroke-width="0.0946746"/>
</svg>
