<svg width="15" height="14" viewBox="0 0 15 14" fill="none" xmlns="http://www.w3.org/2000/svg">
<path fill-rule="evenodd" clip-rule="evenodd" d="M7.51512 0.301015C7.41696 0.358779 7.29434 0.48124 7.2427 0.573052C7.19103 0.664908 6.83478 1.46589 6.45097 2.35307C6.0672 3.24024 5.71283 4.05932 5.6635 4.17319C5.59868 4.32294 5.549 4.38027 5.48405 4.38027C5.22286 4.38027 1.45466 4.7337 1.32267 4.77058C0.913638 4.88489 0.683972 5.35829 0.850461 5.74403C0.925315 5.91758 1.09473 6.07365 2.79545 7.53586C3.54443 8.17981 4.14921 8.72885 4.13939 8.75593C4.06019 8.97456 3.23174 12.7016 3.23174 12.8392C3.23174 13.2874 3.70275 13.6489 4.13424 13.5319C4.22619 13.5069 5.10192 13.0169 6.08034 12.4429C7.05877 11.8688 7.87545 11.3992 7.89521 11.3992C7.91492 11.3992 8.68676 11.8426 9.61044 12.3845C10.5341 12.9265 11.3672 13.4088 11.4618 13.4563C11.9631 13.7081 12.5551 13.3743 12.5551 12.8399C12.5551 12.7019 11.727 8.97543 11.6476 8.75614C11.6378 8.72916 12.3425 8.09453 13.2135 7.34587C14.8477 5.94125 14.997 5.78544 14.997 5.48372C14.997 5.18901 14.8092 4.91087 14.5308 4.79334C14.4561 4.76177 13.4812 4.65592 12.3109 4.55225C11.1633 4.45063 10.219 4.36348 10.2125 4.35864C10.206 4.35385 9.83993 3.51803 9.39898 2.50133C8.95803 1.48468 8.55974 0.593237 8.51392 0.520389C8.31725 0.207808 7.84837 0.104834 7.51512 0.301015ZM8.68947 3.09332C9.11071 4.06394 9.49523 4.90791 9.54402 4.96881C9.72121 5.18997 9.8053 5.2054 11.8142 5.38532C12.8688 5.47979 13.7678 5.55713 13.812 5.55722C13.8568 5.55731 13.8795 5.57758 13.8634 5.60321C13.8475 5.62841 13.202 6.19363 12.4289 6.85916C11.6559 7.52474 10.9692 8.13246 10.9031 8.20967C10.6804 8.4695 10.6841 8.5032 11.1673 10.5891C11.4121 11.6461 11.6086 12.5153 11.6039 12.5207C11.5992 12.5261 10.8274 12.08 9.88868 11.5294C8.94999 10.9788 8.11706 10.516 8.03772 10.5011C7.95834 10.4862 7.82848 10.4862 7.74914 10.501C7.66976 10.5159 6.8374 10.9792 5.89938 11.5305C4.96141 12.0818 4.18952 12.528 4.18419 12.5219C4.17882 12.5158 4.37474 11.6461 4.61955 10.5891C5.10827 8.47927 5.10974 8.46471 4.8656 8.19167C4.7899 8.107 4.10268 7.4991 3.33852 6.84081C2.57431 6.18251 1.93681 5.62444 1.92185 5.60064C1.90684 5.57679 1.94068 5.55705 1.9971 5.55665C2.05349 5.5563 2.95688 5.4784 4.00465 5.38349C5.82191 5.21896 5.9175 5.20593 6.07955 5.1006C6.28968 4.96406 6.29092 4.96162 7.16048 2.95251C7.54705 2.05932 7.87687 1.32857 7.89348 1.32857C7.91004 1.32857 8.26823 2.12271 8.68947 3.09332Z" fill="#464646"/>
</svg>
