<svg width="15" height="15" viewBox="0 0 15 15" fill="none" xmlns="http://www.w3.org/2000/svg">
<g clip-path="url(#clip0_131_70)">
<path fill-rule="evenodd" clip-rule="evenodd" d="M2.16697 1.63145C2.36285 1.53351 7.45569 1.63145 8.43508 1.63145C8.92478 1.63145 9.2186 1.53351 9.51241 1.82733C9.80623 2.21909 9.70829 3.68818 9.70829 4.27581V11.9151C9.70829 12.7965 9.80623 13.8739 9.2186 14.0697C8.92478 14.1677 4.81133 14.0697 4.12576 14.0697C1.18758 14.0697 1.67727 14.3635 1.67727 11.4254V2.41497C1.67727 2.02321 1.77521 1.82733 2.16697 1.63145V1.63145ZM2.16697 0.75C1.28552 0.945878 0.795822 1.53351 0.795822 2.41497V11.4254C0.795822 12.1109 0.697882 13.58 0.9917 14.1677C1.4814 14.9512 2.06903 14.9512 3.2443 14.9512C4.22369 14.9512 8.63096 14.9512 9.2186 14.9512C10.0021 14.7553 10.4918 14.1677 10.4918 13.2862V4.27581C10.4918 3.59024 10.5897 2.12115 10.2959 1.53351C9.80623 0.75 9.2186 0.75 8.04333 0.75C7.16187 0.75 2.65667 0.75 2.16697 0.75V0.75Z" fill="#464646"/>
<path fill-rule="evenodd" clip-rule="evenodd" d="M5.30106 7.99748C6.67221 7.8016 7.74954 8.87893 7.94542 9.95626C8.23924 11.4253 7.16191 12.5027 5.98664 12.6986C4.61549 12.8944 3.53816 11.915 3.34228 10.7398C3.1464 9.36863 4.12579 8.2913 5.30106 7.99748ZM5.30106 7.21396C3.6361 7.40984 2.26495 8.87893 2.46083 10.7398C2.75464 12.3068 4.22373 13.7759 6.08458 13.4821C7.6516 13.2862 9.02275 11.915 8.82687 9.95626C8.63099 8.38923 7.16191 7.01809 5.30106 7.21396V7.21396Z" fill="#464646"/>
<path fill-rule="evenodd" clip-rule="evenodd" d="M5.49696 3.0026C7.16193 2.70878 7.45574 5.2552 5.88872 5.45108C5.1052 5.54902 4.51757 5.05932 4.41963 4.37375C4.32169 3.68817 4.81138 3.10054 5.49696 3.0026V3.0026ZM5.39902 2.21909C4.71344 2.31702 4.32169 2.5129 4.02787 2.90466C2.8526 4.47169 4.12581 6.52841 5.98666 6.23459C6.96605 6.13665 7.8475 5.15726 7.74956 3.88405C7.55368 2.90466 6.57429 2.02321 5.39902 2.21909V2.21909Z" fill="#464646"/>
<path fill-rule="evenodd" clip-rule="evenodd" d="M12.2546 6.03868C12.0588 5.54899 12.9402 5.35311 13.0381 5.8428C13.1361 6.43044 12.3526 6.52838 12.2546 6.03868ZM13.0381 4.76547C11.0794 4.27578 10.8835 7.01807 12.5484 7.21395C13.332 7.21395 13.8217 6.62632 13.8217 5.94074C13.9196 5.15723 13.8217 3.98196 13.9196 3.29638C14.0175 3.39432 14.3114 3.49226 14.5072 3.5902C14.7031 3.5902 14.9969 3.39432 14.9969 3.19844C14.9969 2.80669 14.3114 2.61081 13.9196 2.41493C13.332 2.12111 13.0381 2.12111 13.0381 2.90463C13.0381 3.5902 13.0381 4.17784 13.0381 4.76547Z" fill="#464646"/>
<path fill-rule="evenodd" clip-rule="evenodd" d="M12.2546 13.7759C12.0588 13.2862 12.9402 13.0903 13.0381 13.58C13.1361 14.1676 12.3526 14.2656 12.2546 13.7759ZM13.0381 12.5027C11.0794 12.013 10.8835 14.7552 12.5484 14.9511C13.332 14.9511 13.8217 14.3635 13.8217 13.6779C13.9196 12.8944 13.8217 11.7191 13.9196 11.0336C14.0175 11.1315 14.3114 11.3274 14.5072 11.3274C14.7031 11.3274 14.9969 11.2294 14.9969 10.9356C14.9969 10.5439 14.3114 10.348 13.9196 10.1521C13.332 9.8583 13.0381 9.8583 13.0381 10.6418C13.0381 11.3274 13.0381 11.915 13.0381 12.5027Z" fill="#464646"/>
<path fill-rule="evenodd" clip-rule="evenodd" d="M5.49687 9.66242C6.37833 9.46654 6.67214 10.8377 5.88863 11.0336C5.00718 11.2294 4.51748 9.95624 5.49687 9.66242V9.66242ZM5.30099 8.87891C4.61542 9.07478 3.92985 9.76036 4.22366 10.7398C4.61542 12.6006 7.5536 12.013 7.16184 10.0542C6.96596 9.27066 6.18245 8.68303 5.30099 8.87891V8.87891Z" fill="#464646"/>
<path fill-rule="evenodd" clip-rule="evenodd" d="M5.49687 3.88402C5.00717 4.0799 5.30099 4.86342 5.88863 4.5696C6.28039 4.37372 6.08451 3.59021 5.49687 3.88402V3.88402Z" fill="#464646"/>
<path fill-rule="evenodd" clip-rule="evenodd" d="M2.75456 6.2346C2.65663 6.33254 2.55869 6.2346 2.55869 6.43048C2.36281 6.82224 2.65663 7.11605 3.04838 7.01812C3.53808 6.82224 3.24426 6.03873 2.75456 6.2346V6.2346Z" fill="#464646"/>
<path fill-rule="evenodd" clip-rule="evenodd" d="M8.33714 6.2346C8.04332 6.33254 7.94538 6.43048 8.04332 6.7243C8.04332 6.92017 8.33714 7.11605 8.53302 7.01811C9.02271 6.82224 8.82683 6.03873 8.33714 6.2346V6.2346Z" fill="#464646"/>
</g>
<defs>
<clipPath id="clip0_131_70">
<rect width="14.2012" height="14.2573" fill="white" transform="translate(0.795776 0.721924)"/>
</clipPath>
</defs>
</svg>
