<svg width="15" height="16" viewBox="0 0 15 16" fill="none" xmlns="http://www.w3.org/2000/svg">
<path fill-rule="evenodd" clip-rule="evenodd" d="M4.28657 10.9065L5.39728 9.79574C5.55595 9.71641 5.79396 9.4784 5.71462 9.16105C5.55595 8.84371 5.23861 8.84371 5.0006 9.00238C4.76259 9.16105 4.60392 9.39906 4.44524 9.55774C4.20723 9.87508 3.57254 10.5891 3.2552 10.5891H1.66848V11.3825H3.65188C3.88989 11.3825 3.96923 11.2238 4.28657 10.9065V10.9065ZM13.4896 8.36769L12.6169 8.05035L8.09471 12.5725C8.01537 12.7312 8.25338 13.3659 8.33272 13.5245L13.4896 8.36769V8.36769ZM11.9029 7.65367C11.8235 7.41566 10.7128 6.46362 10.4748 6.22561L7.69803 3.36951C7.14268 2.81416 6.66666 2.10013 5.95263 2.57615L3.09653 5.43225C2.54117 5.98761 2.06516 6.38429 2.85852 7.17765C3.01719 7.41566 3.33454 7.65367 3.57254 7.89167C3.73122 8.05035 4.04856 8.44703 4.28657 8.6057C5.23861 7.41566 6.66666 8.28836 6.58732 9.4784C6.50799 9.95442 6.19064 10.1131 6.03197 10.3511L7.61869 11.9378L11.9029 7.65367V7.65367ZM4.68325 2.57615C4.60392 2.33814 4.36591 2.2588 4.20723 2.02079C3.96923 2.10013 2.22383 3.92486 1.98582 4.16287L2.54117 4.71823C2.69985 4.63889 4.60392 2.73482 4.68325 2.57615ZM0.795776 4.16287C0.954449 3.92486 2.22383 2.73482 2.46184 2.49681L4.1279 0.83075L5.31794 2.02079C6.66666 1.22743 7.14268 1.62411 8.09471 2.65548L12.2202 6.70163C12.7755 7.25699 12.6169 7.17765 13.4896 7.49499L14.8383 7.97101C14.9176 7.97101 14.9176 7.97101 14.9176 7.97101L14.997 8.05035C14.8383 8.28836 11.8235 11.3031 11.5062 11.5411C10.9508 12.1758 10.3955 12.7312 9.76077 13.2865C9.52276 13.6039 8.17405 14.9526 8.01537 15.0319C7.8567 14.7939 7.69803 14.1592 7.53936 13.7626C7.46002 13.3659 7.30135 12.8899 7.06334 12.6518L5.39728 10.9858C5.15927 11.1445 4.28657 12.1758 4.1279 12.1758C3.96923 12.2552 1.98582 12.2552 1.66848 12.2552V13.3659H0.795776V8.6057H1.66848V9.71641C2.06516 9.71641 2.54117 9.71641 2.93786 9.71641C3.17586 9.71641 3.17586 9.63707 3.33454 9.4784C3.41387 9.39906 3.57254 9.31973 3.65188 9.24039C3.49321 9.00238 2.3825 7.89168 2.06516 7.57433C1.03379 6.54296 1.90648 5.51159 1.98582 5.27358L0.795776 4.16287H0.795776Z" fill="#464646"/>
<path fill-rule="evenodd" clip-rule="evenodd" d="M12.2996 12.8898C12.4582 12.7312 12.6962 12.4931 12.8549 12.3345C13.0929 12.5725 13.8069 13.2072 13.8863 13.4452L13.3309 13.9212L12.2996 12.8898V12.8898Z" fill="#464646"/>
<path fill-rule="evenodd" clip-rule="evenodd" d="M10.8715 13.7625L11.5855 13.5245C11.6648 13.6039 12.0615 14.5559 12.1408 14.7939C11.9028 14.8732 11.5855 15.0319 11.3475 15.0319L10.8715 13.7625Z" fill="#464646"/>
<path fill-rule="evenodd" clip-rule="evenodd" d="M14.997 11.3825L14.759 12.0965L13.4896 11.6998L13.7276 10.9064C13.9656 10.9858 14.8384 11.2238 14.997 11.3825Z" fill="#464646"/>
</svg>
