<svg width="16" height="15" viewBox="0 0 16 15" fill="none" xmlns="http://www.w3.org/2000/svg">
<mask id="path-1-outside-1_131_82" maskUnits="userSpaceOnUse" x="-0.204224" y="-0.218933" width="16" height="15" fill="black">
<rect fill="white" x="-0.204224" y="-0.218933" width="16" height="15"/>
<path fill-rule="evenodd" clip-rule="evenodd" d="M3.24325 0.824632C2.88728 0.8946 2.56283 1.22597 2.48217 1.60192C2.4506 1.74914 2.43901 2.74987 2.44749 4.59635C2.46006 7.341 2.46117 7.37146 2.556 7.54722C2.67831 7.77387 2.85984 7.94577 3.06921 8.03323C3.20875 8.09152 3.49884 8.10218 4.94495 8.10218H6.65562V8.50005V8.89789L4.09175 8.91072C1.53973 8.92346 1.52703 8.92395 1.3435 9.02211C1.11708 9.14318 0.913475 9.38309 0.845993 9.60818C0.811453 9.72348 0.79547 10.3763 0.795781 11.659L0.796225 13.5407L0.903486 13.7711C1.03348 14.0503 1.28556 14.2472 1.59891 14.3144C1.89454 14.3778 6.99867 14.3778 7.27716 14.3143C7.56045 14.2498 7.78523 14.0869 7.92956 13.8413C8.04757 13.6405 8.05489 13.5965 8.06937 12.9968L8.08464 12.3642H9.85631C11.5688 12.3642 11.631 12.3612 11.7168 12.2754C11.8318 12.1604 11.8298 12.0004 11.7122 11.8938C11.6241 11.8141 11.5173 11.8085 9.85036 11.7967L8.08198 11.7842L8.06803 10.7053L8.05409 9.62656L7.92091 9.41248C7.76774 9.16631 7.63278 9.05469 7.38558 8.96976L7.21057 8.90965L7.19832 8.24087C7.1889 7.72681 7.20138 7.53546 7.25221 7.41377C7.37643 7.11645 7.26473 7.12546 10.8288 7.12546C14.245 7.12546 14.2623 7.12653 14.377 7.34078C14.4093 7.40129 14.4249 8.10235 14.4249 9.49985V11.5693L14.3137 11.6724C14.2514 11.7301 14.1219 11.7863 14.0191 11.8C13.7196 11.8402 13.6021 12.0437 13.7614 12.2462C14.0096 12.5617 14.7649 12.2118 14.9339 11.7031C14.9964 11.5149 15.0038 11.2227 14.9926 9.38429C14.9787 7.07964 14.9891 7.17057 14.7065 6.8851C14.4702 6.64634 14.2848 6.59475 13.6591 6.59368L13.093 6.59271V4.12277C13.093 2.37672 13.078 1.60245 13.0415 1.48085C12.9713 1.24644 12.7348 0.982016 12.5058 0.881947C12.3272 0.803854 12.1288 0.798349 9.0974 0.787827C6.55804 0.778948 5.85525 0.788538 5.7677 0.833244C5.68539 0.875243 5.6532 0.931493 5.64317 1.0511C5.61648 1.36951 5.44241 1.35397 9.04 1.35397H12.2481L12.3931 1.48347L12.5381 1.61297L12.5511 3.4369C12.5582 4.44007 12.552 5.26082 12.5374 5.26082C12.5227 5.26082 12.1751 5.02109 11.7648 4.72807C11.27 4.37472 10.9799 4.19532 10.9032 4.19532C10.8232 4.19532 10.5337 4.38777 9.96259 4.82081C9.50887 5.16484 9.11356 5.43708 9.08422 5.42576C9.05483 5.41448 8.45237 4.92324 7.74541 4.33414C6.7611 3.51393 6.43173 3.263 6.33939 3.263C6.22431 3.263 5.78439 3.60432 3.4591 5.49777L3.03734 5.84122L3.02562 3.7863C3.01723 2.31008 3.02837 1.69635 3.06517 1.60716C3.11978 1.4749 3.30687 1.35397 3.45688 1.35397C3.58066 1.35397 3.72548 1.20013 3.72548 1.06863C3.72548 0.972382 3.53959 0.768249 3.46421 0.781701C3.4492 0.784364 3.34975 0.803677 3.24325 0.824632ZM4.50316 0.893357C4.39173 1.00484 4.4328 1.22615 4.5801 1.30819C4.68972 1.36924 4.71467 1.36924 4.82428 1.30819C5.06873 1.17208 4.98073 0.821213 4.70219 0.821213C4.63244 0.821213 4.54285 0.853667 4.50316 0.893357ZM8.9061 1.9764C8.66689 2.01938 8.38991 2.22995 8.26498 2.46387C8.17592 2.63058 8.16087 2.71284 8.1741 2.96075C8.18728 3.20866 8.21281 3.2895 8.32837 3.44902C8.69153 3.95038 9.47468 3.97689 9.83828 3.50016C10.3751 2.79631 9.77777 1.8199 8.9061 1.9764ZM9.3672 2.63804C9.52951 2.80035 9.53799 2.98836 9.39068 3.15965C9.25137 3.3216 8.97074 3.33363 8.82117 3.18406C8.6716 3.03449 8.68363 2.75386 8.84559 2.61455C9.01687 2.46724 9.20489 2.47572 9.3672 2.63804ZM7.9851 5.25887L9.55877 6.57051L8.45126 6.59271C7.23441 6.61708 7.2127 6.62165 6.93536 6.91081C6.78388 7.06868 6.65562 7.33004 6.65562 7.48072C6.65562 7.57209 6.64825 7.57244 4.96488 7.55983L3.27415 7.54722L3.14291 7.40027C3.01789 7.26034 3.01225 7.23663 3.02451 6.90419L3.03734 6.55506L4.67955 5.2238C5.58279 4.49157 6.34196 3.90479 6.3666 3.91984C6.39128 3.93489 7.1196 4.53748 7.9851 5.25887ZM11.779 5.41621L12.5642 5.9788L12.5512 6.27465L12.5381 6.57051L11.4948 6.58117L10.4515 6.59182L10.0297 6.23958C9.79775 6.04588 9.60796 5.86577 9.60796 5.83939C9.60796 5.77058 10.8828 4.811 10.9433 4.83427C10.9711 4.84492 11.3472 5.10681 11.779 5.41621ZM11.2728 7.86004C10.4206 8.00091 9.96659 8.05494 9.62563 8.05614C9.21177 8.0576 9.13669 8.06994 9.00408 8.15856C8.75782 8.32309 8.69797 8.49726 8.69793 9.04999C8.69779 9.80517 8.82783 9.97724 9.41927 10.0047L9.76334 10.0206V10.5905C9.76334 11.3067 9.75593 11.2987 10.4199 11.2987C10.6724 11.2987 10.916 11.2789 10.9611 11.2548C11.0132 11.2269 11.1027 11.0321 11.2065 10.7208L11.3698 10.2307L11.51 10.2538C11.5871 10.2666 11.83 10.307 12.0497 10.3437C12.8792 10.4823 12.9155 10.457 12.9155 9.73977C12.9155 9.26984 12.9164 9.26589 13.028 9.23787C13.272 9.17665 13.2858 8.79973 13.0471 8.71653L12.9155 8.67062V8.25321C12.9155 7.89498 12.9029 7.82319 12.8267 7.74701C12.708 7.62834 12.6487 7.63264 11.2728 7.86004ZM12.3383 9.05558V9.8314L12.194 9.80228C12.1146 9.78625 11.6602 9.71176 11.184 9.63673L10.3183 9.50025L10.3056 9.04542C10.2987 8.79524 10.2987 8.58925 10.3056 8.58769C10.5072 8.54259 12.0921 8.28837 12.194 8.28482L12.3383 8.27976V9.05558ZM9.75393 9.04559L9.74114 9.45626H9.51916H9.29718L9.2844 9.04559L9.27166 8.63493H9.51916H9.76667L9.75393 9.04559ZM7.36937 9.60823L7.49914 9.73799V11.6258V13.5135L7.39202 13.6381L7.28489 13.7627L4.45943 13.7748L1.63398 13.7868L1.50323 13.6561L1.37249 13.5253V11.6168V9.70834L1.50909 9.5934L1.64565 9.47845H4.44265H7.2396L7.36937 9.60823ZM10.7068 10.1291C10.8006 10.1548 10.7999 10.1917 10.6997 10.4774C10.6273 10.6841 10.6108 10.7003 10.459 10.7131L10.2961 10.7269V10.3892V10.0516L10.4626 10.0797C10.5542 10.0951 10.6641 10.1174 10.7068 10.1291ZM3.55779 10.4355C3.4603 10.5037 3.4591 10.5182 3.4591 11.6051C3.4591 12.6149 3.46581 12.7116 3.5403 12.7791C3.58496 12.8195 3.66581 12.8526 3.72002 12.8526C3.80948 12.8526 5.41697 11.9122 5.60121 11.752C5.70949 11.6579 5.69866 11.4652 5.57901 11.3573C5.45293 11.2436 3.80819 10.3664 3.72108 10.3664C3.68552 10.3664 3.61205 10.3975 3.55779 10.4355ZM4.64936 11.4654L4.84075 11.5767L4.45055 11.815C4.23594 11.9462 4.04495 12.0534 4.02613 12.0534C4.00726 12.0534 3.99185 11.8433 3.99185 11.5865V11.1196L4.22493 11.2369C4.35315 11.3014 4.54414 11.4042 4.64936 11.4654ZM12.5389 11.9036C12.4274 12.0151 12.4685 12.2364 12.6158 12.3184C12.7254 12.3795 12.7504 12.3795 12.86 12.3184C13.1044 12.1823 13.0164 11.8314 12.7379 11.8314C12.6681 11.8314 12.5785 11.8639 12.5389 11.9036Z"/>
</mask>
<path fill-rule="evenodd" clip-rule="evenodd" d="M3.24325 0.824632C2.88728 0.8946 2.56283 1.22597 2.48217 1.60192C2.4506 1.74914 2.43901 2.74987 2.44749 4.59635C2.46006 7.341 2.46117 7.37146 2.556 7.54722C2.67831 7.77387 2.85984 7.94577 3.06921 8.03323C3.20875 8.09152 3.49884 8.10218 4.94495 8.10218H6.65562V8.50005V8.89789L4.09175 8.91072C1.53973 8.92346 1.52703 8.92395 1.3435 9.02211C1.11708 9.14318 0.913475 9.38309 0.845993 9.60818C0.811453 9.72348 0.79547 10.3763 0.795781 11.659L0.796225 13.5407L0.903486 13.7711C1.03348 14.0503 1.28556 14.2472 1.59891 14.3144C1.89454 14.3778 6.99867 14.3778 7.27716 14.3143C7.56045 14.2498 7.78523 14.0869 7.92956 13.8413C8.04757 13.6405 8.05489 13.5965 8.06937 12.9968L8.08464 12.3642H9.85631C11.5688 12.3642 11.631 12.3612 11.7168 12.2754C11.8318 12.1604 11.8298 12.0004 11.7122 11.8938C11.6241 11.8141 11.5173 11.8085 9.85036 11.7967L8.08198 11.7842L8.06803 10.7053L8.05409 9.62656L7.92091 9.41248C7.76774 9.16631 7.63278 9.05469 7.38558 8.96976L7.21057 8.90965L7.19832 8.24087C7.1889 7.72681 7.20138 7.53546 7.25221 7.41377C7.37643 7.11645 7.26473 7.12546 10.8288 7.12546C14.245 7.12546 14.2623 7.12653 14.377 7.34078C14.4093 7.40129 14.4249 8.10235 14.4249 9.49985V11.5693L14.3137 11.6724C14.2514 11.7301 14.1219 11.7863 14.0191 11.8C13.7196 11.8402 13.6021 12.0437 13.7614 12.2462C14.0096 12.5617 14.7649 12.2118 14.9339 11.7031C14.9964 11.5149 15.0038 11.2227 14.9926 9.38429C14.9787 7.07964 14.9891 7.17057 14.7065 6.8851C14.4702 6.64634 14.2848 6.59475 13.6591 6.59368L13.093 6.59271V4.12277C13.093 2.37672 13.078 1.60245 13.0415 1.48085C12.9713 1.24644 12.7348 0.982016 12.5058 0.881947C12.3272 0.803854 12.1288 0.798349 9.0974 0.787827C6.55804 0.778948 5.85525 0.788538 5.7677 0.833244C5.68539 0.875243 5.6532 0.931493 5.64317 1.0511C5.61648 1.36951 5.44241 1.35397 9.04 1.35397H12.2481L12.3931 1.48347L12.5381 1.61297L12.5511 3.4369C12.5582 4.44007 12.552 5.26082 12.5374 5.26082C12.5227 5.26082 12.1751 5.02109 11.7648 4.72807C11.27 4.37472 10.9799 4.19532 10.9032 4.19532C10.8232 4.19532 10.5337 4.38777 9.96259 4.82081C9.50887 5.16484 9.11356 5.43708 9.08422 5.42576C9.05483 5.41448 8.45237 4.92324 7.74541 4.33414C6.7611 3.51393 6.43173 3.263 6.33939 3.263C6.22431 3.263 5.78439 3.60432 3.4591 5.49777L3.03734 5.84122L3.02562 3.7863C3.01723 2.31008 3.02837 1.69635 3.06517 1.60716C3.11978 1.4749 3.30687 1.35397 3.45688 1.35397C3.58066 1.35397 3.72548 1.20013 3.72548 1.06863C3.72548 0.972382 3.53959 0.768249 3.46421 0.781701C3.4492 0.784364 3.34975 0.803677 3.24325 0.824632ZM4.50316 0.893357C4.39173 1.00484 4.4328 1.22615 4.5801 1.30819C4.68972 1.36924 4.71467 1.36924 4.82428 1.30819C5.06873 1.17208 4.98073 0.821213 4.70219 0.821213C4.63244 0.821213 4.54285 0.853667 4.50316 0.893357ZM8.9061 1.9764C8.66689 2.01938 8.38991 2.22995 8.26498 2.46387C8.17592 2.63058 8.16087 2.71284 8.1741 2.96075C8.18728 3.20866 8.21281 3.2895 8.32837 3.44902C8.69153 3.95038 9.47468 3.97689 9.83828 3.50016C10.3751 2.79631 9.77777 1.8199 8.9061 1.9764ZM9.3672 2.63804C9.52951 2.80035 9.53799 2.98836 9.39068 3.15965C9.25137 3.3216 8.97074 3.33363 8.82117 3.18406C8.6716 3.03449 8.68363 2.75386 8.84559 2.61455C9.01687 2.46724 9.20489 2.47572 9.3672 2.63804ZM7.9851 5.25887L9.55877 6.57051L8.45126 6.59271C7.23441 6.61708 7.2127 6.62165 6.93536 6.91081C6.78388 7.06868 6.65562 7.33004 6.65562 7.48072C6.65562 7.57209 6.64825 7.57244 4.96488 7.55983L3.27415 7.54722L3.14291 7.40027C3.01789 7.26034 3.01225 7.23663 3.02451 6.90419L3.03734 6.55506L4.67955 5.2238C5.58279 4.49157 6.34196 3.90479 6.3666 3.91984C6.39128 3.93489 7.1196 4.53748 7.9851 5.25887ZM11.779 5.41621L12.5642 5.9788L12.5512 6.27465L12.5381 6.57051L11.4948 6.58117L10.4515 6.59182L10.0297 6.23958C9.79775 6.04588 9.60796 5.86577 9.60796 5.83939C9.60796 5.77058 10.8828 4.811 10.9433 4.83427C10.9711 4.84492 11.3472 5.10681 11.779 5.41621ZM11.2728 7.86004C10.4206 8.00091 9.96659 8.05494 9.62563 8.05614C9.21177 8.0576 9.13669 8.06994 9.00408 8.15856C8.75782 8.32309 8.69797 8.49726 8.69793 9.04999C8.69779 9.80517 8.82783 9.97724 9.41927 10.0047L9.76334 10.0206V10.5905C9.76334 11.3067 9.75593 11.2987 10.4199 11.2987C10.6724 11.2987 10.916 11.2789 10.9611 11.2548C11.0132 11.2269 11.1027 11.0321 11.2065 10.7208L11.3698 10.2307L11.51 10.2538C11.5871 10.2666 11.83 10.307 12.0497 10.3437C12.8792 10.4823 12.9155 10.457 12.9155 9.73977C12.9155 9.26984 12.9164 9.26589 13.028 9.23787C13.272 9.17665 13.2858 8.79973 13.0471 8.71653L12.9155 8.67062V8.25321C12.9155 7.89498 12.9029 7.82319 12.8267 7.74701C12.708 7.62834 12.6487 7.63264 11.2728 7.86004ZM12.3383 9.05558V9.8314L12.194 9.80228C12.1146 9.78625 11.6602 9.71176 11.184 9.63673L10.3183 9.50025L10.3056 9.04542C10.2987 8.79524 10.2987 8.58925 10.3056 8.58769C10.5072 8.54259 12.0921 8.28837 12.194 8.28482L12.3383 8.27976V9.05558ZM9.75393 9.04559L9.74114 9.45626H9.51916H9.29718L9.2844 9.04559L9.27166 8.63493H9.51916H9.76667L9.75393 9.04559ZM7.36937 9.60823L7.49914 9.73799V11.6258V13.5135L7.39202 13.6381L7.28489 13.7627L4.45943 13.7748L1.63398 13.7868L1.50323 13.6561L1.37249 13.5253V11.6168V9.70834L1.50909 9.5934L1.64565 9.47845H4.44265H7.2396L7.36937 9.60823ZM10.7068 10.1291C10.8006 10.1548 10.7999 10.1917 10.6997 10.4774C10.6273 10.6841 10.6108 10.7003 10.459 10.7131L10.2961 10.7269V10.3892V10.0516L10.4626 10.0797C10.5542 10.0951 10.6641 10.1174 10.7068 10.1291ZM3.55779 10.4355C3.4603 10.5037 3.4591 10.5182 3.4591 11.6051C3.4591 12.6149 3.46581 12.7116 3.5403 12.7791C3.58496 12.8195 3.66581 12.8526 3.72002 12.8526C3.80948 12.8526 5.41697 11.9122 5.60121 11.752C5.70949 11.6579 5.69866 11.4652 5.57901 11.3573C5.45293 11.2436 3.80819 10.3664 3.72108 10.3664C3.68552 10.3664 3.61205 10.3975 3.55779 10.4355ZM4.64936 11.4654L4.84075 11.5767L4.45055 11.815C4.23594 11.9462 4.04495 12.0534 4.02613 12.0534C4.00726 12.0534 3.99185 11.8433 3.99185 11.5865V11.1196L4.22493 11.2369C4.35315 11.3014 4.54414 11.4042 4.64936 11.4654ZM12.5389 11.9036C12.4274 12.0151 12.4685 12.2364 12.6158 12.3184C12.7254 12.3795 12.7504 12.3795 12.86 12.3184C13.1044 12.1823 13.0164 11.8314 12.7379 11.8314C12.6681 11.8314 12.5785 11.8639 12.5389 11.9036Z" fill="#464646"/>
<path fill-rule="evenodd" clip-rule="evenodd" d="M3.24325 0.824632C2.88728 0.8946 2.56283 1.22597 2.48217 1.60192C2.4506 1.74914 2.43901 2.74987 2.44749 4.59635C2.46006 7.341 2.46117 7.37146 2.556 7.54722C2.67831 7.77387 2.85984 7.94577 3.06921 8.03323C3.20875 8.09152 3.49884 8.10218 4.94495 8.10218H6.65562V8.50005V8.89789L4.09175 8.91072C1.53973 8.92346 1.52703 8.92395 1.3435 9.02211C1.11708 9.14318 0.913475 9.38309 0.845993 9.60818C0.811453 9.72348 0.79547 10.3763 0.795781 11.659L0.796225 13.5407L0.903486 13.7711C1.03348 14.0503 1.28556 14.2472 1.59891 14.3144C1.89454 14.3778 6.99867 14.3778 7.27716 14.3143C7.56045 14.2498 7.78523 14.0869 7.92956 13.8413C8.04757 13.6405 8.05489 13.5965 8.06937 12.9968L8.08464 12.3642H9.85631C11.5688 12.3642 11.631 12.3612 11.7168 12.2754C11.8318 12.1604 11.8298 12.0004 11.7122 11.8938C11.6241 11.8141 11.5173 11.8085 9.85036 11.7967L8.08198 11.7842L8.06803 10.7053L8.05409 9.62656L7.92091 9.41248C7.76774 9.16631 7.63278 9.05469 7.38558 8.96976L7.21057 8.90965L7.19832 8.24087C7.1889 7.72681 7.20138 7.53546 7.25221 7.41377C7.37643 7.11645 7.26473 7.12546 10.8288 7.12546C14.245 7.12546 14.2623 7.12653 14.377 7.34078C14.4093 7.40129 14.4249 8.10235 14.4249 9.49985V11.5693L14.3137 11.6724C14.2514 11.7301 14.1219 11.7863 14.0191 11.8C13.7196 11.8402 13.6021 12.0437 13.7614 12.2462C14.0096 12.5617 14.7649 12.2118 14.9339 11.7031C14.9964 11.5149 15.0038 11.2227 14.9926 9.38429C14.9787 7.07964 14.9891 7.17057 14.7065 6.8851C14.4702 6.64634 14.2848 6.59475 13.6591 6.59368L13.093 6.59271V4.12277C13.093 2.37672 13.078 1.60245 13.0415 1.48085C12.9713 1.24644 12.7348 0.982016 12.5058 0.881947C12.3272 0.803854 12.1288 0.798349 9.0974 0.787827C6.55804 0.778948 5.85525 0.788538 5.7677 0.833244C5.68539 0.875243 5.6532 0.931493 5.64317 1.0511C5.61648 1.36951 5.44241 1.35397 9.04 1.35397H12.2481L12.3931 1.48347L12.5381 1.61297L12.5511 3.4369C12.5582 4.44007 12.552 5.26082 12.5374 5.26082C12.5227 5.26082 12.1751 5.02109 11.7648 4.72807C11.27 4.37472 10.9799 4.19532 10.9032 4.19532C10.8232 4.19532 10.5337 4.38777 9.96259 4.82081C9.50887 5.16484 9.11356 5.43708 9.08422 5.42576C9.05483 5.41448 8.45237 4.92324 7.74541 4.33414C6.7611 3.51393 6.43173 3.263 6.33939 3.263C6.22431 3.263 5.78439 3.60432 3.4591 5.49777L3.03734 5.84122L3.02562 3.7863C3.01723 2.31008 3.02837 1.69635 3.06517 1.60716C3.11978 1.4749 3.30687 1.35397 3.45688 1.35397C3.58066 1.35397 3.72548 1.20013 3.72548 1.06863C3.72548 0.972382 3.53959 0.768249 3.46421 0.781701C3.4492 0.784364 3.34975 0.803677 3.24325 0.824632ZM4.50316 0.893357C4.39173 1.00484 4.4328 1.22615 4.5801 1.30819C4.68972 1.36924 4.71467 1.36924 4.82428 1.30819C5.06873 1.17208 4.98073 0.821213 4.70219 0.821213C4.63244 0.821213 4.54285 0.853667 4.50316 0.893357ZM8.9061 1.9764C8.66689 2.01938 8.38991 2.22995 8.26498 2.46387C8.17592 2.63058 8.16087 2.71284 8.1741 2.96075C8.18728 3.20866 8.21281 3.2895 8.32837 3.44902C8.69153 3.95038 9.47468 3.97689 9.83828 3.50016C10.3751 2.79631 9.77777 1.8199 8.9061 1.9764ZM9.3672 2.63804C9.52951 2.80035 9.53799 2.98836 9.39068 3.15965C9.25137 3.3216 8.97074 3.33363 8.82117 3.18406C8.6716 3.03449 8.68363 2.75386 8.84559 2.61455C9.01687 2.46724 9.20489 2.47572 9.3672 2.63804ZM7.9851 5.25887L9.55877 6.57051L8.45126 6.59271C7.23441 6.61708 7.2127 6.62165 6.93536 6.91081C6.78388 7.06868 6.65562 7.33004 6.65562 7.48072C6.65562 7.57209 6.64825 7.57244 4.96488 7.55983L3.27415 7.54722L3.14291 7.40027C3.01789 7.26034 3.01225 7.23663 3.02451 6.90419L3.03734 6.55506L4.67955 5.2238C5.58279 4.49157 6.34196 3.90479 6.3666 3.91984C6.39128 3.93489 7.1196 4.53748 7.9851 5.25887ZM11.779 5.41621L12.5642 5.9788L12.5512 6.27465L12.5381 6.57051L11.4948 6.58117L10.4515 6.59182L10.0297 6.23958C9.79775 6.04588 9.60796 5.86577 9.60796 5.83939C9.60796 5.77058 10.8828 4.811 10.9433 4.83427C10.9711 4.84492 11.3472 5.10681 11.779 5.41621ZM11.2728 7.86004C10.4206 8.00091 9.96659 8.05494 9.62563 8.05614C9.21177 8.0576 9.13669 8.06994 9.00408 8.15856C8.75782 8.32309 8.69797 8.49726 8.69793 9.04999C8.69779 9.80517 8.82783 9.97724 9.41927 10.0047L9.76334 10.0206V10.5905C9.76334 11.3067 9.75593 11.2987 10.4199 11.2987C10.6724 11.2987 10.916 11.2789 10.9611 11.2548C11.0132 11.2269 11.1027 11.0321 11.2065 10.7208L11.3698 10.2307L11.51 10.2538C11.5871 10.2666 11.83 10.307 12.0497 10.3437C12.8792 10.4823 12.9155 10.457 12.9155 9.73977C12.9155 9.26984 12.9164 9.26589 13.028 9.23787C13.272 9.17665 13.2858 8.79973 13.0471 8.71653L12.9155 8.67062V8.25321C12.9155 7.89498 12.9029 7.82319 12.8267 7.74701C12.708 7.62834 12.6487 7.63264 11.2728 7.86004ZM12.3383 9.05558V9.8314L12.194 9.80228C12.1146 9.78625 11.6602 9.71176 11.184 9.63673L10.3183 9.50025L10.3056 9.04542C10.2987 8.79524 10.2987 8.58925 10.3056 8.58769C10.5072 8.54259 12.0921 8.28837 12.194 8.28482L12.3383 8.27976V9.05558ZM9.75393 9.04559L9.74114 9.45626H9.51916H9.29718L9.2844 9.04559L9.27166 8.63493H9.51916H9.76667L9.75393 9.04559ZM7.36937 9.60823L7.49914 9.73799V11.6258V13.5135L7.39202 13.6381L7.28489 13.7627L4.45943 13.7748L1.63398 13.7868L1.50323 13.6561L1.37249 13.5253V11.6168V9.70834L1.50909 9.5934L1.64565 9.47845H4.44265H7.2396L7.36937 9.60823ZM10.7068 10.1291C10.8006 10.1548 10.7999 10.1917 10.6997 10.4774C10.6273 10.6841 10.6108 10.7003 10.459 10.7131L10.2961 10.7269V10.3892V10.0516L10.4626 10.0797C10.5542 10.0951 10.6641 10.1174 10.7068 10.1291ZM3.55779 10.4355C3.4603 10.5037 3.4591 10.5182 3.4591 11.6051C3.4591 12.6149 3.46581 12.7116 3.5403 12.7791C3.58496 12.8195 3.66581 12.8526 3.72002 12.8526C3.80948 12.8526 5.41697 11.9122 5.60121 11.752C5.70949 11.6579 5.69866 11.4652 5.57901 11.3573C5.45293 11.2436 3.80819 10.3664 3.72108 10.3664C3.68552 10.3664 3.61205 10.3975 3.55779 10.4355ZM4.64936 11.4654L4.84075 11.5767L4.45055 11.815C4.23594 11.9462 4.04495 12.0534 4.02613 12.0534C4.00726 12.0534 3.99185 11.8433 3.99185 11.5865V11.1196L4.22493 11.2369C4.35315 11.3014 4.54414 11.4042 4.64936 11.4654ZM12.5389 11.9036C12.4274 12.0151 12.4685 12.2364 12.6158 12.3184C12.7254 12.3795 12.7504 12.3795 12.86 12.3184C13.1044 12.1823 13.0164 11.8314 12.7379 11.8314C12.6681 11.8314 12.5785 11.8639 12.5389 11.9036Z" stroke="white" stroke-width="0.378698" mask="url(#path-1-outside-1_131_82)"/>
</svg>
