<svg width="34" height="34" viewBox="0 0 34 34" fill="none" xmlns="http://www.w3.org/2000/svg">
<path fill-rule="evenodd" clip-rule="evenodd" d="M26.7431 0.228746C24.5446 0.597833 22.6567 2.59794 22.4964 4.72802C22.3535 6.6261 22.4542 6.41972 20.9046 7.99309L19.4997 9.41959L19.8885 9.82198L20.2771 10.2244L20.8094 9.91143C21.2169 9.67186 21.4917 9.59941 21.9818 9.60256C22.8258 9.6078 23.2301 9.83584 24.3696 10.9492L25.3046 11.8627L25.8175 11.3384C26.3893 10.754 26.8323 10.5862 27.8066 10.5853C29.1119 10.5839 30.5471 9.9225 31.5038 8.88116C32.409 7.89595 32.9873 6.11993 32.7989 4.90424L32.7217 4.40657L31.1561 5.98157C29.3731 7.77517 29.6563 7.66593 27.5557 7.36987C26.6753 7.24583 26.1558 7.11667 26.0302 6.99053C25.9045 6.86451 25.7757 6.34332 25.6521 5.46002C25.3577 3.35766 25.2459 3.64627 27.0608 1.82191C28.4509 0.424645 28.6166 0.218963 28.3523 0.218963C28.1855 0.218963 27.8989 0.197067 27.7153 0.170279C27.5318 0.143491 27.0943 0.169813 26.7431 0.228746ZM14.7017 7.72207C14.2542 8.09989 14.1288 8.58684 14.3642 9.03291C14.4596 9.21379 15.2868 10.109 16.2023 11.0222L17.8668 12.6827L18.6753 11.8653L19.4839 11.0478L17.7356 9.2938C16.1835 7.73662 15.9354 7.53281 15.5259 7.47772C15.1443 7.42635 15.0021 7.46851 14.7017 7.72207ZM11.8735 9.68572C11.5939 9.90118 11.4193 10.295 11.4193 10.7103C11.4193 11.0275 11.5995 11.2692 12.6092 12.3044C13.2636 12.9754 14.1371 13.8718 14.5502 14.2966C15.4878 15.2603 15.7955 15.4745 16.2438 15.4755C16.874 15.4769 17.0191 15.2673 17.0374 14.3294L17.0538 13.4921L15.0706 11.5143C13.0969 9.54572 13.0851 9.5364 12.5726 9.54013C12.2895 9.54211 11.9749 9.60768 11.8735 9.68572ZM21.2172 11.036C20.9682 11.2203 20.1729 11.9762 19.4499 12.7157C18.3244 13.8669 18.1407 14.1072 18.1729 14.386C18.1981 14.6038 18.3452 14.8032 18.6168 14.9879C19.2155 15.3949 19.985 15.3081 20.8065 14.7411C21.2945 14.4044 21.5403 14.3116 21.9442 14.3116C23.1216 14.3116 23.9141 15.2778 23.6661 16.4108C23.6216 16.6145 23.3236 17.0707 23.0041 17.4248C22.2842 18.2222 21.9891 18.8563 21.9867 19.6109C21.9837 20.5167 22.1816 21.0266 22.8034 21.7155C23.1187 22.0646 23.3765 22.4508 23.3765 22.5737C23.3765 22.868 23.0725 23.1632 22.7693 23.1632C22.4352 23.1632 21.5609 22.1978 21.187 21.4161C20.9211 20.8604 20.8809 20.6292 20.8835 19.6691C20.887 18.3571 21.1042 17.803 22.0007 16.8189C22.5677 16.1964 22.6815 15.8738 22.4246 15.616C22.1875 15.3782 21.7991 15.4597 21.181 15.877C20.3053 16.4682 19.145 16.5729 18.2782 16.1391C17.9537 15.9767 17.9033 15.9802 17.6464 16.183C17.4928 16.3042 17.2362 16.4533 17.0761 16.5145C16.797 16.6208 16.7874 16.6569 16.8453 17.3804C16.8953 18.0064 16.8611 18.2278 16.6443 18.6769C16.3605 19.2652 15.7715 19.7334 15.1613 19.8558C14.791 19.9301 14.7859 19.9403 14.7859 20.5926C14.7859 21.8587 13.8201 22.8138 12.5397 22.8138C11.7043 22.8138 11.3474 22.6 10.0333 21.3128L8.8214 20.1258L7.8856 21.0573C6.82175 22.1162 6.43227 22.3169 5.41973 22.3272C2.91812 22.3527 0.796228 24.2322 0.397808 26.7757C-0.0383408 29.5587 2.05778 32.366 4.81258 32.6887C6.48103 32.8843 7.91787 32.4333 9.10709 31.3411C10.152 30.3813 10.7192 29.1086 10.7371 27.6834C10.7422 27.2791 10.8213 26.7649 10.9128 26.5407C11.0204 26.2774 12.6694 24.5361 15.5731 21.62C19.2855 17.8916 20.1217 17.1068 20.3825 17.1068C20.6896 17.1068 20.9386 17.3751 20.9386 17.7057C20.9386 17.7873 19.5157 19.2851 17.7767 21.034L14.6147 24.2139L17.8928 27.5026L21.1708 30.7914L24.8472 27.1029L28.5237 23.4145L28.0417 22.6724C27.218 21.4039 27.1046 20.8994 26.5651 16.1038C26.44 14.9911 25.9576 14.2187 24.3622 12.5772C22.4475 10.607 22.0563 10.4153 21.2172 11.036ZM10.3872 12.9601C10.0225 13.1629 9.80317 13.5764 9.79806 14.0713C9.79434 14.4361 9.97602 14.6553 11.8491 16.545C14.0974 18.8133 14.381 19.0022 15.0555 18.6811C15.4964 18.4713 15.7146 18.094 15.7146 17.5415C15.7146 17.2171 15.448 16.9044 13.5345 14.9847C11.2065 12.649 11.086 12.5716 10.3872 12.9601ZM8.00494 16.0676C7.8019 16.3096 7.70438 16.5636 7.70438 16.8504C7.70438 17.2459 7.85274 17.4236 9.88443 19.4619C11.7927 21.3764 12.1102 21.6491 12.4309 21.6491C13.0386 21.6491 13.3907 21.4497 13.5783 20.9993C13.8734 20.2906 13.6944 20.0204 11.4397 17.771L9.37305 15.7092H8.83927C8.38571 15.7092 8.26033 15.7631 8.00494 16.0676ZM25.6566 27.9219L21.1476 32.4467L21.4494 32.7495C21.6154 32.9161 21.7512 33.1072 21.7512 33.1742C21.7512 33.2572 23.6129 33.2959 27.6138 33.2959H33.4763V29.8601C33.4763 27.2089 33.4436 26.4243 33.3327 26.4243C33.2538 26.4243 32.5089 25.7432 31.6774 24.9106L30.1657 23.3971L25.6566 27.9219ZM6.52178 24.1619C7.3957 24.3909 8.19823 24.6661 8.30514 24.7733C8.50052 24.9693 9.32964 27.924 9.32964 28.4241C9.32964 28.7699 6.82999 31.3149 6.4873 31.3181C6.0335 31.3222 3.00031 30.4645 2.81642 30.2799C2.63323 30.0963 1.77742 27.0532 1.7816 26.6008C1.78485 26.2566 4.31827 23.7455 4.66248 23.7455C4.81119 23.7455 5.64785 23.9329 6.52178 24.1619ZM3.90581 25.8715L2.95747 26.8319L3.30574 28.1098C3.4974 28.8127 3.66434 29.3957 3.67676 29.4054C3.68907 29.4152 4.27393 29.5842 4.97627 29.7809L6.25326 30.1386L7.20891 29.1841L8.16468 28.2295L7.80689 26.9314L7.44922 25.6332L6.32883 25.3249C5.71263 25.1554 5.1287 24.9929 5.0313 24.9639C4.92194 24.9313 4.49136 25.2785 3.90581 25.8715Z" fill="white"/>
</svg>
