<svg width="40" height="26" viewBox="0 0 40 26" fill="none" xmlns="http://www.w3.org/2000/svg">
<path d="M9.40255 6.80494L5.0159 6.83555V6.82957V5.98683V5.13634H9.34387H13.813L14.0901 5.40339C14.2758 5.58229 14.3605 5.77675 14.3681 5.96015C14.3757 6.14331 14.3075 6.34189 14.1381 6.53168L14.1381 6.53172L13.9226 6.7733L9.40255 6.80494ZM8.9851 11.0487H5.0159V10.2591V9.46954H8.9851H13.0956L13.3172 9.6832L13.3173 9.68328C13.4061 9.76882 13.4558 9.84192 13.4863 9.92033C13.5178 10.0011 13.5353 10.1041 13.5353 10.2591C13.5353 10.4141 13.5178 10.5172 13.4863 10.598C13.4558 10.6764 13.4061 10.7495 13.3173 10.835L13.3172 10.8351L13.0956 11.0487H8.9851ZM10.8096 16.5505C12.2883 16.0827 14.1627 16.2765 15.5258 17.0392L15.6302 16.8527L15.5258 17.0392C16.2931 17.4684 16.981 18.1851 17.4773 19.02C17.9737 19.8552 18.2683 20.7916 18.2683 21.6502V22.2325V22.4692H18.505H21.9364H25.3679H25.6046V22.2325V11.4565V0.680481V0.443795H25.3679H15.364H5.36008H5.26456L5.1958 0.510088L4.9055 0.789969C4.8356 0.857304 4.75844 0.932491 4.69905 1.03604C4.63797 1.14253 4.60425 1.26245 4.58336 1.41416C4.54345 1.70406 4.54253 2.185 4.54253 3.07002V4.66297H4.24084C3.54192 4.66297 2.93989 4.90468 2.69511 5.42247C2.59852 5.62674 2.53454 5.8111 2.5402 6.01029C2.54585 6.20902 2.61995 6.39065 2.72774 6.59148C2.99994 7.09872 3.53842 7.30294 4.25231 7.30294H4.54253V7.31224V8.14956L10.8096 16.5505ZM27.3794 12.6538V12.8905H27.6161H33.0254H38.4348H39.0058L38.6023 12.4865L38.0042 11.8879C35.7044 9.58529 34.3164 8.20326 33.4693 7.38218C33.046 6.97201 32.755 6.6991 32.5514 6.52063C32.3565 6.34976 32.2194 6.24462 32.1114 6.19824C32.0272 6.16205 31.9081 6.13914 31.7797 6.12174C31.6441 6.10336 31.4733 6.0882 31.271 6.07598C30.8659 6.05151 30.3225 6.03814 29.6578 6.03648L27.6167 6.03135L27.3794 6.03075V6.26803V9.46092V12.6538ZM27.3794 17.8118V18.3313L27.7714 17.9904L28.2151 17.6045C29.2391 16.7142 30.3617 16.3108 31.8421 16.3128C32.7243 16.3139 33.444 16.4288 34.0894 16.6813C34.7341 16.9336 35.3179 17.3284 35.9214 17.9071L36.0644 17.7579L35.9214 17.9071C36.9625 18.9051 37.5511 20.2417 37.554 21.5915L37.5554 22.2615L37.556 22.5475L37.8368 22.4934L38.221 22.4194L38.1763 22.187L38.2211 22.4194C38.3522 22.3941 38.4949 22.3417 38.6208 22.2804C38.7448 22.22 38.8716 22.1418 38.9616 22.0551L38.9617 22.055C39.0367 21.9828 39.1054 21.8997 39.1543 21.7557C39.1979 21.6272 39.2233 21.4572 39.2414 21.2143C39.2777 20.7257 39.2894 19.8583 39.3057 18.2408L39.3403 14.8228L39.3427 14.5837H39.1036H33.3598H27.6161H27.3794V14.8204V16.316V17.8118ZM11.3113 18.0553L11.3113 18.0553C9.75542 18.6157 8.74509 19.8502 8.59859 21.4073C8.45986 22.882 9.30799 24.3509 10.7007 25.1083C11.0036 25.273 11.2145 25.377 11.491 25.4321C11.757 25.4851 12.0751 25.4908 12.5888 25.4907C13.0602 25.4905 13.3789 25.4804 13.6363 25.4391C13.9036 25.3963 14.0996 25.321 14.3292 25.203L14.3292 25.203C15.1518 24.7803 15.8119 24.1423 16.1975 23.3844L16.1975 23.3844C16.3392 23.1058 16.4318 22.8865 16.4857 22.631C16.5387 22.3795 16.5516 22.1046 16.5516 21.7193C16.5516 21.334 16.5387 21.0592 16.4857 20.8076C16.4318 20.5521 16.3392 20.3329 16.1975 20.0542L16.1975 20.0542C15.809 19.2908 15.1414 18.648 14.3264 18.2428C13.9664 18.0638 13.3835 17.9587 12.8279 17.924C12.2729 17.8893 11.6841 17.9211 11.3113 18.0553ZM10.8138 24.9004C11.4154 25.2275 11.5497 25.2543 12.5887 25.254C13.5332 25.2537 13.794 25.2119 14.221 24.9925C15.0043 24.59 15.6259 23.9859 15.9865 23.2771C16.2622 22.735 16.3149 22.4854 16.3149 21.7193C16.3149 20.9533 16.2622 20.7036 15.9865 20.1615L10.8138 24.9004ZM28.3306 23.3989C28.7038 24.1295 29.2185 24.6851 29.8638 25.0463C30.5084 25.4071 31.2692 25.5661 32.1234 25.5267C32.6868 25.5006 33.1679 25.4045 33.6078 25.2101C34.048 25.0155 34.4343 24.7279 34.8154 24.3353C36.6199 22.476 36.0511 19.4444 33.701 18.2845C33.2953 18.0843 32.7058 17.9634 32.1379 17.9224C31.5717 17.8816 30.9819 17.9171 30.5775 18.0623C28.9447 18.6481 27.9292 20.0403 27.9219 21.7271C27.9204 22.0744 27.9339 22.3283 27.9961 22.5822C28.058 22.8352 28.1651 23.075 28.3306 23.3989Z" fill="white" stroke="white" stroke-width="0.473373"/>
</svg>
