<svg width="26" height="26" viewBox="0 0 26 26" fill="none" xmlns="http://www.w3.org/2000/svg">
<path fill-rule="evenodd" clip-rule="evenodd" d="M16.1345 0.7649C15.8669 0.853688 13.3063 2.32735 6.47224 6.32559L4.73333 7.34292L3.46975 7.37349C2.27494 7.40236 2.18225 7.41569 1.76824 7.61852C1.24083 7.8768 0.843821 8.31928 0.63266 8.88427C0.478963 9.29548 0.476655 9.42593 0.497424 16.4755L0.518579 23.6483L0.6982 23.9949C0.937516 24.4564 1.3323 24.8553 1.77308 25.0808L2.13402 25.2655L12.0521 25.2861C23.0372 25.3091 22.4228 25.3356 23.1146 24.8069C23.3519 24.6255 23.5448 24.3817 23.7048 24.0613C23.9404 23.5894 23.9424 23.5745 23.9424 22.3654C23.9424 21.2483 23.9295 21.1327 23.7886 20.9916C23.6418 20.8447 23.5312 20.8375 21.3847 20.8363C18.8185 20.8348 18.3947 20.7787 17.4807 20.3201C16.7651 19.9611 15.9349 19.1573 15.5745 18.4746C15.266 17.8903 15.0186 16.9544 15.0204 16.3782C15.0256 14.6932 15.9992 13.112 17.4855 12.3747C18.4367 11.9029 18.9501 11.8338 21.5266 11.8306C23.5595 11.8281 23.6957 11.8191 23.8217 11.6798C23.9402 11.5488 23.9525 11.3826 23.929 10.236C23.9056 9.08556 23.884 8.9056 23.7367 8.63215C23.4253 8.05384 22.8094 7.58148 22.2021 7.45519C21.9223 7.39697 21.895 7.35554 20.2941 4.56153C19.4007 3.00247 18.5556 1.59056 18.4158 1.42392C17.9122 0.823501 16.8671 0.52156 16.1345 0.7649ZM17.3678 1.97266C17.8184 2.25143 17.7808 2.30972 16.7662 2.90413C16.2496 3.20684 15.5152 3.63754 15.1344 3.86124C14.7537 4.08494 13.2478 4.96366 11.7882 5.81396L9.13425 7.35993L8.01883 7.3577C7.02979 7.35562 6.92517 7.34338 7.09572 7.24951C7.20149 7.19129 9.34549 5.94518 11.8602 4.48037C16.0043 2.06646 16.4644 1.81711 16.7743 1.81711C16.9832 1.81711 17.2142 1.87764 17.3678 1.97266ZM20.0065 6.31373C20.3169 6.85454 20.5559 7.31211 20.5375 7.33044C20.5192 7.34884 19.4543 7.3547 18.1712 7.34345L15.8382 7.32305L17.5634 6.30957C18.5122 5.75212 19.323 5.30379 19.3654 5.31327C19.4077 5.32274 19.6962 5.77291 20.0065 6.31373ZM18.6539 13.1C17.6999 13.3619 16.9479 13.9861 16.5047 14.8836C16.2568 15.3858 16.2155 15.5488 16.1875 16.1355C16.1177 17.5963 16.7744 18.7083 18.092 19.3605L18.6649 19.644H21.3229H23.9809L24.3271 19.413C24.5658 19.2537 24.74 19.0505 24.8884 18.7585L25.1035 18.3349L25.0807 16.2558C25.0558 13.9929 25.0496 13.9584 24.5858 13.494C24.1134 13.0211 24.1252 13.023 21.4808 13.0053C19.5707 12.9925 18.9722 13.0126 18.6539 13.1ZM20.0635 15.4081C20.6331 15.7422 20.7833 16.4539 20.3984 16.9949C19.9775 17.5867 19.1735 17.6044 18.6409 17.0337C18.3626 16.7355 18.329 16.1154 18.5716 15.7552C18.7781 15.4484 19.183 15.2165 19.5124 15.2163C19.6357 15.2162 19.8837 15.3025 20.0635 15.4081Z" fill="white"/>
</svg>
