<svg width="26" height="27" viewBox="0 0 26 27" fill="none" xmlns="http://www.w3.org/2000/svg">
<path fill-rule="evenodd" clip-rule="evenodd" d="M12.6318 0.780612C12.5128 0.87378 12.1682 1.46866 11.8103 2.1989C11.4713 2.89071 11.1857 3.46513 11.1758 3.47536C11.1659 3.48567 10.5275 3.58539 9.75732 3.69709C8.98712 3.80872 8.27733 3.93361 8.18005 3.9746C7.93657 4.0772 7.72876 4.50061 7.7927 4.76381C7.8225 4.88606 8.29516 5.42869 8.91635 6.05361L9.98859 7.13231L9.74286 8.53638C9.59867 9.36019 9.51971 10.0299 9.55176 10.1569C9.60919 10.3847 10.0193 10.6872 10.2713 10.6877C10.3522 10.6879 11.0013 10.3824 11.7139 10.0088C12.4264 9.63529 13.0305 9.32966 13.0562 9.32966C13.0819 9.32966 13.686 9.63529 14.3985 10.0088C15.1111 10.3824 15.7603 10.6879 15.8412 10.6877C16.0931 10.6872 16.5032 10.3847 16.5607 10.1569C16.5927 10.0299 16.5138 9.36019 16.3696 8.53638L16.1238 7.13231L17.1961 6.05361C17.8173 5.42869 18.2899 4.88606 18.3197 4.76381C18.3837 4.50077 18.176 4.07744 17.9324 3.97404C17.8351 3.93273 17.1247 3.8072 16.3537 3.69502C15.5826 3.58291 14.9443 3.48343 14.9351 3.47392C14.926 3.46449 14.6411 2.89071 14.3021 2.1989C13.9443 1.46866 13.5996 0.87378 13.4806 0.780612C13.2192 0.576059 12.8932 0.576059 12.6318 0.780612ZM3.91158 4.71219C3.7898 4.773 3.55685 5.13712 3.24902 5.74782C2.89051 6.4592 2.7301 6.69955 2.59346 6.72976C2.49393 6.75181 2.04368 6.82229 1.59295 6.88637C0.456611 7.04785 0.283822 7.16523 0.283822 7.77554C0.283822 8.04313 0.353629 8.13622 1.05651 8.80533L1.82912 9.54093L1.65304 10.5865C1.48997 11.555 1.48635 11.6502 1.6042 11.8768C1.88929 12.4251 2.21342 12.4127 3.35755 11.8099L4.26126 11.3336L5.18448 11.8071C5.69225 12.0674 6.20989 12.2817 6.3348 12.2833C6.62158 12.2868 7.0315 11.8972 7.0315 11.621C7.0315 11.5121 6.96041 11.0093 6.87349 10.5037L6.71548 9.58431L7.42953 8.88931C8.21339 8.12631 8.37381 7.86183 8.2595 7.5208C8.13266 7.14214 7.86219 7.01909 6.8024 6.8576C6.25881 6.77482 5.80294 6.69492 5.78936 6.67998C5.77571 6.66512 5.56492 6.25553 5.32088 5.7698C5.07684 5.28406 4.82292 4.84187 4.75657 4.78706C4.58241 4.64331 4.13008 4.60328 3.91158 4.71219ZM21.4908 4.71643C21.3569 4.78219 21.1372 5.10795 20.8315 5.69405C20.5793 6.17746 20.3607 6.60495 20.3458 6.64394C20.3309 6.68293 19.871 6.77962 19.3241 6.85864C18.2542 7.01326 17.9819 7.13583 17.8529 7.5208C17.7379 7.86399 17.9039 8.13638 18.6855 8.88739L19.3989 9.57297L19.2399 10.498C19.1525 11.0068 19.0809 11.5121 19.0809 11.621C19.0809 11.8972 19.4908 12.2868 19.7776 12.2833C19.9025 12.2817 20.4202 12.0674 20.9279 11.8071L21.8512 11.3336L22.7549 11.8099C23.899 12.4127 24.2231 12.4251 24.5082 11.8768C24.6261 11.6502 24.6225 11.555 24.4595 10.5877L24.2837 9.54332L25.0562 8.80917C25.7614 8.13878 25.8286 8.04913 25.8286 7.77817C25.8286 7.16499 25.6569 7.04801 24.5195 6.88637C24.0687 6.82229 23.6185 6.75181 23.519 6.72976C23.3823 6.69955 23.222 6.45936 22.8638 5.7487C22.3019 4.63373 22.0478 4.44268 21.4908 4.71643ZM3.29618 15.8192C2.2425 16.1894 1.58588 17.3244 1.80848 18.3908C1.93508 18.9975 2.38131 19.5988 2.9347 19.9085C3.3263 20.1277 3.44953 20.1557 4.01914 20.1557C4.58876 20.1557 4.71199 20.1277 5.10359 19.9085C5.94689 19.4366 6.41987 18.4382 6.23029 17.5299C6.06498 16.7378 5.51962 16.1005 4.78677 15.8434C4.39364 15.7054 3.65421 15.6934 3.29618 15.8192ZM12.1726 15.8878C11.0867 16.3753 10.556 17.5977 10.9416 18.7234C11.1344 19.2861 11.7743 19.9042 12.336 20.0701C13.236 20.336 13.9892 20.158 14.6204 19.5301C15.5244 18.6308 15.5345 17.2494 14.6435 16.3828C14.1673 15.9198 13.6981 15.7255 13.0562 15.7255C12.7036 15.7255 12.4167 15.7781 12.1726 15.8878ZM21.3703 15.8192C20.3166 16.1894 19.66 17.3244 19.8826 18.3908C20.0092 18.9975 20.4554 19.5988 21.0088 19.9085C21.4004 20.1277 21.5237 20.1557 22.0933 20.1557C22.6629 20.1557 22.7861 20.1277 23.1777 19.9085C24.021 19.4366 24.494 18.4382 24.3044 17.5299C24.1391 16.7378 23.5938 16.1005 22.8609 15.8434C22.4678 15.7054 21.7283 15.6934 21.3703 15.8192ZM1.108 21.1226C0.909027 21.3291 0.651249 21.6996 0.535173 21.946C0.331216 22.3786 0.323184 22.4514 0.299567 24.0811L0.275146 25.7683L0.526658 25.9789L0.77809 26.1893H4.27033H7.76258L7.73848 24.2916C7.71478 22.4337 7.70988 22.3845 7.50311 21.946C7.38704 21.6996 7.12926 21.3291 6.93028 21.1226L6.56864 20.7471L6.0608 21.0736C5.40065 21.498 4.82011 21.6666 4.01914 21.6666C3.21818 21.6666 2.63764 21.498 1.97749 21.0736L1.46965 20.7471L1.108 21.1226ZM10.1296 21.158C9.92159 21.379 9.65458 21.7656 9.53617 22.0169C9.32507 22.4649 9.32041 22.5101 9.2943 24.3316L9.26779 26.1893H13.0562H16.8446L16.8181 24.3296L16.7915 22.4698L16.5348 21.9524C16.3936 21.6679 16.114 21.2754 15.9136 21.0802L15.5492 20.7254L15.3671 20.8856C14.7803 21.4021 14.0083 21.6611 13.0562 21.6611C12.1913 21.6611 11.6658 21.5028 10.9584 21.0294C10.7337 20.8789 10.5404 20.7559 10.5287 20.7559C10.5172 20.7559 10.3375 20.9368 10.1296 21.158ZM19.1821 21.1226C18.9832 21.3291 18.7254 21.6996 18.6093 21.946C18.4025 22.3845 18.3976 22.4337 18.3739 24.2916L18.3498 26.1893H21.8421H25.3343L25.5858 25.9789L25.8373 25.7683L25.8129 24.0811C25.7892 22.4514 25.7812 22.3786 25.5773 21.946C25.4612 21.6996 25.2034 21.3291 25.0044 21.1226L24.6428 20.7471L24.1349 21.0736C23.4748 21.498 22.8942 21.6666 22.0933 21.6666C21.2923 21.6666 20.7118 21.498 20.0516 21.0736L19.5438 20.7471L19.1821 21.1226Z" fill="white"/>
</svg>
