<svg width="27" height="27" viewBox="0 0 27 27" fill="none" xmlns="http://www.w3.org/2000/svg">
<path fill-rule="evenodd" clip-rule="evenodd" d="M24.0221 0.710217C19.9882 1.13205 15.6831 3.20973 12.5127 6.26484L11.5875 7.15637L10.6715 7.2477C7.74653 7.53936 4.85593 8.80638 2.82609 10.6865C2.32645 11.1494 2.20704 11.3049 2.20704 11.493C2.20704 11.7185 2.44339 12.0457 2.60642 12.0457C2.78966 12.0457 6.63615 12.6143 6.66795 12.646C6.68696 12.6651 6.57169 12.8256 6.41178 13.0026C6.22583 13.2087 6.12103 13.4039 6.12103 13.5445C6.12103 13.7278 6.71491 14.3584 9.69586 17.3399C12.6712 20.3158 13.3074 20.9154 13.4898 20.9154C13.6297 20.9154 13.8254 20.8102 14.0308 20.6246C14.2078 20.4646 14.3678 20.3489 14.3863 20.3674C14.4165 20.3976 14.9874 24.2598 14.9874 24.4338C14.9874 24.5755 15.3417 24.8309 15.5382 24.8309C15.9366 24.8309 17.2407 23.2909 18.0418 21.8743C19.063 20.0686 19.6241 18.2333 19.8251 16.0411L19.8801 15.4418L20.7686 14.5188C24.1094 11.0487 26.173 6.47755 26.3838 2.07967C26.4336 1.04095 26.4303 1.01051 26.2487 0.817054C26.0767 0.633985 26.0104 0.619682 25.3775 0.62951C25.0008 0.635344 24.3908 0.671701 24.0221 0.710217ZM20.1438 5.49509C20.6477 5.71116 21.257 6.31158 21.5104 6.84161C21.8184 7.48583 21.8177 8.37632 21.5089 9.02237C21.2328 9.6001 20.7379 10.0971 20.1794 10.3579C19.5503 10.6514 18.6491 10.6497 18.0109 10.3536C17.4364 10.0869 16.9454 9.59579 16.6789 9.02101C16.381 8.37847 16.381 7.48239 16.6789 6.83985C17.0297 6.08321 17.7684 5.49357 18.5789 5.32329C18.9889 5.23714 19.7326 5.31873 20.1438 5.49509ZM5.34654 17.7552C3.95108 18.0709 3.26317 18.9237 2.18555 21.6745C1.67154 22.9866 0.849121 25.4634 0.849121 25.6994C0.849121 25.9009 1.14451 26.1893 1.35075 26.1893C1.57672 26.1893 4.08128 25.3546 5.36219 24.8524C6.94736 24.231 8.00557 23.673 8.43747 23.231C10.1093 21.5199 9.39256 18.5953 7.11949 17.853C6.53591 17.6623 5.90967 17.6278 5.34654 17.7552Z" fill="white"/>
</svg>
